<svg version="1.1" viewBox="0.0 0.0 600.0 371.0" fill="none" stroke="none" stroke-linecap="square" stroke-miterlimit="10" width="600" height="371" xmlns:xlink="http://www.w3.org/1999/xlink" xmlns="http://www.w3.org/2000/svg"><path fill="#ffffff" d="M0 0L600.0 0L600.0 371.0L0 371.0L0 0Z" fill-rule="nonzero"/><path fill="#674ea7" d="M300.0 51.916668C338.21988 51.916668 375.00354 66.48035 402.86462 92.64365L300.0 202.18333Z" fill-rule="nonzero"/><path fill="#ffe599" d="M402.86462 92.64365C421.3154 109.97008 435.09064 131.67639 442.91208 155.74838L300.0 202.18333Z" fill-rule="nonzero"/><path fill="#ff6f31" d="M442.91208 155.74838C450.73355 179.82037 452.3478 205.47803 447.60504 230.3405L300.0 202.18333Z" fill-rule="nonzero"/><path fill="#1c7685" d="M447.60504 230.3405C434.75122 297.7225 377.897 347.84625 309.43533 352.15347L300.0 202.18333Z" fill-rule="nonzero"/><path fill="#ff9a6f" d="M244.68315 62.46892C262.29236 55.496944 281.06082 51.916668 300.0 51.916668L300.0 202.18333Z" fill-rule="nonzero"/><path fill="#4d7d90" d="M173.12566 121.66643C190.12915 94.8732 215.17836 74.15069 244.68315 62.46892L300.0 202.18333Z" fill-rule="nonzero"/><path fill="#8ab2c6" d="M150.02985 211.61865C148.03731 179.94807 156.12216 148.45966 173.12566 121.66643L300.0 202.18333Z" fill-rule="nonzero"/><path fill="#4cdc8b" d="M219.4831 329.05768C178.86998 303.2838 153.05014 259.62485 150.02985 211.61865L300.0 202.18333Z" fill-rule="nonzero"/><path fill="#0f45a8" d="M309.43533 352.15347C277.76474 354.14603 246.27632 346.0612 219.4831 329.05768L300.0 202.18333Z" fill-rule="nonzero"/><path fill="#1a1a1a" d="M28.6125 64.916664L26.409374 64.916664L25.534374 62.635414L21.51875 62.635414L20.690624 64.916664L18.55 64.916664L22.45625 54.90104L24.596874 54.90104L28.6125 64.916664ZM24.878124 60.947914L23.503124 57.229164L22.14375 60.947914L24.878124 60.947914ZM35.20625 64.916664L33.425 64.916664L33.425 63.854164Q32.9875 64.479164 32.378124 64.791664Q31.76875 65.08854 31.159374 65.08854Q29.909374 65.08854 29.01875 64.072914Q28.128124 63.05729 28.128124 61.260414Q28.128124 59.416664 28.9875 58.46354Q29.8625 57.49479 31.190624 57.49479Q32.409374 57.49479 33.3 58.510414L33.3 54.90104L35.20625 54.90104L35.20625 64.916664ZM30.08125 61.135414Q30.08125 62.291664 30.409374 62.80729Q30.878124 63.55729 31.70625 63.55729Q32.3625 63.55729 32.83125 62.99479Q33.3 62.43229 33.3 61.30729Q33.3 60.05729 32.846874 59.510414Q32.39375 58.96354 31.690624 58.96354Q31.003124 58.96354 30.534374 59.510414Q30.08125 60.041664 30.08125 61.135414ZM39.55 64.916664L36.628124 57.65104L38.64375 57.65104L40.003124 61.354164L40.409374 62.604164Q40.565624 62.11979 40.596874 61.979164Q40.70625 61.666664 40.815624 61.354164L42.190624 57.65104L44.159374 57.65104L41.284374 64.916664L39.55 64.916664ZM46.55 56.666664L46.55 54.90104L48.471874 54.90104L48.471874 56.666664L46.55 56.666664ZM46.55 64.916664L46.55 57.65104L48.471874 57.65104L48.471874 64.916664L46.55 64.916664ZM49.878124 62.83854L51.8 62.55729Q51.925 63.104164 52.3 63.40104Q52.675 63.697914 53.3625 63.697914Q54.096874 63.697914 54.471874 63.416664Q54.7375 63.229164 54.7375 62.90104Q54.7375 62.68229 54.596874 62.541664Q54.45625 62.40104 53.95625 62.291664Q51.628124 61.77604 51.003124 61.354164Q50.14375 60.760414 50.14375 59.71354Q50.14375 58.77604 50.878124 58.135414Q51.628124 57.49479 53.20625 57.49479Q54.690624 57.49479 55.409374 57.979164Q56.14375 58.46354 56.409374 59.416664L54.596874 59.74479Q54.4875 59.322914 54.159374 59.104164Q53.83125 58.86979 53.2375 58.86979Q52.471874 58.86979 52.14375 59.08854Q51.925 59.229164 51.925 59.479164Q51.925 59.68229 52.128124 59.822914Q52.378124 60.010414 53.909374 60.36979Q55.45625 60.71354 56.065624 61.21354Q56.659374 61.729164 56.659374 62.65104Q56.659374 63.65104 55.815624 64.36979Q54.9875 65.08854 53.3625 65.08854Q51.878124 65.08854 51.003124 64.479164Q50.14375 63.86979 49.878124 62.83854ZM58.1125 61.18229Q58.1125 60.229164 58.58125 59.33854Q59.05 58.43229 59.909374 57.96354Q60.784374 57.49479 61.846874 57.49479Q63.503124 57.49479 64.55 58.572914Q65.59688 59.635414 65.59688 61.260414Q65.59688 62.916664 64.53438 64.010414Q63.471874 65.08854 61.8625 65.08854Q60.8625 65.08854 59.95625 64.635414Q59.05 64.18229 58.58125 63.30729Q58.1125 62.43229 58.1125 61.18229ZM60.08125 61.291664Q60.08125 62.36979 60.596874 62.947914Q61.1125 63.510414 61.8625 63.510414Q62.6125 63.510414 63.1125 62.947914Q63.628124 62.36979 63.628124 61.27604Q63.628124 60.21354 63.1125 59.635414Q62.6125 59.05729 61.8625 59.05729Q61.1125 59.05729 60.596874 59.635414Q60.08125 60.21354 60.08125 61.291664ZM69.39375 64.916664L67.47188 64.916664L67.47188 57.65104L69.25313 57.65104L69.25313 58.68229Q69.72188 57.96354 70.08125 57.729164Q70.44063 57.49479 70.90938 57.49479Q71.56563 57.49479 72.175 57.854164L71.58125 59.52604Q71.09688 59.21354 70.675 59.21354Q70.26875 59.21354 69.9875 59.447914Q69.72188 59.666664 69.55 60.24479Q69.39375 60.822914 69.39375 62.666664L69.39375 64.916664ZM72.87813 62.83854L74.8 62.55729Q74.925 63.104164 75.3 63.40104Q75.675 63.697914 76.3625 63.697914Q77.09688 63.697914 77.47188 63.416664Q77.7375 63.229164 77.7375 62.90104Q77.7375 62.68229 77.59688 62.541664Q77.45625 62.40104 76.95625 62.291664Q74.62813 61.77604 74.00313 61.354164Q73.14375 60.760414 73.14375 59.71354Q73.14375 58.77604 73.87813 58.135414Q74.62813 57.49479 76.20625 57.49479Q77.69063 57.49479 78.40938 57.979164Q79.14375 58.46354 79.40938 59.416664L77.59688 59.74479Q77.4875 59.322914 77.15938 59.104164Q76.83125 58.86979 76.2375 58.86979Q75.47188 58.86979 75.14375 59.08854Q74.925 59.229164 74.925 59.479164Q74.925 59.68229 75.12813 59.822914Q75.37813 60.010414 76.90938 60.36979Q78.45625 60.71354 79.06563 61.21354Q79.65938 61.729164 79.65938 62.65104Q79.65938 63.65104 78.81563 64.36979Q77.9875 65.08854 76.3625 65.08854Q74.87813 65.08854 74.00313 64.479164Q73.14375 63.86979 72.87813 62.83854Z" fill-rule="nonzero"/><path fill="#9e9e9e" d="M25.659374 77.354164L23.8 77.55729Q23.721874 76.979164 23.425 76.71354Q23.14375 76.43229 22.690624 76.43229Q22.08125 76.43229 21.659374 76.979164Q21.2375 77.52604 21.128124 79.260414Q21.846874 78.40104 22.925 78.40104Q24.128124 78.40104 24.971874 79.322914Q25.83125 80.24479 25.83125 81.68229Q25.83125 83.229164 24.925 84.166664Q24.034374 85.08854 22.6125 85.08854Q21.096874 85.08854 20.1125 83.916664Q19.14375 82.729164 19.14375 80.041664Q19.14375 77.291664 20.159374 76.072914Q21.175 74.854164 22.815624 74.854164Q23.95625 74.854164 24.690624 75.49479Q25.440624 76.135414 25.659374 77.354164ZM21.3 81.541664Q21.3 82.479164 21.721874 82.99479Q22.159374 83.49479 22.70625 83.49479Q23.253124 83.49479 23.596874 83.08854Q23.95625 82.666664 23.95625 81.71354Q23.95625 80.729164 23.565624 80.27604Q23.190624 79.822914 22.6125 79.822914Q22.065624 79.822914 21.675 80.260414Q21.3 80.697914 21.3 81.541664ZM27.55 84.916664L27.55 82.99479L29.471874 82.99479L29.471874 84.916664L27.55 84.916664ZM34.39375 74.854164Q35.846874 74.854164 36.675 75.885414Q37.64375 77.11979 37.64375 79.979164Q37.64375 82.822914 36.659374 84.05729Q35.846874 85.08854 34.39375 85.08854Q32.925 85.08854 32.034374 83.96354Q31.14375 82.83854 31.14375 79.947914Q31.14375 77.11979 32.128124 75.885414Q32.940624 74.854164 34.39375 74.854164ZM34.39375 76.447914Q34.05 76.447914 33.76875 76.666664Q33.503124 76.885414 33.346874 77.46354Q33.14375 78.21354 33.14375 79.979164Q33.14375 81.74479 33.315624 82.40104Q33.503124 83.05729 33.76875 83.27604Q34.05 83.49479 34.39375 83.49479Q34.7375 83.49479 35.003124 83.27604Q35.284374 83.05729 35.440624 82.479164Q35.64375 81.74479 35.64375 79.979164Q35.64375 78.21354 35.45625 77.55729Q35.284374 76.885414 35.003124 76.666664Q34.7375 76.447914 34.39375 76.447914ZM39.159374 77.36979Q39.159374 76.02604 39.753124 75.385414Q40.346874 74.729164 41.346874 74.729164Q42.39375 74.729164 42.9875 75.36979Q43.58125 76.010414 43.58125 77.36979Q43.58125 78.71354 42.9875 79.36979Q42.39375 80.010414 41.39375 80.010414Q40.346874 80.010414 39.753124 79.36979Q39.159374 78.729164 39.159374 77.36979ZM40.659374 77.354164Q40.659374 78.33854 40.878124 78.666664Q41.05 78.916664 41.346874 78.916664Q41.659374 78.916664 41.83125 78.666664Q42.05 78.33854 42.05 77.354164Q42.05 76.385414 41.83125 76.05729Q41.659374 75.791664 41.346874 75.791664Q41.05 75.791664 40.878124 76.041664Q40.659374 76.385414 40.659374 77.354164ZM42.815624 85.30729L41.39375 85.30729L46.7375 74.729164L48.1125 74.729164L42.815624 85.30729ZM45.925 82.666664Q45.925 81.322914 46.503124 80.68229Q47.096874 80.02604 48.128124 80.02604Q49.159374 80.02604 49.753124 80.68229Q50.346874 81.322914 50.346874 82.666664Q50.346874 84.02604 49.753124 84.68229Q49.159374 85.322914 48.14375 85.322914Q47.096874 85.322914 46.503124 84.68229Q45.925 84.02604 45.925 82.666664ZM47.409374 82.666664Q47.409374 83.635414 47.64375 83.96354Q47.815624 84.21354 48.1125 84.21354Q48.425 84.21354 48.58125 83.979164Q48.815624 83.635414 48.815624 82.666664Q48.815624 81.68229 48.596874 81.354164Q48.425 81.104164 48.1125 81.104164Q47.8 81.104164 47.64375 81.354164Q47.409374 81.68229 47.409374 82.666664Z" fill-rule="nonzero"/><path stroke="#757575" stroke-width="1.0" stroke-linecap="butt" d="M18.55 70.416664L143.73334 70.416664L273.2507 61.958553" fill-rule="nonzero"/><path fill="#9e9e9e" d="M275.2507 61.958553C275.2507 60.853985 274.35526 59.958553 273.2507 59.958553C272.14612 59.958553 271.2507 60.853985 271.2507 61.958553C271.2507 63.06312 272.14612 63.958553 273.2507 63.958553C274.35526 63.958553 275.2507 63.06312 275.2507 61.958553" fill-rule="nonzero"/><path fill="#1a1a1a" d="M21.83125 101.916664L21.83125 93.58854L18.846874 93.58854L18.846874 91.90104L26.815624 91.90104L26.815624 93.58854L23.846874 93.58854L23.846874 101.916664L21.83125 101.916664ZM31.753124 99.604164L33.675 99.93229Q33.3 100.979164 32.503124 101.541664Q31.70625 102.08854 30.51875 102.08854Q28.628124 102.08854 27.70625 100.83854Q26.9875 99.854164 26.9875 98.33854Q26.9875 96.541664 27.925 95.52604Q28.878124 94.49479 30.33125 94.49479Q31.940624 94.49479 32.878124 95.572914Q33.815624 96.635414 33.76875 98.83854L28.95625 98.83854Q28.9875 99.697914 29.425 100.18229Q29.878124 100.65104 30.534374 100.65104Q30.9875 100.65104 31.284374 100.40104Q31.596874 100.15104 31.753124 99.604164ZM31.8625 97.666664Q31.846874 96.822914 31.440624 96.40104Q31.034374 95.96354 30.440624 95.96354Q29.815624 95.96354 29.39375 96.416664Q28.9875 96.885414 29.003124 97.666664L31.8625 97.666664ZM37.9875 96.86979L36.253124 96.55729Q36.534374 95.510414 37.253124 95.010414Q37.971874 94.49479 39.39375 94.49479Q40.675 94.49479 41.3 94.80729Q41.940624 95.104164 42.190624 95.572914Q42.440624 96.041664 42.440624 97.291664L42.425 99.52604Q42.425 100.49479 42.51875 100.947914Q42.6125 101.40104 42.8625 101.916664L40.971874 101.916664Q40.89375 101.729164 40.784374 101.354164Q40.7375 101.18229 40.70625 101.11979Q40.221874 101.604164 39.659374 101.854164Q39.096874 102.08854 38.45625 102.08854Q37.346874 102.08854 36.690624 101.479164Q36.05 100.86979 36.05 99.93229Q36.05 99.322914 36.346874 98.83854Q36.64375 98.354164 37.159374 98.104164Q37.690624 97.83854 38.690624 97.65104Q40.034374 97.40104 40.565624 97.18229L40.565624 96.99479Q40.565624 96.43229 40.284374 96.197914Q40.01875 95.96354 39.253124 95.96354Q38.7375 95.96354 38.45625 96.166664Q38.175 96.36979 37.9875 96.86979ZM40.565624 98.43229Q40.190624 98.55729 39.39375 98.729164Q38.596874 98.90104 38.346874 99.05729Q37.971874 99.322914 37.971874 99.729164Q37.971874 100.135414 38.26875 100.43229Q38.565624 100.729164 39.034374 100.729164Q39.55 100.729164 40.034374 100.385414Q40.378124 100.11979 40.4875 99.74479Q40.565624 99.510414 40.565624 98.80729L40.565624 98.43229ZM44.409374 94.65104L46.175 94.65104L46.175 95.65104Q47.128124 94.49479 48.440624 94.49479Q49.14375 94.49479 49.659374 94.791664Q50.175 95.072914 50.503124 95.65104Q50.971874 95.072914 51.51875 94.791664Q52.08125 94.49479 52.70625 94.49479Q53.503124 94.49479 54.05 94.822914Q54.6125 95.135414 54.89375 95.77604Q55.096874 96.229164 55.096874 97.27604L55.096874 101.916664L53.175 101.916664L53.175 97.760414Q53.175 96.68229 52.971874 96.36979Q52.70625 95.96354 52.14375 95.96354Q51.753124 95.96354 51.39375 96.21354Q51.034374 96.447914 50.878124 96.93229Q50.721874 97.40104 50.721874 98.43229L50.721874 101.916664L48.8 101.916664L48.8 97.93229Q48.8 96.885414 48.690624 96.572914Q48.596874 96.260414 48.378124 96.11979Q48.159374 95.96354 47.8 95.96354Q47.346874 95.96354 46.9875 96.21354Q46.64375 96.447914 46.4875 96.90104Q46.33125 97.33854 46.33125 98.385414L46.33125 101.916664L44.409374 101.916664L44.409374 94.65104Z" fill-rule="nonzero"/><path fill="#9e9e9e" d="M24.065624 121.916664L22.14375 121.916664L22.14375 114.68229Q21.08125 115.666664 19.659374 116.135414L19.659374 114.385414Q20.409374 114.15104 21.284374 113.46354Q22.175 112.77604 22.503124 111.854164L24.065624 111.854164L24.065624 121.916664ZM30.39375 111.854164Q31.846874 111.854164 32.675 112.885414Q33.64375 114.11979 33.64375 116.979164Q33.64375 119.822914 32.659374 121.05729Q31.846874 122.08854 30.39375 122.08854Q28.925 122.08854 28.034374 120.96354Q27.14375 119.83854 27.14375 116.947914Q27.14375 114.11979 28.128124 112.885414Q28.940624 111.854164 30.39375 111.854164ZM30.39375 113.447914Q30.05 113.447914 29.76875 113.666664Q29.503124 113.885414 29.346874 114.46354Q29.14375 115.21354 29.14375 116.979164Q29.14375 118.74479 29.315624 119.40104Q29.503124 120.05729 29.76875 120.27604Q30.05 120.49479 30.39375 120.49479Q30.7375 120.49479 31.003124 120.27604Q31.284374 120.05729 31.440624 119.479164Q31.64375 118.74479 31.64375 116.979164Q31.64375 115.21354 31.45625 114.55729Q31.284374 113.885414 31.003124 113.666664Q30.7375 113.447914 30.39375 113.447914ZM35.55 121.916664L35.55 119.99479L37.471874 119.99479L37.471874 121.916664L35.55 121.916664ZM42.39375 111.854164Q43.846874 111.854164 44.675 112.885414Q45.64375 114.11979 45.64375 116.979164Q45.64375 119.822914 44.659374 121.05729Q43.846874 122.08854 42.39375 122.08854Q40.925 122.08854 40.034374 120.96354Q39.14375 119.83854 39.14375 116.947914Q39.14375 114.11979 40.128124 112.885414Q40.940624 111.854164 42.39375 111.854164ZM42.39375 113.447914Q42.05 113.447914 41.76875 113.666664Q41.503124 113.885414 41.346874 114.46354Q41.14375 115.21354 41.14375 116.979164Q41.14375 118.74479 41.315624 119.40104Q41.503124 120.05729 41.76875 120.27604Q42.05 120.49479 42.39375 120.49479Q42.7375 120.49479 43.003124 120.27604Q43.284374 120.05729 43.440624 119.479164Q43.64375 118.74479 43.64375 116.979164Q43.64375 115.21354 43.45625 114.55729Q43.284374 113.885414 43.003124 113.666664Q42.7375 113.447914 42.39375 113.447914ZM47.159374 114.36979Q47.159374 113.02604 47.753124 112.385414Q48.346874 111.729164 49.346874 111.729164Q50.39375 111.729164 50.9875 112.36979Q51.58125 113.010414 51.58125 114.36979Q51.58125 115.71354 50.9875 116.36979Q50.39375 117.010414 49.39375 117.010414Q48.346874 117.010414 47.753124 116.36979Q47.159374 115.729164 47.159374 114.36979ZM48.659374 114.354164Q48.659374 115.33854 48.878124 115.666664Q49.05 115.916664 49.346874 115.916664Q49.659374 115.916664 49.83125 115.666664Q50.05 115.33854 50.05 114.354164Q50.05 113.385414 49.83125 113.05729Q49.659374 112.791664 49.346874 112.791664Q49.05 112.791664 48.878124 113.041664Q48.659374 113.385414 48.659374 114.354164ZM50.815624 122.30729L49.39375 122.30729L54.7375 111.729164L56.1125 111.729164L50.815624 122.30729ZM53.925 119.666664Q53.925 118.322914 54.503124 117.68229Q55.096874 117.02604 56.128124 117.02604Q57.159374 117.02604 57.753124 117.68229Q58.346874 118.322914 58.346874 119.666664Q58.346874 121.02604 57.753124 121.68229Q57.159374 122.322914 56.14375 122.322914Q55.096874 122.322914 54.503124 121.68229Q53.925 121.02604 53.925 119.666664ZM55.409374 119.666664Q55.409374 120.635414 55.64375 120.96354Q55.815624 121.21354 56.1125 121.21354Q56.425 121.21354 56.58125 120.979164Q56.815624 120.635414 56.815624 119.666664Q56.815624 118.68229 56.596874 118.354164Q56.425 118.104164 56.1125 118.104164Q55.8 118.104164 55.64375 118.354164Q55.409374 118.68229 55.409374 119.666664Z" fill-rule="nonzero"/><path stroke="#757575" stroke-width="1.0" stroke-linecap="butt" d="M18.55 107.416664L143.73334 107.416664L209.0056 92.19" fill-rule="nonzero"/><path fill="#9e9e9e" d="M211.0056 92.19C211.0056 91.08543 210.11017 90.19 209.0056 90.19C207.90103 90.19 207.0056 91.08543 207.0056 92.19C207.0056 93.29457 207.90103 94.19 209.0056 94.19C210.11017 94.19 211.0056 93.29457 211.0056 92.19" fill-rule="nonzero"/><path fill="#1a1a1a" d="M19.628124 161.18202L19.628124 151.24452L21.64375 151.24452L21.64375 159.49452L26.675 159.49452L26.675 161.18202L19.628124 161.18202ZM27.55 152.93202L27.55 151.1664L29.471874 151.1664L29.471874 152.93202L27.55 152.93202ZM27.55 161.18202L27.55 153.9164L29.471874 153.9164L29.471874 161.18202L27.55 161.18202ZM36.3 163.94765L36.3 160.2914Q35.925 160.77577 35.3625 161.07265Q34.8 161.3539 34.159374 161.3539Q32.909374 161.3539 32.1125 160.4164Q31.175 159.32265 31.175 157.46327Q31.175 155.71327 32.05 154.74452Q32.940624 153.76015 34.253124 153.76015Q34.9875 153.76015 35.503124 154.07265Q36.034374 154.36952 36.45625 154.99452L36.45625 153.9164L38.221874 153.9164L38.221874 163.94765L36.3 163.94765ZM36.3625 157.46327Q36.3625 156.3539 35.909374 155.80702Q35.45625 155.26015 34.76875 155.26015Q34.065624 155.26015 33.596874 155.82265Q33.128124 156.36952 33.128124 157.57265Q33.128124 158.77577 33.58125 159.30702Q34.034374 159.82265 34.70625 159.82265Q35.3625 159.82265 35.8625 159.2289Q36.3625 158.63515 36.3625 157.46327ZM45.33125 161.18202L45.33125 160.08827Q44.940624 160.68202 44.284374 161.02577Q43.64375 161.3539 42.925 161.3539Q42.190624 161.3539 41.6125 161.02577Q41.034374 160.69765 40.76875 160.11952Q40.51875 159.5414 40.51875 158.51015L40.51875 153.9164L42.440624 153.9164L42.440624 157.26015Q42.440624 158.7914 42.534374 159.13515Q42.64375 159.4789 42.925 159.68202Q43.20625 159.88515 43.64375 159.88515Q44.128124 159.88515 44.51875 159.61952Q44.909374 159.33827 45.05 158.94765Q45.190624 158.5414 45.190624 156.9789L45.190624 153.9164L47.1125 153.9164L47.1125 161.18202L45.33125 161.18202ZM49.55 152.93202L49.55 151.1664L51.471874 151.1664L51.471874 152.93202L49.55 152.93202ZM49.55 161.18202L49.55 153.9164L51.471874 153.9164L51.471874 161.18202L49.55 161.18202ZM60.20625 161.18202L58.425 161.18202L58.425 160.11952Q57.9875 160.74452 57.378124 161.05702Q56.76875 161.3539 56.159374 161.3539Q54.909374 161.3539 54.01875 160.33827Q53.128124 159.32265 53.128124 157.52577Q53.128124 155.68202 53.9875 154.7289Q54.8625 153.76015 56.190624 153.76015Q57.409374 153.76015 58.3 154.77577L58.3 151.1664L60.20625 151.1664L60.20625 161.18202ZM55.08125 157.40077Q55.08125 158.55702 55.409374 159.07265Q55.878124 159.82265 56.70625 159.82265Q57.3625 159.82265 57.83125 159.26015Q58.3 158.69765 58.3 157.57265Q58.3 156.32265 57.846874 155.77577Q57.39375 155.2289 56.690624 155.2289Q56.003124 155.2289 55.534374 155.77577Q55.08125 156.30702 55.08125 157.40077ZM62.55 152.93202L62.55 151.1664L64.47188 151.1664L64.47188 152.93202L62.55 152.93202ZM62.55 161.18202L62.55 153.9164L64.47188 153.9164L64.47188 161.18202L62.55 161.18202ZM69.87813 153.9164L69.87813 155.44765L68.56563 155.44765L68.56563 158.38515Q68.56563 159.26015 68.59688 159.4164Q68.64375 159.55702 68.76875 159.6664Q68.90938 159.76015 69.1125 159.76015Q69.37813 159.76015 69.87813 159.57265L70.03438 161.05702Q69.37813 161.3539 68.51875 161.3539Q68.00313 161.3539 67.58125 161.18202Q67.175 160.99452 66.97188 160.7289Q66.78438 160.44765 66.70625 159.9789Q66.64375 159.63515 66.64375 158.61952L66.64375 155.44765L65.76875 155.44765L65.76875 153.9164L66.64375 153.9164L66.64375 152.4789L68.56563 151.3539L68.56563 153.9164L69.87813 153.9164ZM70.64375 153.9164L72.69063 153.9164L74.425 159.07265L76.12813 153.9164L78.1125 153.9164L75.55 160.90077L75.09688 162.1664Q74.83125 162.80702 74.59688 163.13515Q74.37813 163.4789 74.08125 163.68202Q73.78438 163.90077 73.34688 164.01015Q72.90938 164.13515 72.3625 164.13515Q71.81563 164.13515 71.28438 164.01015L71.1125 162.51015Q71.56563 162.6039 71.925 162.6039Q72.59688 162.6039 72.90938 162.19765Q73.2375 161.80702 73.40938 161.19765L70.64375 153.9164Z" fill-rule="nonzero"/><path fill="#9e9e9e" d="M24.065624 181.18202L22.14375 181.18202L22.14375 173.94765Q21.08125 174.93202 19.659374 175.40077L19.659374 173.65077Q20.409374 173.4164 21.284374 172.7289Q22.175 172.0414 22.503124 171.11952L24.065624 171.11952L24.065624 181.18202ZM30.39375 171.11952Q31.846874 171.11952 32.675 172.15077Q33.64375 173.38515 33.64375 176.24452Q33.64375 179.08827 32.659374 180.32265Q31.846874 181.3539 30.39375 181.3539Q28.925 181.3539 28.034374 180.2289Q27.14375 179.1039 27.14375 176.21327Q27.14375 173.38515 28.128124 172.15077Q28.940624 171.11952 30.39375 171.11952ZM30.39375 172.71327Q30.05 172.71327 29.76875 172.93202Q29.503124 173.15077 29.346874 173.7289Q29.14375 174.4789 29.14375 176.24452Q29.14375 178.01015 29.315624 178.6664Q29.503124 179.32265 29.76875 179.5414Q30.05 179.76015 30.39375 179.76015Q30.7375 179.76015 31.003124 179.5414Q31.284374 179.32265 31.440624 178.74452Q31.64375 178.01015 31.64375 176.24452Q31.64375 174.4789 31.45625 173.82265Q31.284374 173.15077 31.003124 172.93202Q30.7375 172.71327 30.39375 172.71327ZM35.55 181.18202L35.55 179.26015L37.471874 179.26015L37.471874 181.18202L35.55 181.18202ZM42.39375 171.11952Q43.846874 171.11952 44.675 172.15077Q45.64375 173.38515 45.64375 176.24452Q45.64375 179.08827 44.659374 180.32265Q43.846874 181.3539 42.39375 181.3539Q40.925 181.3539 40.034374 180.2289Q39.14375 179.1039 39.14375 176.21327Q39.14375 173.38515 40.128124 172.15077Q40.940624 171.11952 42.39375 171.11952ZM42.39375 172.71327Q42.05 172.71327 41.76875 172.93202Q41.503124 173.15077 41.346874 173.7289Q41.14375 174.4789 41.14375 176.24452Q41.14375 178.01015 41.315624 178.6664Q41.503124 179.32265 41.76875 179.5414Q42.05 179.76015 42.39375 179.76015Q42.7375 179.76015 43.003124 179.5414Q43.284374 179.32265 43.440624 178.74452Q43.64375 178.01015 43.64375 176.24452Q43.64375 174.4789 43.45625 173.82265Q43.284374 173.15077 43.003124 172.93202Q42.7375 172.71327 42.39375 172.71327ZM47.159374 173.63515Q47.159374 172.2914 47.753124 171.65077Q48.346874 170.99452 49.346874 170.99452Q50.39375 170.99452 50.9875 171.63515Q51.58125 172.27577 51.58125 173.63515Q51.58125 174.9789 50.9875 175.63515Q50.39375 176.27577 49.39375 176.27577Q48.346874 176.27577 47.753124 175.63515Q47.159374 174.99452 47.159374 173.63515ZM48.659374 173.61952Q48.659374 174.6039 48.878124 174.93202Q49.05 175.18202 49.346874 175.18202Q49.659374 175.18202 49.83125 174.93202Q50.05 174.6039 50.05 173.61952Q50.05 172.65077 49.83125 172.32265Q49.659374 172.05702 49.346874 172.05702Q49.05 172.05702 48.878124 172.30702Q48.659374 172.65077 48.659374 173.61952ZM50.815624 181.57265L49.39375 181.57265L54.7375 170.99452L56.1125 170.99452L50.815624 181.57265ZM53.925 178.93202Q53.925 177.58827 54.503124 176.94765Q55.096874 176.2914 56.128124 176.2914Q57.159374 176.2914 57.753124 176.94765Q58.346874 177.58827 58.346874 178.93202Q58.346874 180.2914 57.753124 180.94765Q57.159374 181.58827 56.14375 181.58827Q55.096874 181.58827 54.503124 180.94765Q53.925 180.2914 53.925 178.93202ZM55.409374 178.93202Q55.409374 179.90077 55.64375 180.2289Q55.815624 180.4789 56.1125 180.4789Q56.425 180.4789 56.58125 180.24452Q56.815624 179.90077 56.815624 178.93202Q56.815624 177.94765 56.596874 177.61952Q56.425 177.36952 56.1125 177.36952Q55.8 177.36952 55.64375 177.61952Q55.409374 177.94765 55.409374 178.93202Z" fill-rule="nonzero"/><path stroke="#757575" stroke-width="1.0" stroke-linecap="butt" d="M18.55 166.68202L143.73334 166.68202L161.73152 166.68202" fill-rule="nonzero"/><path fill="#9e9e9e" d="M163.73152 166.68202C163.73152 165.57745 162.83609 164.68202 161.73152 164.68202C160.62695 164.68202 159.73152 165.57745 159.73152 166.68202C159.73152 167.78659 160.62695 168.68202 161.73152 168.68202C162.83609 168.68202 163.73152 167.78659 163.73152 166.68202" fill-rule="nonzero"/><path fill="#1a1a1a" d="M19.159374 264.39755Q19.159374 262.8663 19.6125 261.83505Q19.95625 261.06943 20.55 260.46005Q21.14375 259.85068 21.846874 259.5538Q22.784374 259.16318 24.003124 259.16318Q26.221874 259.16318 27.55 260.53818Q28.878124 261.91318 28.878124 264.35068Q28.878124 266.77255 27.55 268.14755Q26.2375 269.52255 24.034374 269.52255Q21.8 269.52255 20.471874 268.16318Q19.159374 266.78818 19.159374 264.39755ZM21.2375 264.33505Q21.2375 266.03818 22.01875 266.91318Q22.815624 267.78818 24.01875 267.78818Q25.2375 267.78818 26.003124 266.9288Q26.784374 266.0538 26.784374 264.3038Q26.784374 262.58505 26.034374 261.7413Q25.284374 260.88193 24.01875 260.88193Q22.76875 260.88193 22.003124 261.7413Q21.2375 262.60068 21.2375 264.33505ZM30.503124 262.08505L32.284374 262.08505L32.284374 263.16318Q32.64375 262.6163 33.2375 262.27255Q33.83125 261.9288 34.55 261.9288Q35.815624 261.9288 36.690624 262.9288Q37.58125 263.91318 37.58125 265.6788Q37.58125 267.4913 36.690624 268.50693Q35.8 269.52255 34.534374 269.52255Q33.940624 269.52255 33.440624 269.28818Q32.95625 269.03818 32.425 268.46005L32.425 272.1163L30.503124 272.1163L30.503124 262.08505ZM32.39375 265.60068Q32.39375 266.81943 32.878124 267.41318Q33.378124 267.9913 34.065624 267.9913Q34.7375 267.9913 35.175 267.46005Q35.628124 266.91318 35.628124 265.69443Q35.628124 264.5538 35.159374 264.00693Q34.70625 263.44443 34.034374 263.44443Q33.33125 263.44443 32.8625 263.9913Q32.39375 264.53818 32.39375 265.60068ZM43.753124 267.03818L45.675 267.3663Q45.3 268.41318 44.503124 268.97568Q43.70625 269.52255 42.51875 269.52255Q40.628124 269.52255 39.70625 268.27255Q38.9875 267.28818 38.9875 265.77255Q38.9875 263.97568 39.925 262.96005Q40.878124 261.9288 42.33125 261.9288Q43.940624 261.9288 44.878124 263.00693Q45.815624 264.06943 45.76875 266.27255L40.95625 266.27255Q40.9875 267.13193 41.425 267.6163Q41.878124 268.08505 42.534374 268.08505Q42.9875 268.08505 43.284374 267.83505Q43.596874 267.58505 43.753124 267.03818ZM43.8625 265.10068Q43.846874 264.25693 43.440624 263.83505Q43.034374 263.39755 42.440624 263.39755Q41.815624 263.39755 41.39375 263.85068Q40.9875 264.31943 41.003124 265.10068L43.8625 265.10068ZM50.39375 269.35068L48.471874 269.35068L48.471874 262.08505L50.253124 262.08505L50.253124 263.1163Q50.721874 262.39755 51.08125 262.16318Q51.440624 261.9288 51.909374 261.9288Q52.565624 261.9288 53.175 262.28818L52.58125 263.96005Q52.096874 263.64755 51.675 263.64755Q51.26875 263.64755 50.9875 263.88193Q50.721874 264.10068 50.55 264.6788Q50.39375 265.25693 50.39375 267.10068L50.39375 269.35068ZM55.9875 264.3038L54.253124 263.9913Q54.534374 262.94443 55.253124 262.44443Q55.971874 261.9288 57.39375 261.9288Q58.675 261.9288 59.3 262.2413Q59.940624 262.53818 60.190624 263.00693Q60.440624 263.47568 60.440624 264.72568L60.425 266.96005Q60.425 267.9288 60.51875 268.38193Q60.6125 268.83505 60.8625 269.35068L58.971874 269.35068Q58.89375 269.16318 58.784374 268.78818Q58.7375 268.6163 58.70625 268.5538Q58.221874 269.03818 57.659374 269.28818Q57.096874 269.52255 56.45625 269.52255Q55.346874 269.52255 54.690624 268.91318Q54.05 268.3038 54.05 267.3663Q54.05 266.75693 54.346874 266.27255Q54.64375 265.78818 55.159374 265.53818Q55.690624 265.27255 56.690624 265.08505Q58.034374 264.83505 58.565624 264.6163L58.565624 264.4288Q58.565624 263.8663 58.284374 263.63193Q58.01875 263.39755 57.253124 263.39755Q56.7375 263.39755 56.45625 263.60068Q56.175 263.8038 55.9875 264.3038ZM58.565624 265.8663Q58.190624 265.9913 57.39375 266.16318Q56.596874 266.33505 56.346874 266.4913Q55.971874 266.75693 55.971874 267.16318Q55.971874 267.56943 56.26875 267.8663Q56.565624 268.16318 57.034374 268.16318Q57.55 268.16318 58.034374 267.81943Q58.378124 267.5538 58.4875 267.1788Q58.565624 266.94443 58.565624 266.2413L58.565624 265.8663ZM65.87813 262.08505L65.87813 263.6163L64.56563 263.6163L64.56563 266.5538Q64.56563 267.4288 64.59688 267.58505Q64.64375 267.72568 64.76875 267.83505Q64.90938 267.9288 65.1125 267.9288Q65.37813 267.9288 65.87813 267.7413L66.03438 269.22568Q65.37813 269.52255 64.51875 269.52255Q64.00313 269.52255 63.58125 269.35068Q63.175 269.16318 62.971874 268.89755Q62.784374 268.6163 62.70625 268.14755Q62.64375 267.8038 62.64375 266.78818L62.64375 263.6163L61.76875 263.6163L61.76875 262.08505L62.64375 262.08505L62.64375 260.64755L64.56563 259.52255L64.56563 262.08505L65.87813 262.08505ZM67.55 261.10068L67.55 259.33505L69.47188 259.33505L69.47188 261.10068L67.55 261.10068ZM67.55 269.35068L67.55 262.08505L69.47188 262.08505L69.47188 269.35068L67.55 269.35068ZM71.1125 265.6163Q71.1125 264.66318 71.58125 263.77255Q72.05 262.8663 72.90938 262.39755Q73.78438 261.9288 74.84688 261.9288Q76.50313 261.9288 77.55 263.00693Q78.59688 264.06943 78.59688 265.69443Q78.59688 267.35068 77.53438 268.44443Q76.47188 269.52255 74.8625 269.52255Q73.8625 269.52255 72.95625 269.06943Q72.05 268.6163 71.58125 267.7413Q71.1125 266.8663 71.1125 265.6163ZM73.08125 265.72568Q73.08125 266.8038 73.59688 267.38193Q74.1125 267.94443 74.8625 267.94443Q75.6125 267.94443 76.1125 267.38193Q76.62813 266.8038 76.62813 265.71005Q76.62813 264.64755 76.1125 264.06943Q75.6125 263.4913 74.8625 263.4913Q74.1125 263.4913 73.59688 264.06943Q73.08125 264.64755 73.08125 265.72568ZM87.15938 269.35068L85.2375 269.35068L85.2375 265.64755Q85.2375 264.47568 85.1125 264.13193Q84.9875 263.77255 84.70625 263.58505Q84.44063 263.39755 84.05 263.39755Q83.55 263.39755 83.14375 263.6788Q82.75313 263.94443 82.59688 264.39755Q82.45625 264.85068 82.45625 266.06943L82.45625 269.35068L80.53438 269.35068L80.53438 262.08505L82.33125 262.08505L82.33125 263.16318Q83.26875 261.9288 84.72188 261.9288Q85.34688 261.9288 85.87813 262.16318Q86.40938 262.38193 86.675 262.7413Q86.94063 263.10068 87.05 263.5538Q87.15938 263.9913 87.15938 264.83505L87.15938 269.35068Z" fill-rule="nonzero"/><path fill="#9e9e9e" d="M24.065624 289.35068L22.14375 289.35068L22.14375 282.1163Q21.08125 283.10068 19.659374 283.56943L19.659374 281.81943Q20.409374 281.58505 21.284374 280.89755Q22.175 280.21005 22.503124 279.28818L24.065624 279.28818L24.065624 289.35068ZM27.175 286.77255L29.08125 286.56943Q29.175 287.22568 29.565624 287.60068Q29.971874 287.97568 30.503124 287.97568Q31.096874 287.97568 31.51875 287.4913Q31.940624 287.00693 31.940624 286.02255Q31.940624 285.10068 31.51875 284.64755Q31.1125 284.1788 30.440624 284.1788Q29.6125 284.1788 28.95625 284.91318L27.409374 284.6788L28.39375 279.46005L33.471874 279.46005L33.471874 281.25693L29.846874 281.25693L29.55 282.96005Q30.190624 282.64755 30.8625 282.64755Q32.128124 282.64755 33.01875 283.58505Q33.909374 284.50693 33.909374 285.9913Q33.909374 287.22568 33.190624 288.19443Q32.221874 289.52255 30.4875 289.52255Q29.096874 289.52255 28.221874 288.78818Q27.346874 288.03818 27.175 286.77255ZM35.55 289.35068L35.55 287.4288L37.471874 287.4288L37.471874 289.35068L35.55 289.35068ZM42.39375 279.28818Q43.846874 279.28818 44.675 280.31943Q45.64375 281.5538 45.64375 284.41318Q45.64375 287.25693 44.659374 288.4913Q43.846874 289.52255 42.39375 289.52255Q40.925 289.52255 40.034374 288.39755Q39.14375 287.27255 39.14375 284.38193Q39.14375 281.5538 40.128124 280.31943Q40.940624 279.28818 42.39375 279.28818ZM42.39375 280.88193Q42.05 280.88193 41.76875 281.10068Q41.503124 281.31943 41.346874 281.89755Q41.14375 282.64755 41.14375 284.41318Q41.14375 286.1788 41.315624 286.83505Q41.503124 287.4913 41.76875 287.71005Q42.05 287.9288 42.39375 287.9288Q42.7375 287.9288 43.003124 287.71005Q43.284374 287.4913 43.440624 286.91318Q43.64375 286.1788 43.64375 284.41318Q43.64375 282.64755 43.45625 281.9913Q43.284374 281.31943 43.003124 281.10068Q42.7375 280.88193 42.39375 280.88193ZM47.159374 281.8038Q47.159374 280.46005 47.753124 279.81943Q48.346874 279.16318 49.346874 279.16318Q50.39375 279.16318 50.9875 279.8038Q51.58125 280.44443 51.58125 281.8038Q51.58125 283.14755 50.9875 283.8038Q50.39375 284.44443 49.39375 284.44443Q48.346874 284.44443 47.753124 283.8038Q47.159374 283.16318 47.159374 281.8038ZM48.659374 281.78818Q48.659374 282.77255 48.878124 283.10068Q49.05 283.35068 49.346874 283.35068Q49.659374 283.35068 49.83125 283.10068Q50.05 282.77255 50.05 281.78818Q50.05 280.81943 49.83125 280.4913Q49.659374 280.22568 49.346874 280.22568Q49.05 280.22568 48.878124 280.47568Q48.659374 280.81943 48.659374 281.78818ZM50.815624 289.7413L49.39375 289.7413L54.7375 279.16318L56.1125 279.16318L50.815624 289.7413ZM53.925 287.10068Q53.925 285.75693 54.503124 285.1163Q55.096874 284.46005 56.128124 284.46005Q57.159374 284.46005 57.753124 285.1163Q58.346874 285.75693 58.346874 287.10068Q58.346874 288.46005 57.753124 289.1163Q57.159374 289.75693 56.14375 289.75693Q55.096874 289.75693 54.503124 289.1163Q53.925 288.46005 53.925 287.10068ZM55.409374 287.10068Q55.409374 288.06943 55.64375 288.39755Q55.815624 288.64755 56.1125 288.64755Q56.425 288.64755 56.58125 288.41318Q56.815624 288.06943 56.815624 287.10068Q56.815624 286.1163 56.596874 285.78818Q56.425 285.53818 56.1125 285.53818Q55.8 285.53818 55.64375 285.78818Q55.409374 286.1163 55.409374 287.10068Z" fill-rule="nonzero"/><path stroke="#757575" stroke-width="1.0" stroke-linecap="butt" d="M18.55 274.85068L143.73334 274.85068L177.1262 274.85068" fill-rule="nonzero"/><path fill="#9e9e9e" d="M179.1262 274.85068C179.1262 273.74612 178.23077 272.85068 177.1262 272.85068C176.02164 272.85068 175.1262 273.74612 175.1262 274.85068C175.1262 275.95526 176.02164 276.85068 177.1262 276.85068C178.23077 276.85068 179.1262 275.95526 179.1262 274.85068" fill-rule="nonzero"/><path fill="#1a1a1a" d="M19.534374 328.45L19.534374 318.4344L22.565624 318.4344L24.39375 325.2625L26.190624 318.4344L29.221874 318.4344L29.221874 328.45L27.346874 328.45L27.346874 320.5594L25.346874 328.45L23.409374 328.45L21.425 320.5594L21.425 328.45L19.534374 328.45ZM33.9875 323.40314L32.253124 323.09064Q32.534374 322.04376 33.253124 321.54376Q33.971874 321.02814 35.39375 321.02814Q36.675 321.02814 37.3 321.34064Q37.940624 321.6375 38.190624 322.10626Q38.440624 322.575 38.440624 323.825L38.425 326.0594Q38.425 327.02814 38.51875 327.48126Q38.6125 327.9344 38.8625 328.45L36.971874 328.45Q36.89375 328.2625 36.784374 327.8875Q36.7375 327.71564 36.70625 327.65314Q36.221874 328.1375 35.659374 328.3875Q35.096874 328.6219 34.45625 328.6219Q33.346874 328.6219 32.690624 328.0125Q32.05 327.40314 32.05 326.46564Q32.05 325.85626 32.346874 325.3719Q32.64375 324.8875 33.159374 324.6375Q33.690624 324.3719 34.690624 324.1844Q36.034374 323.9344 36.565624 323.71564L36.565624 323.52814Q36.565624 322.96564 36.284374 322.73126Q36.01875 322.4969 35.253124 322.4969Q34.7375 322.4969 34.45625 322.7Q34.175 322.90314 33.9875 323.40314ZM36.565624 324.96564Q36.190624 325.09064 35.39375 325.2625Q34.596874 325.4344 34.346874 325.59064Q33.971874 325.85626 33.971874 326.2625Q33.971874 326.66876 34.26875 326.96564Q34.565624 327.2625 35.034374 327.2625Q35.55 327.2625 36.034374 326.91876Q36.378124 326.65314 36.4875 326.27814Q36.565624 326.04376 36.565624 325.34064L36.565624 324.96564ZM42.39375 328.45L40.471874 328.45L40.471874 321.1844L42.253124 321.1844L42.253124 322.21564Q42.721874 321.4969 43.08125 321.2625Q43.440624 321.02814 43.909374 321.02814Q44.565624 321.02814 45.175 321.3875L44.58125 323.0594Q44.096874 322.7469 43.675 322.7469Q43.26875 322.7469 42.9875 322.98126Q42.721874 323.2 42.55 323.77814Q42.39375 324.35626 42.39375 326.2L42.39375 328.45ZM46.4875 328.45L46.4875 318.4344L48.409374 318.4344L48.409374 323.7469L50.659374 321.1844L53.01875 321.1844L50.534374 323.84064L53.20625 328.45L51.128124 328.45L49.3 325.1844L48.409374 326.1219L48.409374 328.45L46.4875 328.45ZM58.753124 326.1375L60.675 326.46564Q60.3 327.5125 59.503124 328.075Q58.70625 328.6219 57.51875 328.6219Q55.628124 328.6219 54.70625 327.3719Q53.9875 326.3875 53.9875 324.8719Q53.9875 323.075 54.925 322.0594Q55.878124 321.02814 57.33125 321.02814Q58.940624 321.02814 59.878124 322.10626Q60.815624 323.16876 60.76875 325.3719L55.95625 325.3719Q55.9875 326.23126 56.425 326.71564Q56.878124 327.1844 57.534374 327.1844Q57.9875 327.1844 58.284374 326.9344Q58.596874 326.6844 58.753124 326.1375ZM58.8625 324.2Q58.846874 323.35626 58.440624 322.9344Q58.034374 322.4969 57.440624 322.4969Q56.815624 322.4969 56.39375 322.95Q55.9875 323.41876 56.003124 324.2L58.8625 324.2ZM66.87813 321.1844L66.87813 322.71564L65.56563 322.71564L65.56563 325.65314Q65.56563 326.52814 65.59688 326.6844Q65.64375 326.825 65.76875 326.9344Q65.90938 327.02814 66.1125 327.02814Q66.37813 327.02814 66.87813 326.84064L67.03438 328.325Q66.37813 328.6219 65.51875 328.6219Q65.00313 328.6219 64.58125 328.45Q64.175 328.2625 63.971874 327.9969Q63.784374 327.71564 63.70625 327.2469Q63.64375 326.90314 63.64375 325.8875L63.64375 322.71564L62.76875 322.71564L62.76875 321.1844L63.64375 321.1844L63.64375 319.7469L65.56563 318.6219L65.56563 321.1844L66.87813 321.1844ZM68.55 320.2L68.55 318.4344L70.47188 318.4344L70.47188 320.2L68.55 320.2ZM68.55 328.45L68.55 321.1844L70.47188 321.1844L70.47188 328.45L68.55 328.45ZM79.15938 328.45L77.2375 328.45L77.2375 324.7469Q77.2375 323.575 77.1125 323.23126Q76.9875 322.8719 76.70625 322.6844Q76.44063 322.4969 76.05 322.4969Q75.55 322.4969 75.14375 322.77814Q74.75313 323.04376 74.59688 323.4969Q74.45625 323.95 74.45625 325.16876L74.45625 328.45L72.53438 328.45L72.53438 321.1844L74.33125 321.1844L74.33125 322.2625Q75.26875 321.02814 76.72188 321.02814Q77.34688 321.02814 77.87813 321.2625Q78.40938 321.48126 78.675 321.84064Q78.94063 322.2 79.05 322.65314Q79.15938 323.09064 79.15938 323.9344L79.15938 328.45ZM81.37813 328.9344L83.56563 329.2Q83.62813 329.575 83.83125 329.71564Q84.09688 329.9344 84.69063 329.9344Q85.44063 329.9344 85.81563 329.7Q86.06563 329.54376 86.19063 329.21564Q86.28438 328.98126 86.28438 328.34064L86.28438 327.27814Q85.425 328.45 84.1125 328.45Q82.64375 328.45 81.8 327.21564Q81.12813 326.23126 81.12813 324.77814Q81.12813 322.95 82.00313 321.9969Q82.87813 321.02814 84.19063 321.02814Q85.53438 321.02814 86.40938 322.21564L86.40938 321.1844L88.20625 321.1844L88.20625 327.7Q88.20625 328.9969 87.9875 329.6219Q87.78438 330.2625 87.39375 330.6219Q87.01875 330.98126 86.37813 331.1844Q85.7375 331.40314 84.76875 331.40314Q82.90938 331.40314 82.14375 330.7625Q81.37813 330.1375 81.37813 329.16876Q81.37813 329.0594 81.37813 328.9344ZM83.09688 324.66876Q83.09688 325.825 83.53438 326.3719Q83.9875 326.90314 84.64375 326.90314Q85.34688 326.90314 85.83125 326.35626Q86.31563 325.79376 86.31563 324.71564Q86.31563 323.59064 85.84688 323.04376Q85.39375 322.4969 84.675 322.4969Q83.9875 322.4969 83.53438 323.04376Q83.09688 323.575 83.09688 324.66876Z" fill-rule="nonzero"/><path fill="#9e9e9e" d="M24.065624 348.45L22.14375 348.45L22.14375 341.21564Q21.08125 342.2 19.659374 342.66876L19.659374 340.91876Q20.409374 340.6844 21.284374 339.9969Q22.175 339.3094 22.503124 338.3875L24.065624 338.3875L24.065624 348.45ZM30.39375 338.3875Q31.846874 338.3875 32.675 339.41876Q33.64375 340.65314 33.64375 343.5125Q33.64375 346.35626 32.659374 347.59064Q31.846874 348.6219 30.39375 348.6219Q28.925 348.6219 28.034374 347.4969Q27.14375 346.3719 27.14375 343.48126Q27.14375 340.65314 28.128124 339.41876Q28.940624 338.3875 30.39375 338.3875ZM30.39375 339.98126Q30.05 339.98126 29.76875 340.2Q29.503124 340.41876 29.346874 340.9969Q29.14375 341.7469 29.14375 343.5125Q29.14375 345.27814 29.315624 345.9344Q29.503124 346.59064 29.76875 346.8094Q30.05 347.02814 30.39375 347.02814Q30.7375 347.02814 31.003124 346.8094Q31.284374 346.59064 31.440624 346.0125Q31.64375 345.27814 31.64375 343.5125Q31.64375 341.7469 31.45625 341.09064Q31.284374 340.41876 31.003124 340.2Q30.7375 339.98126 30.39375 339.98126ZM35.55 348.45L35.55 346.52814L37.471874 346.52814L37.471874 348.45L35.55 348.45ZM42.39375 338.3875Q43.846874 338.3875 44.675 339.41876Q45.64375 340.65314 45.64375 343.5125Q45.64375 346.35626 44.659374 347.59064Q43.846874 348.6219 42.39375 348.6219Q40.925 348.6219 40.034374 347.4969Q39.14375 346.3719 39.14375 343.48126Q39.14375 340.65314 40.128124 339.41876Q40.940624 338.3875 42.39375 338.3875ZM42.39375 339.98126Q42.05 339.98126 41.76875 340.2Q41.503124 340.41876 41.346874 340.9969Q41.14375 341.7469 41.14375 343.5125Q41.14375 345.27814 41.315624 345.9344Q41.503124 346.59064 41.76875 346.8094Q42.05 347.02814 42.39375 347.02814Q42.7375 347.02814 43.003124 346.8094Q43.284374 346.59064 43.440624 346.0125Q43.64375 345.27814 43.64375 343.5125Q43.64375 341.7469 43.45625 341.09064Q43.284374 340.41876 43.003124 340.2Q42.7375 339.98126 42.39375 339.98126ZM47.159374 340.90314Q47.159374 339.5594 47.753124 338.91876Q48.346874 338.2625 49.346874 338.2625Q50.39375 338.2625 50.9875 338.90314Q51.58125 339.54376 51.58125 340.90314Q51.58125 342.2469 50.9875 342.90314Q50.39375 343.54376 49.39375 343.54376Q48.346874 343.54376 47.753124 342.90314Q47.159374 342.2625 47.159374 340.90314ZM48.659374 340.8875Q48.659374 341.8719 48.878124 342.2Q49.05 342.45 49.346874 342.45Q49.659374 342.45 49.83125 342.2Q50.05 341.8719 50.05 340.8875Q50.05 339.91876 49.83125 339.59064Q49.659374 339.325 49.346874 339.325Q49.05 339.325 48.878124 339.575Q48.659374 339.91876 48.659374 340.8875ZM50.815624 348.84064L49.39375 348.84064L54.7375 338.2625L56.1125 338.2625L50.815624 348.84064ZM53.925 346.2Q53.925 344.85626 54.503124 344.21564Q55.096874 343.5594 56.128124 343.5594Q57.159374 343.5594 57.753124 344.21564Q58.346874 344.85626 58.346874 346.2Q58.346874 347.5594 57.753124 348.21564Q57.159374 348.85626 56.14375 348.85626Q55.096874 348.85626 54.503124 348.21564Q53.925 347.5594 53.925 346.2ZM55.409374 346.2Q55.409374 347.16876 55.64375 347.4969Q55.815624 347.7469 56.1125 347.7469Q56.425 347.7469 56.58125 347.5125Q56.815624 347.16876 56.815624 346.2Q56.815624 345.21564 56.596874 344.8875Q56.425 344.6375 56.1125 344.6375Q55.8 344.6375 55.64375 344.8875Q55.409374 345.21564 55.409374 346.2Z" fill-rule="nonzero"/><path stroke="#757575" stroke-width="1.0" stroke-linecap="butt" d="M18.55 333.95L143.73334 333.95L264.4987 340.4518" fill-rule="nonzero"/><path fill="#9e9e9e" d="M266.4987 340.4518C266.4987 339.34723 265.60327 338.4518 264.4987 338.4518C263.39413 338.4518 262.4987 339.34723 262.4987 340.4518C262.4987 341.55637 263.39413 342.4518 264.4987 342.4518C265.60327 342.4518 266.4987 341.55637 266.4987 340.4518" fill-rule="nonzero"/><path fill="#1a1a1a" d="M511.95 61.65104L513.91876 61.46354Q514.10626 62.447914 514.6375 62.916664Q515.1844 63.385414 516.10626 63.385414Q517.09064 63.385414 517.575 62.979164Q518.075 62.55729 518.075 62.010414Q518.075 61.65104 517.8719 61.40104Q517.66876 61.15104 517.1375 60.96354Q516.79376 60.83854 515.52814 60.52604Q513.90314 60.11979 513.2469 59.541664Q512.325 58.71354 512.325 57.52604Q512.325 56.760414 512.7469 56.08854Q513.1844 55.416664 513.9969 55.072914Q514.825 54.729164 515.98126 54.729164Q517.85626 54.729164 518.8094 55.55729Q519.7625 56.385414 519.825 57.760414L517.79376 57.854164Q517.66876 57.072914 517.23126 56.74479Q516.8094 56.40104 515.95 56.40104Q515.075 56.40104 514.575 56.760414Q514.2469 56.99479 514.2469 57.385414Q514.2469 57.74479 514.5594 57.99479Q514.9344 58.30729 516.40314 58.666664Q517.8875 59.010414 518.59064 59.385414Q519.3094 59.760414 519.7 60.40104Q520.10626 61.041664 520.10626 61.99479Q520.10626 62.854164 519.6219 63.61979Q519.15314 64.36979 518.27814 64.729164Q517.40314 65.08854 516.09064 65.08854Q514.1844 65.08854 513.16876 64.21354Q512.15314 63.33854 511.95 61.65104ZM525.65314 62.604164L527.575 62.93229Q527.2 63.979164 526.40314 64.541664Q525.60626 65.08854 524.41876 65.08854Q522.52814 65.08854 521.60626 63.83854Q520.8875 62.854164 520.8875 61.33854Q520.8875 59.541664 521.825 58.52604Q522.77814 57.49479 524.23126 57.49479Q525.84064 57.49479 526.77814 58.572914Q527.71564 59.635414 527.66876 61.83854L522.85626 61.83854Q522.8875 62.697914 523.325 63.18229Q523.77814 63.65104 524.4344 63.65104Q524.8875 63.65104 525.1844 63.40104Q525.4969 63.15104 525.65314 62.604164ZM525.7625 60.666664Q525.7469 59.822914 525.34064 59.40104Q524.9344 58.96354 524.34064 58.96354Q523.71564 58.96354 523.29376 59.416664Q522.8875 59.885414 522.90314 60.666664L525.7625 60.666664ZM534.65314 62.604164L536.575 62.93229Q536.2 63.979164 535.40314 64.541664Q534.60626 65.08854 533.41876 65.08854Q531.52814 65.08854 530.60626 63.83854Q529.8875 62.854164 529.8875 61.33854Q529.8875 59.541664 530.825 58.52604Q531.77814 57.49479 533.23126 57.49479Q534.84064 57.49479 535.77814 58.572914Q536.71564 59.635414 536.66876 61.83854L531.85626 61.83854Q531.8875 62.697914 532.325 63.18229Q532.77814 63.65104 533.4344 63.65104Q533.8875 63.65104 534.1844 63.40104Q534.4969 63.15104 534.65314 62.604164ZM534.7625 60.666664Q534.7469 59.822914 534.34064 59.40104Q533.9344 58.96354 533.34064 58.96354Q532.71564 58.96354 532.29376 59.416664Q531.8875 59.885414 531.90314 60.666664L534.7625 60.666664ZM546.10626 64.916664L544.325 64.916664L544.325 63.854164Q543.8875 64.479164 543.27814 64.791664Q542.66876 65.08854 542.0594 65.08854Q540.8094 65.08854 539.91876 64.072914Q539.02814 63.05729 539.02814 61.260414Q539.02814 59.416664 539.8875 58.46354Q540.7625 57.49479 542.09064 57.49479Q543.3094 57.49479 544.2 58.510414L544.2 54.90104L546.10626 54.90104L546.10626 64.916664ZM540.98126 61.135414Q540.98126 62.291664 541.3094 62.80729Q541.77814 63.55729 542.60626 63.55729Q543.2625 63.55729 543.73126 62.99479Q544.2 62.43229 544.2 61.30729Q544.2 60.05729 543.7469 59.510414Q543.29376 58.96354 542.59064 58.96354Q541.90314 58.96354 541.4344 59.510414Q540.98126 60.041664 540.98126 61.135414ZM551.95 61.65104L553.91876 61.46354Q554.10626 62.447914 554.6375 62.916664Q555.1844 63.385414 556.10626 63.385414Q557.09064 63.385414 557.575 62.979164Q558.075 62.55729 558.075 62.010414Q558.075 61.65104 557.8719 61.40104Q557.66876 61.15104 557.1375 60.96354Q556.79376 60.83854 555.52814 60.52604Q553.90314 60.11979 553.2469 59.541664Q552.325 58.71354 552.325 57.52604Q552.325 56.760414 552.7469 56.08854Q553.1844 55.416664 553.9969 55.072914Q554.825 54.729164 555.98126 54.729164Q557.85626 54.729164 558.8094 55.55729Q559.7625 56.385414 559.825 57.760414L557.79376 57.854164Q557.66876 57.072914 557.23126 56.74479Q556.8094 56.40104 555.95 56.40104Q555.075 56.40104 554.575 56.760414Q554.2469 56.99479 554.2469 57.385414Q554.2469 57.74479 554.5594 57.99479Q554.9344 58.30729 556.40314 58.666664Q557.8875 59.010414 558.59064 59.385414Q559.3094 59.760414 559.7 60.40104Q560.10626 61.041664 560.10626 61.99479Q560.10626 62.854164 559.6219 63.61979Q559.15314 64.36979 558.27814 64.729164Q557.40314 65.08854 556.09064 65.08854Q554.1844 65.08854 553.16876 64.21354Q552.15314 63.33854 551.95 61.65104ZM562.8875 59.86979L561.15314 59.55729Q561.4344 58.510414 562.15314 58.010414Q562.8719 57.49479 564.29376 57.49479Q565.575 57.49479 566.2 57.80729Q566.84064 58.104164 567.09064 58.572914Q567.34064 59.041664 567.34064 60.291664L567.325 62.52604Q567.325 63.49479 567.41876 63.947914Q567.5125 64.40104 567.7625 64.916664L565.8719 64.916664Q565.79376 64.729164 565.6844 64.354164Q565.6375 64.18229 565.60626 64.11979Q565.1219 64.604164 564.5594 64.854164Q563.9969 65.08854 563.35626 65.08854Q562.2469 65.08854 561.59064 64.479164Q560.95 63.86979 560.95 62.93229Q560.95 62.322914 561.2469 61.83854Q561.54376 61.354164 562.0594 61.104164Q562.59064 60.83854 563.59064 60.65104Q564.9344 60.40104 565.46564 60.18229L565.46564 59.99479Q565.46564 59.43229 565.1844 59.197914Q564.91876 58.96354 564.15314 58.96354Q563.6375 58.96354 563.35626 59.166664Q563.075 59.36979 562.8875 59.86979ZM565.46564 61.43229Q565.09064 61.55729 564.29376 61.729164Q563.4969 61.90104 563.2469 62.05729Q562.8719 62.322914 562.8719 62.729164Q562.8719 63.135414 563.16876 63.43229Q563.46564 63.729164 563.9344 63.729164Q564.45 63.729164 564.9344 63.385414Q565.27814 63.11979 565.3875 62.74479Q565.46564 62.510414 565.46564 61.80729L565.46564 61.43229ZM569.45 64.916664L569.45 54.90104L571.3719 54.90104L571.3719 64.916664L569.45 64.916664ZM577.65314 62.604164L579.575 62.93229Q579.2 63.979164 578.40314 64.541664Q577.60626 65.08854 576.41876 65.08854Q574.52814 65.08854 573.60626 63.83854Q572.8875 62.854164 572.8875 61.33854Q572.8875 59.541664 573.825 58.52604Q574.77814 57.49479 576.23126 57.49479Q577.84064 57.49479 578.77814 58.572914Q579.71564 59.635414 579.66876 61.83854L574.85626 61.83854Q574.8875 62.697914 575.325 63.18229Q575.77814 63.65104 576.4344 63.65104Q576.8875 63.65104 577.1844 63.40104Q577.4969 63.15104 577.65314 62.604164ZM577.7625 60.666664Q577.7469 59.822914 577.34064 59.40104Q576.9344 58.96354 576.34064 58.96354Q575.71564 58.96354 575.29376 59.416664Q574.8875 59.885414 574.90314 60.666664L577.7625 60.666664Z" fill-rule="nonzero"/><path fill="#9e9e9e" d="M548.96564 84.916664L547.04376 84.916664L547.04376 77.68229Q545.98126 78.666664 544.5594 79.135414L544.5594 77.385414Q545.3094 77.15104 546.1844 76.46354Q547.075 75.77604 547.40314 74.854164L548.96564 74.854164L548.96564 84.916664ZM558.52814 83.135414L558.52814 84.916664L551.79376 84.916664Q551.90314 83.90104 552.45 82.99479Q552.9969 82.08854 554.6219 80.58854Q555.91876 79.385414 556.21564 78.947914Q556.60626 78.354164 556.60626 77.77604Q556.60626 77.135414 556.2625 76.791664Q555.91876 76.447914 555.3094 76.447914Q554.7 76.447914 554.34064 76.80729Q553.9969 77.166664 553.9344 78.010414L552.02814 77.822914Q552.2 76.229164 553.09064 75.541664Q553.9969 74.854164 555.35626 74.854164Q556.84064 74.854164 557.6844 75.65104Q558.52814 76.447914 558.52814 77.635414Q558.52814 78.322914 558.27814 78.93229Q558.04376 79.541664 557.52814 80.21354Q557.16876 80.65104 556.2625 81.49479Q555.35626 82.322914 555.10626 82.604164Q554.8719 82.86979 554.71564 83.135414L558.52814 83.135414ZM560.45 84.916664L560.45 82.99479L562.3719 82.99479L562.3719 84.916664L560.45 84.916664ZM567.29376 74.854164Q568.7469 74.854164 569.575 75.885414Q570.54376 77.11979 570.54376 79.979164Q570.54376 82.822914 569.5594 84.05729Q568.7469 85.08854 567.29376 85.08854Q565.825 85.08854 564.9344 83.96354Q564.04376 82.83854 564.04376 79.947914Q564.04376 77.11979 565.02814 75.885414Q565.84064 74.854164 567.29376 74.854164ZM567.29376 76.447914Q566.95 76.447914 566.66876 76.666664Q566.40314 76.885414 566.2469 77.46354Q566.04376 78.21354 566.04376 79.979164Q566.04376 81.74479 566.21564 82.40104Q566.40314 83.05729 566.66876 83.27604Q566.95 83.49479 567.29376 83.49479Q567.6375 83.49479 567.90314 83.27604Q568.1844 83.05729 568.34064 82.479164Q568.54376 81.74479 568.54376 79.979164Q568.54376 78.21354 568.35626 77.55729Q568.1844 76.885414 567.90314 76.666664Q567.6375 76.447914 567.29376 76.447914ZM572.0594 77.36979Q572.0594 76.02604 572.65314 75.385414Q573.2469 74.729164 574.2469 74.729164Q575.29376 74.729164 575.8875 75.36979Q576.48126 76.010414 576.48126 77.36979Q576.48126 78.71354 575.8875 79.36979Q575.29376 80.010414 574.29376 80.010414Q573.2469 80.010414 572.65314 79.36979Q572.0594 78.729164 572.0594 77.36979ZM573.5594 77.354164Q573.5594 78.33854 573.77814 78.666664Q573.95 78.916664 574.2469 78.916664Q574.5594 78.916664 574.73126 78.666664Q574.95 78.33854 574.95 77.354164Q574.95 76.385414 574.73126 76.05729Q574.5594 75.791664 574.2469 75.791664Q573.95 75.791664 573.77814 76.041664Q573.5594 76.385414 573.5594 77.354164ZM575.71564 85.30729L574.29376 85.30729L579.6375 74.729164L581.0125 74.729164L575.71564 85.30729ZM578.825 82.666664Q578.825 81.322914 579.40314 80.68229Q579.9969 80.02604 581.02814 80.02604Q582.0594 80.02604 582.65314 80.68229Q583.2469 81.322914 583.2469 82.666664Q583.2469 84.02604 582.65314 84.68229Q582.0594 85.322914 581.04376 85.322914Q579.9969 85.322914 579.40314 84.68229Q578.825 84.02604 578.825 82.666664ZM580.3094 82.666664Q580.3094 83.635414 580.54376 83.96354Q580.71564 84.21354 581.0125 84.21354Q581.325 84.21354 581.48126 83.979164Q581.71564 83.635414 581.71564 82.666664Q581.71564 81.68229 581.4969 81.354164Q581.325 81.104164 581.0125 81.104164Q580.7 81.104164 580.54376 81.354164Q580.3094 81.68229 580.3094 82.666664Z" fill-rule="nonzero"/><path stroke="#757575" stroke-width="1.0" stroke-linecap="butt" d="M581.45 70.416664L456.26666 70.416664L352.551 69.45464" fill-rule="nonzero"/><path fill="#9e9e9e" d="M354.551 69.45464C354.551 68.350075 353.65558 67.45464 352.551 67.45464C351.44644 67.45464 350.551 68.350075 350.551 69.45464C350.551 70.55921 351.44644 71.45464 352.551 71.45464C353.65558 71.45464 354.551 70.55921 354.551 69.45464" fill-rule="nonzero"/><path fill="#1a1a1a" d="M498.46564 120.192276L498.46564 110.17665L501.71564 110.17665Q503.5594 110.17665 504.1219 110.317276Q504.98126 110.55165 505.5594 111.30165Q506.15314 112.05165 506.15314 113.254776Q506.15314 114.17665 505.8094 114.80165Q505.48126 115.42665 504.96564 115.786026Q504.45 116.1454 503.90314 116.2704Q503.1844 116.411026 501.8094 116.411026L500.4969 116.411026L500.4969 120.192276L498.46564 120.192276ZM500.4969 111.86415L500.4969 114.7079L501.60626 114.7079Q502.79376 114.7079 503.2 114.55165Q503.60626 114.3954 503.825 114.067276Q504.0594 113.723526 504.0594 113.286026Q504.0594 112.73915 503.73126 112.379776Q503.41876 112.0204 502.91876 111.92665Q502.5594 111.86415 501.46564 111.86415L500.4969 111.86415ZM509.29376 120.192276L507.3719 120.192276L507.3719 112.92665L509.15314 112.92665L509.15314 113.9579Q509.6219 113.23915 509.98126 113.004776Q510.34064 112.7704 510.8094 112.7704Q511.46564 112.7704 512.075 113.129776L511.48126 114.80165Q510.9969 114.48915 510.575 114.48915Q510.16876 114.48915 509.8875 114.723526Q509.6219 114.942276 509.45 115.5204Q509.29376 116.098526 509.29376 117.942276L509.29376 120.192276ZM513.45 111.942276L513.45 110.17665L515.3719 110.17665L515.3719 111.942276L513.45 111.942276ZM513.45 120.192276L513.45 112.92665L515.3719 112.92665L515.3719 120.192276L513.45 120.192276ZM519.45 120.192276L516.52814 112.92665L518.54376 112.92665L519.90314 116.629776L520.3094 117.879776Q520.46564 117.3954 520.4969 117.254776Q520.60626 116.942276 520.71564 116.629776L522.09064 112.92665L524.0594 112.92665L521.1844 120.192276L519.45 120.192276ZM527.8875 115.1454L526.15314 114.8329Q526.4344 113.786026 527.15314 113.286026Q527.8719 112.7704 529.29376 112.7704Q530.575 112.7704 531.2 113.0829Q531.84064 113.379776 532.09064 113.848526Q532.34064 114.317276 532.34064 115.567276L532.325 117.80165Q532.325 118.7704 532.41876 119.223526Q532.5125 119.67665 532.7625 120.192276L530.8719 120.192276Q530.79376 120.004776 530.6844 119.629776Q530.6375 119.4579 530.60626 119.3954Q530.1219 119.879776 529.5594 120.129776Q528.9969 120.36415 528.35626 120.36415Q527.2469 120.36415 526.59064 119.754776Q525.95 119.1454 525.95 118.2079Q525.95 117.598526 526.2469 117.11415Q526.54376 116.629776 527.0594 116.379776Q527.59064 116.11415 528.59064 115.92665Q529.9344 115.67665 530.46564 115.4579L530.46564 115.2704Q530.46564 114.7079 530.1844 114.473526Q529.91876 114.23915 529.15314 114.23915Q528.6375 114.23915 528.35626 114.442276Q528.075 114.6454 527.8875 115.1454ZM530.46564 116.7079Q530.09064 116.8329 529.29376 117.004776Q528.4969 117.17665 528.2469 117.3329Q527.8719 117.598526 527.8719 118.004776Q527.8719 118.411026 528.16876 118.7079Q528.46564 119.004776 528.9344 119.004776Q529.45 119.004776 529.9344 118.661026Q530.27814 118.3954 530.3875 118.0204Q530.46564 117.786026 530.46564 117.0829L530.46564 116.7079ZM537.77814 112.92665L537.77814 114.4579L536.46564 114.4579L536.46564 117.3954Q536.46564 118.2704 536.4969 118.42665Q536.54376 118.567276 536.66876 118.67665Q536.8094 118.7704 537.0125 118.7704Q537.27814 118.7704 537.77814 118.5829L537.9344 120.067276Q537.27814 120.36415 536.41876 120.36415Q535.90314 120.36415 535.48126 120.192276Q535.075 120.004776 534.8719 119.73915Q534.6844 119.4579 534.60626 118.98915Q534.54376 118.6454 534.54376 117.629776L534.54376 114.4579L533.66876 114.4579L533.66876 112.92665L534.54376 112.92665L534.54376 111.48915L536.46564 110.36415L536.46564 112.92665L537.77814 112.92665ZM543.65314 117.879776L545.575 118.2079Q545.2 119.254776 544.40314 119.817276Q543.60626 120.36415 542.41876 120.36415Q540.52814 120.36415 539.60626 119.11415Q538.8875 118.129776 538.8875 116.61415Q538.8875 114.817276 539.825 113.80165Q540.77814 112.7704 542.23126 112.7704Q543.84064 112.7704 544.77814 113.848526Q545.71564 114.911026 545.66876 117.11415L540.85626 117.11415Q540.8875 117.973526 541.325 118.4579Q541.77814 118.92665 542.4344 118.92665Q542.8875 118.92665 543.1844 118.67665Q543.4969 118.42665 543.65314 117.879776ZM543.7625 115.942276Q543.7469 115.098526 543.34064 114.67665Q542.9344 114.23915 542.34064 114.23915Q541.71564 114.23915 541.29376 114.692276Q540.8875 115.161026 540.90314 115.942276L543.7625 115.942276ZM551.95 116.92665L553.91876 116.73915Q554.10626 117.723526 554.6375 118.192276Q555.1844 118.661026 556.10626 118.661026Q557.09064 118.661026 557.575 118.254776Q558.075 117.8329 558.075 117.286026Q558.075 116.92665 557.8719 116.67665Q557.66876 116.42665 557.1375 116.23915Q556.79376 116.11415 555.52814 115.80165Q553.90314 115.3954 553.2469 114.817276Q552.325 113.98915 552.325 112.80165Q552.325 112.036026 552.7469 111.36415Q553.1844 110.692276 553.9969 110.348526Q554.825 110.004776 555.98126 110.004776Q557.85626 110.004776 558.8094 110.8329Q559.7625 111.661026 559.825 113.036026L557.79376 113.129776Q557.66876 112.348526 557.23126 112.0204Q556.8094 111.67665 555.95 111.67665Q555.075 111.67665 554.575 112.036026Q554.2469 112.2704 554.2469 112.661026Q554.2469 113.0204 554.5594 113.2704Q554.9344 113.5829 556.40314 113.942276Q557.8875 114.286026 558.59064 114.661026Q559.3094 115.036026 559.7 115.67665Q560.10626 116.317276 560.10626 117.2704Q560.10626 118.129776 559.6219 118.8954Q559.15314 119.6454 558.27814 120.004776Q557.40314 120.36415 556.09064 120.36415Q554.1844 120.36415 553.16876 119.48915Q552.15314 118.61415 551.95 116.92665ZM562.8875 115.1454L561.15314 114.8329Q561.4344 113.786026 562.15314 113.286026Q562.8719 112.7704 564.29376 112.7704Q565.575 112.7704 566.2 113.0829Q566.84064 113.379776 567.09064 113.848526Q567.34064 114.317276 567.34064 115.567276L567.325 117.80165Q567.325 118.7704 567.41876 119.223526Q567.5125 119.67665 567.7625 120.192276L565.8719 120.192276Q565.79376 120.004776 565.6844 119.629776Q565.6375 119.4579 565.60626 119.3954Q565.1219 119.879776 564.5594 120.129776Q563.9969 120.36415 563.35626 120.36415Q562.2469 120.36415 561.59064 119.754776Q560.95 119.1454 560.95 118.2079Q560.95 117.598526 561.2469 117.11415Q561.54376 116.629776 562.0594 116.379776Q562.59064 116.11415 563.59064 115.92665Q564.9344 115.67665 565.46564 115.4579L565.46564 115.2704Q565.46564 114.7079 565.1844 114.473526Q564.91876 114.23915 564.15314 114.23915Q563.6375 114.23915 563.35626 114.442276Q563.075 114.6454 562.8875 115.1454ZM565.46564 116.7079Q565.09064 116.8329 564.29376 117.004776Q563.4969 117.17665 563.2469 117.3329Q562.8719 117.598526 562.8719 118.004776Q562.8719 118.411026 563.16876 118.7079Q563.46564 119.004776 563.9344 119.004776Q564.45 119.004776 564.9344 118.661026Q565.27814 118.3954 565.3875 118.0204Q565.46564 117.786026 565.46564 117.0829L565.46564 116.7079ZM569.45 120.192276L569.45 110.17665L571.3719 110.17665L571.3719 120.192276L569.45 120.192276ZM577.65314 117.879776L579.575 118.2079Q579.2 119.254776 578.40314 119.817276Q577.60626 120.36415 576.41876 120.36415Q574.52814 120.36415 573.60626 119.11415Q572.8875 118.129776 572.8875 116.61415Q572.8875 114.817276 573.825 113.80165Q574.77814 112.7704 576.23126 112.7704Q577.84064 112.7704 578.77814 113.848526Q579.71564 114.911026 579.66876 117.11415L574.85626 117.11415Q574.8875 117.973526 575.325 118.4579Q575.77814 118.92665 576.4344 118.92665Q576.8875 118.92665 577.1844 118.67665Q577.4969 118.42665 577.65314 117.879776ZM577.7625 115.942276Q577.7469 115.098526 577.34064 114.67665Q576.9344 114.23915 576.34064 114.23915Q575.71564 114.23915 575.29376 114.692276Q574.8875 115.161026 574.90314 115.942276L577.7625 115.942276Z" fill-rule="nonzero"/><path fill="#9e9e9e" d="M553.7 134.78603Q552.95 134.47353 552.60626 133.92665Q552.27814 133.36415 552.27814 132.7079Q552.27814 131.59853 553.0594 130.86415Q553.84064 130.12978 555.27814 130.12978Q556.7 130.12978 557.4969 130.86415Q558.29376 131.59853 558.29376 132.7079Q558.29376 133.41103 557.91876 133.9579Q557.5594 134.50478 556.90314 134.78603Q557.7469 135.11415 558.16876 135.7704Q558.60626 136.41103 558.60626 137.23915Q558.60626 138.62978 557.71564 139.50478Q556.84064 140.36415 555.3719 140.36415Q553.9969 140.36415 553.09064 139.6454Q552.0125 138.80165 552.0125 137.3329Q552.0125 136.5204 552.41876 135.84853Q552.825 135.16103 553.7 134.78603ZM554.09064 132.84853Q554.09064 133.42665 554.40314 133.75478Q554.73126 134.06728 555.27814 134.06728Q555.825 134.06728 556.15314 133.73915Q556.48126 133.41103 556.48126 132.84853Q556.48126 132.30165 556.15314 131.98915Q555.825 131.66103 555.29376 131.66103Q554.7469 131.66103 554.41876 131.98915Q554.09064 132.31728 554.09064 132.84853ZM553.91876 137.1454Q553.91876 137.94228 554.325 138.37978Q554.73126 138.81728 555.34064 138.81728Q555.9344 138.81728 556.3094 138.3954Q556.7 137.97353 556.7 137.16103Q556.7 136.4579 556.3094 136.03603Q555.91876 135.59853 555.3094 135.59853Q554.60626 135.59853 554.2625 136.09853Q553.91876 136.5829 553.91876 137.1454ZM560.45 140.19228L560.45 138.2704L562.3719 138.2704L562.3719 140.19228L560.45 140.19228ZM567.29376 130.12978Q568.7469 130.12978 569.575 131.16103Q570.54376 132.3954 570.54376 135.25478Q570.54376 138.09853 569.5594 139.3329Q568.7469 140.36415 567.29376 140.36415Q565.825 140.36415 564.9344 139.23915Q564.04376 138.11415 564.04376 135.22353Q564.04376 132.3954 565.02814 131.16103Q565.84064 130.12978 567.29376 130.12978ZM567.29376 131.72353Q566.95 131.72353 566.66876 131.94228Q566.40314 132.16103 566.2469 132.73915Q566.04376 133.48915 566.04376 135.25478Q566.04376 137.0204 566.21564 137.67665Q566.40314 138.3329 566.66876 138.55165Q566.95 138.7704 567.29376 138.7704Q567.6375 138.7704 567.90314 138.55165Q568.1844 138.3329 568.34064 137.75478Q568.54376 137.0204 568.54376 135.25478Q568.54376 133.48915 568.35626 132.8329Q568.1844 132.16103 567.90314 131.94228Q567.6375 131.72353 567.29376 131.72353ZM572.0594 132.6454Q572.0594 131.30165 572.65314 130.66103Q573.2469 130.00478 574.2469 130.00478Q575.29376 130.00478 575.8875 130.6454Q576.48126 131.28603 576.48126 132.6454Q576.48126 133.98915 575.8875 134.6454Q575.29376 135.28603 574.29376 135.28603Q573.2469 135.28603 572.65314 134.6454Q572.0594 134.00478 572.0594 132.6454ZM573.5594 132.62978Q573.5594 133.61415 573.77814 133.94228Q573.95 134.19228 574.2469 134.19228Q574.5594 134.19228 574.73126 133.94228Q574.95 133.61415 574.95 132.62978Q574.95 131.66103 574.73126 131.3329Q574.5594 131.06728 574.2469 131.06728Q573.95 131.06728 573.77814 131.31728Q573.5594 131.66103 573.5594 132.62978ZM575.71564 140.5829L574.29376 140.5829L579.6375 130.00478L581.0125 130.00478L575.71564 140.5829ZM578.825 137.94228Q578.825 136.59853 579.40314 135.9579Q579.9969 135.30165 581.02814 135.30165Q582.0594 135.30165 582.65314 135.9579Q583.2469 136.59853 583.2469 137.94228Q583.2469 139.30165 582.65314 139.9579Q582.0594 140.59853 581.04376 140.59853Q579.9969 140.59853 579.40314 139.9579Q578.825 139.30165 578.825 137.94228ZM580.3094 137.94228Q580.3094 138.91103 580.54376 139.23915Q580.71564 139.48915 581.0125 139.48915Q581.325 139.48915 581.48126 139.25478Q581.71564 138.91103 581.71564 137.94228Q581.71564 136.9579 581.4969 136.62978Q581.325 136.37978 581.0125 136.37978Q580.7 136.37978 580.54376 136.62978Q580.3094 136.9579 580.3094 137.94228Z" fill-rule="nonzero"/><path stroke="#757575" stroke-width="1.0" stroke-linecap="butt" d="M581.45 125.692276L456.26666 125.692276L420.53064 125.692276" fill-rule="nonzero"/><path fill="#9e9e9e" d="M422.53064 125.692276C422.53064 124.5877 421.6352 123.692276 420.53064 123.692276C419.42606 123.692276 418.53064 124.5877 418.53064 125.692276C418.53064 126.796844 419.42606 127.692276 420.53064 127.692276C421.6352 127.692276 422.53064 126.796844 422.53064 125.692276" fill-rule="nonzero"/><path fill="#1a1a1a" d="M557.40314 187.71977L557.40314 177.70415L559.4344 177.70415L559.4344 187.71977L557.40314 187.71977ZM561.46564 177.70415L565.15314 177.70415Q566.41876 177.70415 567.075 177.89165Q567.95 178.14165 568.575 178.81352Q569.2 179.46977 569.52814 180.43852Q569.85626 181.39165 569.85626 182.7979Q569.85626 184.0479 569.5594 184.93852Q569.1844 186.03227 568.48126 186.70415Q567.95 187.21977 567.0594 187.50102Q566.3875 187.71977 565.2625 187.71977L561.46564 187.71977L561.46564 177.70415ZM563.48126 179.39165L563.48126 186.03227L564.9969 186.03227Q565.84064 186.03227 566.21564 185.93852Q566.71564 185.81352 567.02814 185.51665Q567.35626 185.21977 567.5594 184.5479Q567.77814 183.87602 567.77814 182.71977Q567.77814 181.5479 567.5594 180.93852Q567.35626 180.31352 566.98126 179.96977Q566.6219 179.6104 566.0594 179.4854Q565.6375 179.39165 564.3875 179.39165L563.48126 179.39165ZM571.0594 182.76665Q571.0594 181.2354 571.5125 180.20415Q571.85626 179.43852 572.45 178.82915Q573.04376 178.21977 573.7469 177.9229Q574.6844 177.53227 575.90314 177.53227Q578.1219 177.53227 579.45 178.90727Q580.77814 180.28227 580.77814 182.71977Q580.77814 185.14165 579.45 186.51665Q578.1375 187.89165 575.9344 187.89165Q573.7 187.89165 572.3719 186.53227Q571.0594 185.15727 571.0594 182.76665ZM573.1375 182.70415Q573.1375 184.40727 573.91876 185.28227Q574.71564 186.15727 575.91876 186.15727Q577.1375 186.15727 577.90314 185.2979Q578.6844 184.4229 578.6844 182.6729Q578.6844 180.95415 577.9344 180.1104Q577.1844 179.25102 575.91876 179.25102Q574.66876 179.25102 573.90314 180.1104Q573.1375 180.96977 573.1375 182.70415Z" fill-rule="nonzero"/><path fill="#9e9e9e" d="M553.7 202.31352Q552.95 202.00102 552.60626 201.45415Q552.27814 200.89165 552.27814 200.2354Q552.27814 199.12602 553.0594 198.39165Q553.84064 197.65727 555.27814 197.65727Q556.7 197.65727 557.4969 198.39165Q558.29376 199.12602 558.29376 200.2354Q558.29376 200.93852 557.91876 201.4854Q557.5594 202.03227 556.90314 202.31352Q557.7469 202.64165 558.16876 203.2979Q558.60626 203.93852 558.60626 204.76665Q558.60626 206.15727 557.71564 207.03227Q556.84064 207.89165 555.3719 207.89165Q553.9969 207.89165 553.09064 207.1729Q552.0125 206.32915 552.0125 204.8604Q552.0125 204.0479 552.41876 203.37602Q552.825 202.68852 553.7 202.31352ZM554.09064 200.37602Q554.09064 200.95415 554.40314 201.28227Q554.73126 201.59477 555.27814 201.59477Q555.825 201.59477 556.15314 201.26665Q556.48126 200.93852 556.48126 200.37602Q556.48126 199.82915 556.15314 199.51665Q555.825 199.18852 555.29376 199.18852Q554.7469 199.18852 554.41876 199.51665Q554.09064 199.84477 554.09064 200.37602ZM553.91876 204.6729Q553.91876 205.46977 554.325 205.90727Q554.73126 206.34477 555.34064 206.34477Q555.9344 206.34477 556.3094 205.9229Q556.7 205.50102 556.7 204.68852Q556.7 203.9854 556.3094 203.56352Q555.91876 203.12602 555.3094 203.12602Q554.60626 203.12602 554.2625 203.62602Q553.91876 204.1104 553.91876 204.6729ZM560.45 207.71977L560.45 205.7979L562.3719 205.7979L562.3719 207.71977L560.45 207.71977ZM567.29376 197.65727Q568.7469 197.65727 569.575 198.68852Q570.54376 199.9229 570.54376 202.78227Q570.54376 205.62602 569.5594 206.8604Q568.7469 207.89165 567.29376 207.89165Q565.825 207.89165 564.9344 206.76665Q564.04376 205.64165 564.04376 202.75102Q564.04376 199.9229 565.02814 198.68852Q565.84064 197.65727 567.29376 197.65727ZM567.29376 199.25102Q566.95 199.25102 566.66876 199.46977Q566.40314 199.68852 566.2469 200.26665Q566.04376 201.01665 566.04376 202.78227Q566.04376 204.5479 566.21564 205.20415Q566.40314 205.8604 566.66876 206.07915Q566.95 206.2979 567.29376 206.2979Q567.6375 206.2979 567.90314 206.07915Q568.1844 205.8604 568.34064 205.28227Q568.54376 204.5479 568.54376 202.78227Q568.54376 201.01665 568.35626 200.3604Q568.1844 199.68852 567.90314 199.46977Q567.6375 199.25102 567.29376 199.25102ZM572.0594 200.1729Q572.0594 198.82915 572.65314 198.18852Q573.2469 197.53227 574.2469 197.53227Q575.29376 197.53227 575.8875 198.1729Q576.48126 198.81352 576.48126 200.1729Q576.48126 201.51665 575.8875 202.1729Q575.29376 202.81352 574.29376 202.81352Q573.2469 202.81352 572.65314 202.1729Q572.0594 201.53227 572.0594 200.1729ZM573.5594 200.15727Q573.5594 201.14165 573.77814 201.46977Q573.95 201.71977 574.2469 201.71977Q574.5594 201.71977 574.73126 201.46977Q574.95 201.14165 574.95 200.15727Q574.95 199.18852 574.73126 198.8604Q574.5594 198.59477 574.2469 198.59477Q573.95 198.59477 573.77814 198.84477Q573.5594 199.18852 573.5594 200.15727ZM575.71564 208.1104L574.29376 208.1104L579.6375 197.53227L581.0125 197.53227L575.71564 208.1104ZM578.825 205.46977Q578.825 204.12602 579.40314 203.4854Q579.9969 202.82915 581.02814 202.82915Q582.0594 202.82915 582.65314 203.4854Q583.2469 204.12602 583.2469 205.46977Q583.2469 206.82915 582.65314 207.4854Q582.0594 208.12602 581.04376 208.12602Q579.9969 208.12602 579.40314 207.4854Q578.825 206.82915 578.825 205.46977ZM580.3094 205.46977Q580.3094 206.43852 580.54376 206.76665Q580.71564 207.01665 581.0125 207.01665Q581.325 207.01665 581.48126 206.78227Q581.71564 206.43852 581.71564 205.46977Q581.71564 204.4854 581.4969 204.15727Q581.325 203.90727 581.0125 203.90727Q580.7 203.90727 580.54376 204.15727Q580.3094 204.4854 580.3094 205.46977Z" fill-rule="nonzero"/><path stroke="#757575" stroke-width="1.0" stroke-linecap="butt" d="M581.45 193.21977L456.26666 193.21977L442.47165 193.21977" fill-rule="nonzero"/><path fill="#9e9e9e" d="M444.47165 193.21977C444.47165 192.1152 443.5762 191.21977 442.47165 191.21977C441.36707 191.21977 440.47165 192.1152 440.47165 193.21977C440.47165 194.32434 441.36707 195.21977 442.47165 195.21977C443.5762 195.21977 444.47165 194.32434 444.47165 193.21977" fill-rule="nonzero"/><path fill="#1a1a1a" d="M529.95 300.49857L531.91876 300.31107Q532.10626 301.29544 532.6375 301.7642Q533.1844 302.23294 534.10626 302.23294Q535.09064 302.23294 535.575 301.8267Q536.075 301.40482 536.075 300.85794Q536.075 300.49857 535.8719 300.24857Q535.66876 299.99857 535.1375 299.81107Q534.79376 299.68607 533.52814 299.37357Q531.90314 298.96732 531.2469 298.3892Q530.325 297.56107 530.325 296.37357Q530.325 295.60794 530.7469 294.93607Q531.1844 294.2642 531.9969 293.92044Q532.825 293.5767 533.98126 293.5767Q535.85626 293.5767 536.8094 294.40482Q537.7625 295.23294 537.825 296.60794L535.79376 296.7017Q535.66876 295.92044 535.23126 295.59232Q534.8094 295.24857 533.95 295.24857Q533.075 295.24857 532.575 295.60794Q532.2469 295.84232 532.2469 296.23294Q532.2469 296.59232 532.5594 296.84232Q532.9344 297.15482 534.40314 297.5142Q535.8875 297.85794 536.59064 298.23294Q537.3094 298.60794 537.7 299.24857Q538.10626 299.8892 538.10626 300.84232Q538.10626 301.7017 537.6219 302.46732Q537.15314 303.21732 536.27814 303.5767Q535.40314 303.93607 534.09064 303.93607Q532.1844 303.93607 531.16876 303.06107Q530.15314 302.18607 529.95 300.49857ZM542.77814 296.49857L542.77814 298.02982L541.46564 298.02982L541.46564 300.96732Q541.46564 301.84232 541.4969 301.99857Q541.54376 302.1392 541.66876 302.24857Q541.8094 302.34232 542.0125 302.34232Q542.27814 302.34232 542.77814 302.15482L542.9344 303.6392Q542.27814 303.93607 541.41876 303.93607Q540.90314 303.93607 540.48126 303.7642Q540.075 303.5767 539.8719 303.31107Q539.6844 303.02982 539.60626 302.56107Q539.54376 302.21732 539.54376 301.2017L539.54376 298.02982L538.66876 298.02982L538.66876 296.49857L539.54376 296.49857L539.54376 295.06107L541.46564 293.93607L541.46564 296.49857L542.77814 296.49857ZM545.8875 298.71732L544.15314 298.40482Q544.4344 297.35794 545.15314 296.85794Q545.8719 296.34232 547.29376 296.34232Q548.575 296.34232 549.2 296.65482Q549.84064 296.9517 550.09064 297.42044Q550.34064 297.8892 550.34064 299.1392L550.325 301.37357Q550.325 302.34232 550.41876 302.79544Q550.5125 303.24857 550.7625 303.7642L548.8719 303.7642Q548.79376 303.5767 548.6844 303.2017Q548.6375 303.02982 548.60626 302.96732Q548.1219 303.4517 547.5594 303.7017Q546.9969 303.93607 546.35626 303.93607Q545.2469 303.93607 544.59064 303.3267Q543.95 302.71732 543.95 301.77982Q543.95 301.17044 544.2469 300.68607Q544.54376 300.2017 545.0594 299.9517Q545.59064 299.68607 546.59064 299.49857Q547.9344 299.24857 548.46564 299.02982L548.46564 298.84232Q548.46564 298.27982 548.1844 298.04544Q547.91876 297.81107 547.15314 297.81107Q546.6375 297.81107 546.35626 298.0142Q546.075 298.21732 545.8875 298.71732ZM548.46564 300.27982Q548.09064 300.40482 547.29376 300.5767Q546.4969 300.74857 546.2469 300.90482Q545.8719 301.17044 545.8719 301.5767Q545.8719 301.98294 546.16876 302.27982Q546.46564 302.5767 546.9344 302.5767Q547.45 302.5767 547.9344 302.23294Q548.27814 301.96732 548.3875 301.59232Q548.46564 301.35794 548.46564 300.65482L548.46564 300.27982ZM552.3875 303.7642L552.3875 293.74857L554.3094 293.74857L554.3094 299.06107L556.5594 296.49857L558.91876 296.49857L556.4344 299.15482L559.10626 303.7642L557.02814 303.7642L555.2 300.49857L554.3094 301.43607L554.3094 303.7642L552.3875 303.7642ZM560.45 295.5142L560.45 293.74857L562.3719 293.74857L562.3719 295.5142L560.45 295.5142ZM560.45 303.7642L560.45 296.49857L562.3719 296.49857L562.3719 303.7642L560.45 303.7642ZM571.0594 303.7642L569.1375 303.7642L569.1375 300.06107Q569.1375 298.8892 569.0125 298.54544Q568.8875 298.18607 568.60626 297.99857Q568.34064 297.81107 567.95 297.81107Q567.45 297.81107 567.04376 298.09232Q566.65314 298.35794 566.4969 298.81107Q566.35626 299.2642 566.35626 300.48294L566.35626 303.7642L564.4344 303.7642L564.4344 296.49857L566.23126 296.49857L566.23126 297.5767Q567.16876 296.34232 568.6219 296.34232Q569.2469 296.34232 569.77814 296.5767Q570.3094 296.79544 570.575 297.15482Q570.84064 297.5142 570.95 297.96732Q571.0594 298.40482 571.0594 299.24857L571.0594 303.7642ZM573.27814 304.24857L575.46564 304.5142Q575.52814 304.8892 575.73126 305.02982Q575.9969 305.24857 576.59064 305.24857Q577.34064 305.24857 577.71564 305.0142Q577.96564 304.85794 578.09064 304.52982Q578.1844 304.29544 578.1844 303.65482L578.1844 302.59232Q577.325 303.7642 576.0125 303.7642Q574.54376 303.7642 573.7 302.52982Q573.02814 301.54544 573.02814 300.09232Q573.02814 298.2642 573.90314 297.31107Q574.77814 296.34232 576.09064 296.34232Q577.4344 296.34232 578.3094 297.52982L578.3094 296.49857L580.10626 296.49857L580.10626 303.0142Q580.10626 304.31107 579.8875 304.93607Q579.6844 305.5767 579.29376 305.93607Q578.91876 306.29544 578.27814 306.49857Q577.6375 306.71732 576.66876 306.71732Q574.8094 306.71732 574.04376 306.0767Q573.27814 305.4517 573.27814 304.48294Q573.27814 304.37357 573.27814 304.24857ZM574.9969 299.98294Q574.9969 301.1392 575.4344 301.68607Q575.8875 302.21732 576.54376 302.21732Q577.2469 302.21732 577.73126 301.67044Q578.21564 301.10794 578.21564 300.02982Q578.21564 298.90482 577.7469 298.35794Q577.29376 297.81107 576.575 297.81107Q575.8875 297.81107 575.4344 298.35794Q574.9969 298.8892 574.9969 299.98294Z" fill-rule="nonzero"/><path fill="#9e9e9e" d="M550.52814 321.98294L550.52814 323.7642L543.79376 323.7642Q543.90314 322.74857 544.45 321.84232Q544.9969 320.93607 546.6219 319.43607Q547.91876 318.23294 548.21564 317.79544Q548.60626 317.2017 548.60626 316.62357Q548.60626 315.98294 548.2625 315.6392Q547.91876 315.29544 547.3094 315.29544Q546.7 315.29544 546.34064 315.65482Q545.9969 316.0142 545.9344 316.85794L544.02814 316.67044Q544.2 315.0767 545.09064 314.3892Q545.9969 313.7017 547.35626 313.7017Q548.84064 313.7017 549.6844 314.49857Q550.52814 315.29544 550.52814 316.48294Q550.52814 317.17044 550.27814 317.77982Q550.04376 318.3892 549.52814 319.06107Q549.16876 319.49857 548.2625 320.34232Q547.35626 321.17044 547.10626 321.4517Q546.8719 321.71732 546.71564 321.98294L550.52814 321.98294ZM556.96564 323.7642L555.04376 323.7642L555.04376 316.52982Q553.98126 317.5142 552.5594 317.98294L552.5594 316.23294Q553.3094 315.99857 554.1844 315.31107Q555.075 314.62357 555.40314 313.7017L556.96564 313.7017L556.96564 323.7642ZM560.45 323.7642L560.45 321.84232L562.3719 321.84232L562.3719 323.7642L560.45 323.7642ZM567.29376 313.7017Q568.7469 313.7017 569.575 314.73294Q570.54376 315.96732 570.54376 318.8267Q570.54376 321.67044 569.5594 322.90482Q568.7469 323.93607 567.29376 323.93607Q565.825 323.93607 564.9344 322.81107Q564.04376 321.68607 564.04376 318.79544Q564.04376 315.96732 565.02814 314.73294Q565.84064 313.7017 567.29376 313.7017ZM567.29376 315.29544Q566.95 315.29544 566.66876 315.5142Q566.40314 315.73294 566.2469 316.31107Q566.04376 317.06107 566.04376 318.8267Q566.04376 320.59232 566.21564 321.24857Q566.40314 321.90482 566.66876 322.12357Q566.95 322.34232 567.29376 322.34232Q567.6375 322.34232 567.90314 322.12357Q568.1844 321.90482 568.34064 321.3267Q568.54376 320.59232 568.54376 318.8267Q568.54376 317.06107 568.35626 316.40482Q568.1844 315.73294 567.90314 315.5142Q567.6375 315.29544 567.29376 315.29544ZM572.0594 316.21732Q572.0594 314.87357 572.65314 314.23294Q573.2469 313.5767 574.2469 313.5767Q575.29376 313.5767 575.8875 314.21732Q576.48126 314.85794 576.48126 316.21732Q576.48126 317.56107 575.8875 318.21732Q575.29376 318.85794 574.29376 318.85794Q573.2469 318.85794 572.65314 318.21732Q572.0594 317.5767 572.0594 316.21732ZM573.5594 316.2017Q573.5594 317.18607 573.77814 317.5142Q573.95 317.7642 574.2469 317.7642Q574.5594 317.7642 574.73126 317.5142Q574.95 317.18607 574.95 316.2017Q574.95 315.23294 574.73126 314.90482Q574.5594 314.6392 574.2469 314.6392Q573.95 314.6392 573.77814 314.8892Q573.5594 315.23294 573.5594 316.2017ZM575.71564 324.15482L574.29376 324.15482L579.6375 313.5767L581.0125 313.5767L575.71564 324.15482ZM578.825 321.5142Q578.825 320.17044 579.40314 319.52982Q579.9969 318.87357 581.02814 318.87357Q582.0594 318.87357 582.65314 319.52982Q583.2469 320.17044 583.2469 321.5142Q583.2469 322.87357 582.65314 323.52982Q582.0594 324.17044 581.04376 324.17044Q579.9969 324.17044 579.40314 323.52982Q578.825 322.87357 578.825 321.5142ZM580.3094 321.5142Q580.3094 322.48294 580.54376 322.81107Q580.71564 323.06107 581.0125 323.06107Q581.325 323.06107 581.48126 322.8267Q581.71564 322.48294 581.71564 321.5142Q581.71564 320.52982 581.4969 320.2017Q581.325 319.9517 581.0125 319.9517Q580.7 319.9517 580.54376 320.2017Q580.3094 320.52982 580.3094 321.5142Z" fill-rule="nonzero"/><path stroke="#757575" stroke-width="1.0" stroke-linecap="butt" d="M581.45 309.2642L456.26666 309.2642L394.40448 309.2642" fill-rule="nonzero"/><path fill="#9e9e9e" d="M396.40448 309.2642C396.40448 308.1596 395.50903 307.2642 394.40448 307.2642C393.2999 307.2642 392.40448 308.1596 392.40448 309.2642C392.40448 310.36874 393.2999 311.2642 394.40448 311.2642C395.50903 311.2642 396.40448 310.36874 396.40448 309.2642" fill-rule="nonzero"/><path fill="#000000" d="M214.70312 35.55L214.70312 24.846874L210.89062 24.846874L210.89062 22.659374L221.125 22.659374L221.125 24.846874L217.3125 24.846874L217.3125 35.55L214.70312 35.55ZM222.28125 29.190624Q222.28125 27.221874 222.875 25.878124Q223.3125 24.89375 224.0625 24.1125Q224.82812 23.33125 225.73438 22.95625Q226.9375 22.440624 228.51562 22.440624Q231.35938 22.440624 233.0625 24.20625Q234.78125 25.971874 234.78125 29.128124Q234.78125 32.2375 233.07812 34.003124Q231.39062 35.76875 228.54688 35.76875Q225.67188 35.76875 223.96875 34.01875Q222.28125 32.26875 222.28125 29.190624ZM224.96875 29.096874Q224.96875 31.284374 225.96875 32.425Q226.98438 33.55 228.54688 33.55Q230.09375 33.55 231.09375 32.425Q232.09375 31.3 232.09375 29.065624Q232.09375 26.846874 231.125 25.76875Q230.15625 24.675 228.54688 24.675Q226.9375 24.675 225.95312 25.784374Q224.96875 26.878124 224.96875 29.096874ZM236.84375 35.55L236.84375 22.659374L239.45312 22.659374L239.45312 28.39375L244.70312 22.659374L248.20312 22.659374L243.34375 27.690624L248.46875 35.55L245.09375 35.55L241.5625 29.503124L239.45312 31.659374L239.45312 35.55L236.84375 35.55ZM249.8125 35.55L249.8125 22.659374L259.35938 22.659374L259.35938 24.846874L252.40625 24.846874L252.40625 27.70625L258.875 27.70625L258.875 29.878124L252.40625 29.878124L252.40625 33.378124L259.60938 33.378124L259.60938 35.55L249.8125 35.55ZM261.84375 35.55L261.84375 22.659374L264.375 22.659374L269.64062 31.26875L269.64062 22.659374L272.0625 22.659374L272.0625 35.55L269.45312 35.55L264.25 27.14375L264.25 35.55L261.84375 35.55ZM279.8125 35.55L279.8125 22.659374L289.35938 22.659374L289.35938 24.846874L282.40625 24.846874L282.40625 27.70625L288.875 27.70625L288.875 29.878124L282.40625 29.878124L282.40625 33.378124L289.60938 33.378124L289.60938 35.55L279.8125 35.55ZM300.04688 30.815624L302.57812 31.6125Q302.0 33.721874 300.64062 34.753124Q299.29688 35.76875 297.21875 35.76875Q294.65625 35.76875 293.0 34.01875Q291.35938 32.26875 291.35938 29.221874Q291.35938 26.003124 293.01562 24.221874Q294.67188 22.440624 297.375 22.440624Q299.75 22.440624 301.21875 23.846874Q302.10938 24.675 302.54688 26.221874L299.96875 26.83125Q299.73438 25.83125 299.0 25.253124Q298.28125 24.675 297.25 24.675Q295.8125 24.675 294.92188 25.70625Q294.03125 26.721874 294.03125 29.034374Q294.03125 31.471874 294.90625 32.51875Q295.79688 33.55 297.20312 33.55Q298.23438 33.55 298.98438 32.89375Q299.73438 32.221874 300.04688 30.815624ZM304.28125 29.190624Q304.28125 27.221874 304.875 25.878124Q305.3125 24.89375 306.0625 24.1125Q306.82812 23.33125 307.73438 22.95625Q308.9375 22.440624 310.51562 22.440624Q313.35938 22.440624 315.0625 24.20625Q316.78125 25.971874 316.78125 29.128124Q316.78125 32.2375 315.07812 34.003124Q313.39062 35.76875 310.54688 35.76875Q307.67188 35.76875 305.96875 34.01875Q304.28125 32.26875 304.28125 29.190624ZM306.96875 29.096874Q306.96875 31.284374 307.96875 32.425Q308.98438 33.55 310.54688 33.55Q312.09375 33.55 313.09375 32.425Q314.09375 31.3 314.09375 29.065624Q314.09375 26.846874 313.125 25.76875Q312.15625 24.675 310.54688 24.675Q308.9375 24.675 307.95312 25.784374Q306.96875 26.878124 306.96875 29.096874ZM318.84375 35.55L318.84375 22.659374L321.375 22.659374L326.64062 31.26875L326.64062 22.659374L329.0625 22.659374L329.0625 35.55L326.45312 35.55L321.25 27.14375L321.25 35.55L318.84375 35.55ZM331.28125 29.190624Q331.28125 27.221874 331.875 25.878124Q332.3125 24.89375 333.0625 24.1125Q333.82812 23.33125 334.73438 22.95625Q335.9375 22.440624 337.51562 22.440624Q340.35938 22.440624 342.0625 24.20625Q343.78125 25.971874 343.78125 29.128124Q343.78125 32.2375 342.07812 34.003124Q340.39062 35.76875 337.54688 35.76875Q334.67188 35.76875 332.96875 34.01875Q331.28125 32.26875 331.28125 29.190624ZM333.96875 29.096874Q333.96875 31.284374 334.96875 32.425Q335.98438 33.55 337.54688 33.55Q339.09375 33.55 340.09375 32.425Q341.09375 31.3 341.09375 29.065624Q341.09375 26.846874 340.125 25.76875Q339.15625 24.675 337.54688 24.675Q335.9375 24.675 334.95312 25.784374Q333.96875 26.878124 333.96875 29.096874ZM345.78125 35.55L345.78125 22.659374L349.67188 22.659374L352.0 31.45625L354.3125 22.659374L358.21875 22.659374L358.21875 35.55L355.79688 35.55L355.79688 25.409374L353.25 35.55L350.73438 35.55L348.1875 25.409374L348.1875 35.55L345.78125 35.55ZM360.73438 35.55L360.73438 22.659374L363.32812 22.659374L363.32812 35.55L360.73438 35.55ZM374.04688 30.815624L376.57812 31.6125Q376.0 33.721874 374.64062 34.753124Q373.29688 35.76875 371.21875 35.76875Q368.65625 35.76875 367.0 34.01875Q365.35938 32.26875 365.35938 29.221874Q365.35938 26.003124 367.01562 24.221874Q368.67188 22.440624 371.375 22.440624Q373.75 22.440624 375.21875 23.846874Q376.10938 24.675 376.54688 26.221874L373.96875 26.83125Q373.73438 25.83125 373.0 25.253124Q372.28125 24.675 371.25 24.675Q369.8125 24.675 368.92188 25.70625Q368.03125 26.721874 368.03125 29.034374Q368.03125 31.471874 368.90625 32.51875Q369.79688 33.55 371.20312 33.55Q372.23438 33.55 372.98438 32.89375Q373.73438 32.221874 374.04688 30.815624ZM378.15625 31.3625L380.6875 31.1125Q380.90625 32.378124 381.60938 32.9875Q382.3125 33.58125 383.5 33.58125Q384.75 33.58125 385.39062 33.05Q386.03125 32.51875 386.03125 31.8Q386.03125 31.346874 385.75 31.034374Q385.48438 30.70625 384.82812 30.471874Q384.35938 30.315624 382.73438 29.909374Q380.64062 29.39375 379.79688 28.628124Q378.60938 27.565624 378.60938 26.034374Q378.60938 25.05 379.17188 24.20625Q379.73438 23.346874 380.78125 22.89375Q381.82812 22.440624 383.3125 22.440624Q385.75 22.440624 386.96875 23.503124Q388.20312 24.565624 388.26562 26.346874L385.65625 26.45625Q385.48438 25.471874 384.9375 25.034374Q384.39062 24.596874 383.29688 24.596874Q382.15625 24.596874 381.51562 25.065624Q381.10938 25.3625 381.10938 25.8625Q381.10938 26.315624 381.48438 26.64375Q381.98438 27.065624 383.875 27.51875Q385.78125 27.95625 386.6875 28.440624Q387.59375 28.909374 388.10938 29.753124Q388.625 30.58125 388.625 31.8Q388.625 32.909374 388.0 33.878124Q387.39062 34.83125 386.26562 35.315624Q385.14062 35.784374 383.46875 35.784374Q381.03125 35.784374 379.71875 34.659374Q378.40625 33.51875 378.15625 31.3625Z" fill-rule="nonzero"/></svg>