<svg version="1.1" viewBox="0.0 0.0 600.0 371.0" fill="none" stroke="none" stroke-linecap="square" stroke-miterlimit="10" width="600" height="371" xmlns:xlink="http://www.w3.org/1999/xlink" xmlns="http://www.w3.org/2000/svg"><path fill="#ffffff" d="M0 0L600.0 0L600.0 371.0L0 371.0L0 0Z" fill-rule="nonzero"/><path fill="#674ea7" d="M300.0 51.916668C312.60532 51.916668 325.16052 53.502758 337.3698 56.63757L300.0 202.18333Z" fill-rule="nonzero"/><path fill="#ffe599" d="M337.3698 56.63757C371.23886 65.33367 401.01483 85.56939 421.5683 113.8588L300.0 202.18333Z" fill-rule="nonzero"/><path fill="#ff6f31" d="M421.5683 113.8588C440.22058 139.53151 450.26666 170.45013 450.26666 202.18333L300.0 202.18333Z" fill-rule="nonzero"/><path fill="#1c7685" d="M450.26666 202.18333C450.26666 246.96811 430.29083 289.4189 395.78357 317.9658L300.0 202.18333Z" fill-rule="nonzero"/><path fill="#0f45a8" d="M395.78357 317.9658C371.33273 338.1933 341.1059 350.16095 309.43533 352.15347L300.0 202.18333Z" fill-rule="nonzero"/><path fill="#ff9a6f" d="M244.68315 62.46892C262.29236 55.496944 281.06082 51.916668 300.0 51.916668L300.0 202.18333Z" fill-rule="nonzero"/><path fill="#4d7d90" d="M173.12566 121.66643C190.12915 94.8732 215.17836 74.15069 244.68315 62.46892L300.0 202.18333Z" fill-rule="nonzero"/><path fill="#8ab2c6" d="M150.02985 211.61865C148.03731 179.94807 156.12216 148.45966 173.12566 121.66643L300.0 202.18333Z" fill-rule="nonzero"/><path fill="#4cdc8b" d="M309.43533 352.15347C269.66077 354.65588 230.5212 341.2554 200.62688 314.90002C170.73254 288.54462 152.53226 251.39322 150.02985 211.61865L300.0 202.18333Z" fill-rule="nonzero"/><path fill="#1a1a1a" d="M28.6125 64.916664L26.409374 64.916664L25.534374 62.635414L21.51875 62.635414L20.690624 64.916664L18.55 64.916664L22.45625 54.90104L24.596874 54.90104L28.6125 64.916664ZM24.878124 60.947914L23.503124 57.229164L22.14375 60.947914L24.878124 60.947914ZM35.20625 64.916664L33.425 64.916664L33.425 63.854164Q32.9875 64.479164 32.378124 64.791664Q31.76875 65.08854 31.159374 65.08854Q29.909374 65.08854 29.01875 64.072914Q28.128124 63.05729 28.128124 61.260414Q28.128124 59.416664 28.9875 58.46354Q29.8625 57.49479 31.190624 57.49479Q32.409374 57.49479 33.3 58.510414L33.3 54.90104L35.20625 54.90104L35.20625 64.916664ZM30.08125 61.135414Q30.08125 62.291664 30.409374 62.80729Q30.878124 63.55729 31.70625 63.55729Q32.3625 63.55729 32.83125 62.99479Q33.3 62.43229 33.3 61.30729Q33.3 60.05729 32.846874 59.510414Q32.39375 58.96354 31.690624 58.96354Q31.003124 58.96354 30.534374 59.510414Q30.08125 60.041664 30.08125 61.135414ZM39.55 64.916664L36.628124 57.65104L38.64375 57.65104L40.003124 61.354164L40.409374 62.604164Q40.565624 62.11979 40.596874 61.979164Q40.70625 61.666664 40.815624 61.354164L42.190624 57.65104L44.159374 57.65104L41.284374 64.916664L39.55 64.916664ZM46.55 56.666664L46.55 54.90104L48.471874 54.90104L48.471874 56.666664L46.55 56.666664ZM46.55 64.916664L46.55 57.65104L48.471874 57.65104L48.471874 64.916664L46.55 64.916664ZM49.878124 62.83854L51.8 62.55729Q51.925 63.104164 52.3 63.40104Q52.675 63.697914 53.3625 63.697914Q54.096874 63.697914 54.471874 63.416664Q54.7375 63.229164 54.7375 62.90104Q54.7375 62.68229 54.596874 62.541664Q54.45625 62.40104 53.95625 62.291664Q51.628124 61.77604 51.003124 61.354164Q50.14375 60.760414 50.14375 59.71354Q50.14375 58.77604 50.878124 58.135414Q51.628124 57.49479 53.20625 57.49479Q54.690624 57.49479 55.409374 57.979164Q56.14375 58.46354 56.409374 59.416664L54.596874 59.74479Q54.4875 59.322914 54.159374 59.104164Q53.83125 58.86979 53.2375 58.86979Q52.471874 58.86979 52.14375 59.08854Q51.925 59.229164 51.925 59.479164Q51.925 59.68229 52.128124 59.822914Q52.378124 60.010414 53.909374 60.36979Q55.45625 60.71354 56.065624 61.21354Q56.659374 61.729164 56.659374 62.65104Q56.659374 63.65104 55.815624 64.36979Q54.9875 65.08854 53.3625 65.08854Q51.878124 65.08854 51.003124 64.479164Q50.14375 63.86979 49.878124 62.83854ZM58.1125 61.18229Q58.1125 60.229164 58.58125 59.33854Q59.05 58.43229 59.909374 57.96354Q60.784374 57.49479 61.846874 57.49479Q63.503124 57.49479 64.55 58.572914Q65.59688 59.635414 65.59688 61.260414Q65.59688 62.916664 64.53438 64.010414Q63.471874 65.08854 61.8625 65.08854Q60.8625 65.08854 59.95625 64.635414Q59.05 64.18229 58.58125 63.30729Q58.1125 62.43229 58.1125 61.18229ZM60.08125 61.291664Q60.08125 62.36979 60.596874 62.947914Q61.1125 63.510414 61.8625 63.510414Q62.6125 63.510414 63.1125 62.947914Q63.628124 62.36979 63.628124 61.27604Q63.628124 60.21354 63.1125 59.635414Q62.6125 59.05729 61.8625 59.05729Q61.1125 59.05729 60.596874 59.635414Q60.08125 60.21354 60.08125 61.291664ZM69.39375 64.916664L67.47188 64.916664L67.47188 57.65104L69.25313 57.65104L69.25313 58.68229Q69.72188 57.96354 70.08125 57.729164Q70.44063 57.49479 70.90938 57.49479Q71.56563 57.49479 72.175 57.854164L71.58125 59.52604Q71.09688 59.21354 70.675 59.21354Q70.26875 59.21354 69.9875 59.447914Q69.72188 59.666664 69.55 60.24479Q69.39375 60.822914 69.39375 62.666664L69.39375 64.916664ZM72.87813 62.83854L74.8 62.55729Q74.925 63.104164 75.3 63.40104Q75.675 63.697914 76.3625 63.697914Q77.09688 63.697914 77.47188 63.416664Q77.7375 63.229164 77.7375 62.90104Q77.7375 62.68229 77.59688 62.541664Q77.45625 62.40104 76.95625 62.291664Q74.62813 61.77604 74.00313 61.354164Q73.14375 60.760414 73.14375 59.71354Q73.14375 58.77604 73.87813 58.135414Q74.62813 57.49479 76.20625 57.49479Q77.69063 57.49479 78.40938 57.979164Q79.14375 58.46354 79.40938 59.416664L77.59688 59.74479Q77.4875 59.322914 77.15938 59.104164Q76.83125 58.86979 76.2375 58.86979Q75.47188 58.86979 75.14375 59.08854Q74.925 59.229164 74.925 59.479164Q74.925 59.68229 75.12813 59.822914Q75.37813 60.010414 76.90938 60.36979Q78.45625 60.71354 79.06563 61.21354Q79.65938 61.729164 79.65938 62.65104Q79.65938 63.65104 78.81563 64.36979Q77.9875 65.08854 76.3625 65.08854Q74.87813 65.08854 74.00313 64.479164Q73.14375 63.86979 72.87813 62.83854Z" fill-rule="nonzero"/><path fill="#9e9e9e" d="M25.659374 77.354164L23.8 77.55729Q23.721874 76.979164 23.425 76.71354Q23.14375 76.43229 22.690624 76.43229Q22.08125 76.43229 21.659374 76.979164Q21.2375 77.52604 21.128124 79.260414Q21.846874 78.40104 22.925 78.40104Q24.128124 78.40104 24.971874 79.322914Q25.83125 80.24479 25.83125 81.68229Q25.83125 83.229164 24.925 84.166664Q24.034374 85.08854 22.6125 85.08854Q21.096874 85.08854 20.1125 83.916664Q19.14375 82.729164 19.14375 80.041664Q19.14375 77.291664 20.159374 76.072914Q21.175 74.854164 22.815624 74.854164Q23.95625 74.854164 24.690624 75.49479Q25.440624 76.135414 25.659374 77.354164ZM21.3 81.541664Q21.3 82.479164 21.721874 82.99479Q22.159374 83.49479 22.70625 83.49479Q23.253124 83.49479 23.596874 83.08854Q23.95625 82.666664 23.95625 81.71354Q23.95625 80.729164 23.565624 80.27604Q23.190624 79.822914 22.6125 79.822914Q22.065624 79.822914 21.675 80.260414Q21.3 80.697914 21.3 81.541664ZM27.55 84.916664L27.55 82.99479L29.471874 82.99479L29.471874 84.916664L27.55 84.916664ZM34.39375 74.854164Q35.846874 74.854164 36.675 75.885414Q37.64375 77.11979 37.64375 79.979164Q37.64375 82.822914 36.659374 84.05729Q35.846874 85.08854 34.39375 85.08854Q32.925 85.08854 32.034374 83.96354Q31.14375 82.83854 31.14375 79.947914Q31.14375 77.11979 32.128124 75.885414Q32.940624 74.854164 34.39375 74.854164ZM34.39375 76.447914Q34.05 76.447914 33.76875 76.666664Q33.503124 76.885414 33.346874 77.46354Q33.14375 78.21354 33.14375 79.979164Q33.14375 81.74479 33.315624 82.40104Q33.503124 83.05729 33.76875 83.27604Q34.05 83.49479 34.39375 83.49479Q34.7375 83.49479 35.003124 83.27604Q35.284374 83.05729 35.440624 82.479164Q35.64375 81.74479 35.64375 79.979164Q35.64375 78.21354 35.45625 77.55729Q35.284374 76.885414 35.003124 76.666664Q34.7375 76.447914 34.39375 76.447914ZM39.159374 77.36979Q39.159374 76.02604 39.753124 75.385414Q40.346874 74.729164 41.346874 74.729164Q42.39375 74.729164 42.9875 75.36979Q43.58125 76.010414 43.58125 77.36979Q43.58125 78.71354 42.9875 79.36979Q42.39375 80.010414 41.39375 80.010414Q40.346874 80.010414 39.753124 79.36979Q39.159374 78.729164 39.159374 77.36979ZM40.659374 77.354164Q40.659374 78.33854 40.878124 78.666664Q41.05 78.916664 41.346874 78.916664Q41.659374 78.916664 41.83125 78.666664Q42.05 78.33854 42.05 77.354164Q42.05 76.385414 41.83125 76.05729Q41.659374 75.791664 41.346874 75.791664Q41.05 75.791664 40.878124 76.041664Q40.659374 76.385414 40.659374 77.354164ZM42.815624 85.30729L41.39375 85.30729L46.7375 74.729164L48.1125 74.729164L42.815624 85.30729ZM45.925 82.666664Q45.925 81.322914 46.503124 80.68229Q47.096874 80.02604 48.128124 80.02604Q49.159374 80.02604 49.753124 80.68229Q50.346874 81.322914 50.346874 82.666664Q50.346874 84.02604 49.753124 84.68229Q49.159374 85.322914 48.14375 85.322914Q47.096874 85.322914 46.503124 84.68229Q45.925 84.02604 45.925 82.666664ZM47.409374 82.666664Q47.409374 83.635414 47.64375 83.96354Q47.815624 84.21354 48.1125 84.21354Q48.425 84.21354 48.58125 83.979164Q48.815624 83.635414 48.815624 82.666664Q48.815624 81.68229 48.596874 81.354164Q48.425 81.104164 48.1125 81.104164Q47.8 81.104164 47.64375 81.354164Q47.409374 81.68229 47.409374 82.666664Z" fill-rule="nonzero"/><path stroke="#757575" stroke-width="1.0" stroke-linecap="butt" d="M18.55 70.416664L143.73334 70.416664L273.2507 61.958553" fill-rule="nonzero"/><path fill="#9e9e9e" d="M275.2507 61.958553C275.2507 60.853985 274.35526 59.958553 273.2507 59.958553C272.14612 59.958553 271.2507 60.853985 271.2507 61.958553C271.2507 63.06312 272.14612 63.958553 273.2507 63.958553C274.35526 63.958553 275.2507 63.06312 275.2507 61.958553" fill-rule="nonzero"/><path fill="#1a1a1a" d="M21.83125 101.916664L21.83125 93.58854L18.846874 93.58854L18.846874 91.90104L26.815624 91.90104L26.815624 93.58854L23.846874 93.58854L23.846874 101.916664L21.83125 101.916664ZM31.753124 99.604164L33.675 99.93229Q33.3 100.979164 32.503124 101.541664Q31.70625 102.08854 30.51875 102.08854Q28.628124 102.08854 27.70625 100.83854Q26.9875 99.854164 26.9875 98.33854Q26.9875 96.541664 27.925 95.52604Q28.878124 94.49479 30.33125 94.49479Q31.940624 94.49479 32.878124 95.572914Q33.815624 96.635414 33.76875 98.83854L28.95625 98.83854Q28.9875 99.697914 29.425 100.18229Q29.878124 100.65104 30.534374 100.65104Q30.9875 100.65104 31.284374 100.40104Q31.596874 100.15104 31.753124 99.604164ZM31.8625 97.666664Q31.846874 96.822914 31.440624 96.40104Q31.034374 95.96354 30.440624 95.96354Q29.815624 95.96354 29.39375 96.416664Q28.9875 96.885414 29.003124 97.666664L31.8625 97.666664ZM37.9875 96.86979L36.253124 96.55729Q36.534374 95.510414 37.253124 95.010414Q37.971874 94.49479 39.39375 94.49479Q40.675 94.49479 41.3 94.80729Q41.940624 95.104164 42.190624 95.572914Q42.440624 96.041664 42.440624 97.291664L42.425 99.52604Q42.425 100.49479 42.51875 100.947914Q42.6125 101.40104 42.8625 101.916664L40.971874 101.916664Q40.89375 101.729164 40.784374 101.354164Q40.7375 101.18229 40.70625 101.11979Q40.221874 101.604164 39.659374 101.854164Q39.096874 102.08854 38.45625 102.08854Q37.346874 102.08854 36.690624 101.479164Q36.05 100.86979 36.05 99.93229Q36.05 99.322914 36.346874 98.83854Q36.64375 98.354164 37.159374 98.104164Q37.690624 97.83854 38.690624 97.65104Q40.034374 97.40104 40.565624 97.18229L40.565624 96.99479Q40.565624 96.43229 40.284374 96.197914Q40.01875 95.96354 39.253124 95.96354Q38.7375 95.96354 38.45625 96.166664Q38.175 96.36979 37.9875 96.86979ZM40.565624 98.43229Q40.190624 98.55729 39.39375 98.729164Q38.596874 98.90104 38.346874 99.05729Q37.971874 99.322914 37.971874 99.729164Q37.971874 100.135414 38.26875 100.43229Q38.565624 100.729164 39.034374 100.729164Q39.55 100.729164 40.034374 100.385414Q40.378124 100.11979 40.4875 99.74479Q40.565624 99.510414 40.565624 98.80729L40.565624 98.43229ZM44.409374 94.65104L46.175 94.65104L46.175 95.65104Q47.128124 94.49479 48.440624 94.49479Q49.14375 94.49479 49.659374 94.791664Q50.175 95.072914 50.503124 95.65104Q50.971874 95.072914 51.51875 94.791664Q52.08125 94.49479 52.70625 94.49479Q53.503124 94.49479 54.05 94.822914Q54.6125 95.135414 54.89375 95.77604Q55.096874 96.229164 55.096874 97.27604L55.096874 101.916664L53.175 101.916664L53.175 97.760414Q53.175 96.68229 52.971874 96.36979Q52.70625 95.96354 52.14375 95.96354Q51.753124 95.96354 51.39375 96.21354Q51.034374 96.447914 50.878124 96.93229Q50.721874 97.40104 50.721874 98.43229L50.721874 101.916664L48.8 101.916664L48.8 97.93229Q48.8 96.885414 48.690624 96.572914Q48.596874 96.260414 48.378124 96.11979Q48.159374 95.96354 47.8 95.96354Q47.346874 95.96354 46.9875 96.21354Q46.64375 96.447914 46.4875 96.90104Q46.33125 97.33854 46.33125 98.385414L46.33125 101.916664L44.409374 101.916664L44.409374 94.65104Z" fill-rule="nonzero"/><path fill="#9e9e9e" d="M24.065624 121.916664L22.14375 121.916664L22.14375 114.68229Q21.08125 115.666664 19.659374 116.135414L19.659374 114.385414Q20.409374 114.15104 21.284374 113.46354Q22.175 112.77604 22.503124 111.854164L24.065624 111.854164L24.065624 121.916664ZM30.39375 111.854164Q31.846874 111.854164 32.675 112.885414Q33.64375 114.11979 33.64375 116.979164Q33.64375 119.822914 32.659374 121.05729Q31.846874 122.08854 30.39375 122.08854Q28.925 122.08854 28.034374 120.96354Q27.14375 119.83854 27.14375 116.947914Q27.14375 114.11979 28.128124 112.885414Q28.940624 111.854164 30.39375 111.854164ZM30.39375 113.447914Q30.05 113.447914 29.76875 113.666664Q29.503124 113.885414 29.346874 114.46354Q29.14375 115.21354 29.14375 116.979164Q29.14375 118.74479 29.315624 119.40104Q29.503124 120.05729 29.76875 120.27604Q30.05 120.49479 30.39375 120.49479Q30.7375 120.49479 31.003124 120.27604Q31.284374 120.05729 31.440624 119.479164Q31.64375 118.74479 31.64375 116.979164Q31.64375 115.21354 31.45625 114.55729Q31.284374 113.885414 31.003124 113.666664Q30.7375 113.447914 30.39375 113.447914ZM35.55 121.916664L35.55 119.99479L37.471874 119.99479L37.471874 121.916664L35.55 121.916664ZM42.39375 111.854164Q43.846874 111.854164 44.675 112.885414Q45.64375 114.11979 45.64375 116.979164Q45.64375 119.822914 44.659374 121.05729Q43.846874 122.08854 42.39375 122.08854Q40.925 122.08854 40.034374 120.96354Q39.14375 119.83854 39.14375 116.947914Q39.14375 114.11979 40.128124 112.885414Q40.940624 111.854164 42.39375 111.854164ZM42.39375 113.447914Q42.05 113.447914 41.76875 113.666664Q41.503124 113.885414 41.346874 114.46354Q41.14375 115.21354 41.14375 116.979164Q41.14375 118.74479 41.315624 119.40104Q41.503124 120.05729 41.76875 120.27604Q42.05 120.49479 42.39375 120.49479Q42.7375 120.49479 43.003124 120.27604Q43.284374 120.05729 43.440624 119.479164Q43.64375 118.74479 43.64375 116.979164Q43.64375 115.21354 43.45625 114.55729Q43.284374 113.885414 43.003124 113.666664Q42.7375 113.447914 42.39375 113.447914ZM47.159374 114.36979Q47.159374 113.02604 47.753124 112.385414Q48.346874 111.729164 49.346874 111.729164Q50.39375 111.729164 50.9875 112.36979Q51.58125 113.010414 51.58125 114.36979Q51.58125 115.71354 50.9875 116.36979Q50.39375 117.010414 49.39375 117.010414Q48.346874 117.010414 47.753124 116.36979Q47.159374 115.729164 47.159374 114.36979ZM48.659374 114.354164Q48.659374 115.33854 48.878124 115.666664Q49.05 115.916664 49.346874 115.916664Q49.659374 115.916664 49.83125 115.666664Q50.05 115.33854 50.05 114.354164Q50.05 113.385414 49.83125 113.05729Q49.659374 112.791664 49.346874 112.791664Q49.05 112.791664 48.878124 113.041664Q48.659374 113.385414 48.659374 114.354164ZM50.815624 122.30729L49.39375 122.30729L54.7375 111.729164L56.1125 111.729164L50.815624 122.30729ZM53.925 119.666664Q53.925 118.322914 54.503124 117.68229Q55.096874 117.02604 56.128124 117.02604Q57.159374 117.02604 57.753124 117.68229Q58.346874 118.322914 58.346874 119.666664Q58.346874 121.02604 57.753124 121.68229Q57.159374 122.322914 56.14375 122.322914Q55.096874 122.322914 54.503124 121.68229Q53.925 121.02604 53.925 119.666664ZM55.409374 119.666664Q55.409374 120.635414 55.64375 120.96354Q55.815624 121.21354 56.1125 121.21354Q56.425 121.21354 56.58125 120.979164Q56.815624 120.635414 56.815624 119.666664Q56.815624 118.68229 56.596874 118.354164Q56.425 118.104164 56.1125 118.104164Q55.8 118.104164 55.64375 118.354164Q55.409374 118.68229 55.409374 119.666664Z" fill-rule="nonzero"/><path stroke="#757575" stroke-width="1.0" stroke-linecap="butt" d="M18.55 107.416664L143.73334 107.416664L209.0056 92.19" fill-rule="nonzero"/><path fill="#9e9e9e" d="M211.0056 92.19C211.0056 91.08543 210.11017 90.19 209.0056 90.19C207.90103 90.19 207.0056 91.08543 207.0056 92.19C207.0056 93.29457 207.90103 94.19 209.0056 94.19C210.11017 94.19 211.0056 93.29457 211.0056 92.19" fill-rule="nonzero"/><path fill="#1a1a1a" d="M19.628124 161.18202L19.628124 151.24452L21.64375 151.24452L21.64375 159.49452L26.675 159.49452L26.675 161.18202L19.628124 161.18202ZM27.55 152.93202L27.55 151.1664L29.471874 151.1664L29.471874 152.93202L27.55 152.93202ZM27.55 161.18202L27.55 153.9164L29.471874 153.9164L29.471874 161.18202L27.55 161.18202ZM36.3 163.94765L36.3 160.2914Q35.925 160.77577 35.3625 161.07265Q34.8 161.3539 34.159374 161.3539Q32.909374 161.3539 32.1125 160.4164Q31.175 159.32265 31.175 157.46327Q31.175 155.71327 32.05 154.74452Q32.940624 153.76015 34.253124 153.76015Q34.9875 153.76015 35.503124 154.07265Q36.034374 154.36952 36.45625 154.99452L36.45625 153.9164L38.221874 153.9164L38.221874 163.94765L36.3 163.94765ZM36.3625 157.46327Q36.3625 156.3539 35.909374 155.80702Q35.45625 155.26015 34.76875 155.26015Q34.065624 155.26015 33.596874 155.82265Q33.128124 156.36952 33.128124 157.57265Q33.128124 158.77577 33.58125 159.30702Q34.034374 159.82265 34.70625 159.82265Q35.3625 159.82265 35.8625 159.2289Q36.3625 158.63515 36.3625 157.46327ZM45.33125 161.18202L45.33125 160.08827Q44.940624 160.68202 44.284374 161.02577Q43.64375 161.3539 42.925 161.3539Q42.190624 161.3539 41.6125 161.02577Q41.034374 160.69765 40.76875 160.11952Q40.51875 159.5414 40.51875 158.51015L40.51875 153.9164L42.440624 153.9164L42.440624 157.26015Q42.440624 158.7914 42.534374 159.13515Q42.64375 159.4789 42.925 159.68202Q43.20625 159.88515 43.64375 159.88515Q44.128124 159.88515 44.51875 159.61952Q44.909374 159.33827 45.05 158.94765Q45.190624 158.5414 45.190624 156.9789L45.190624 153.9164L47.1125 153.9164L47.1125 161.18202L45.33125 161.18202ZM49.55 152.93202L49.55 151.1664L51.471874 151.1664L51.471874 152.93202L49.55 152.93202ZM49.55 161.18202L49.55 153.9164L51.471874 153.9164L51.471874 161.18202L49.55 161.18202ZM60.20625 161.18202L58.425 161.18202L58.425 160.11952Q57.9875 160.74452 57.378124 161.05702Q56.76875 161.3539 56.159374 161.3539Q54.909374 161.3539 54.01875 160.33827Q53.128124 159.32265 53.128124 157.52577Q53.128124 155.68202 53.9875 154.7289Q54.8625 153.76015 56.190624 153.76015Q57.409374 153.76015 58.3 154.77577L58.3 151.1664L60.20625 151.1664L60.20625 161.18202ZM55.08125 157.40077Q55.08125 158.55702 55.409374 159.07265Q55.878124 159.82265 56.70625 159.82265Q57.3625 159.82265 57.83125 159.26015Q58.3 158.69765 58.3 157.57265Q58.3 156.32265 57.846874 155.77577Q57.39375 155.2289 56.690624 155.2289Q56.003124 155.2289 55.534374 155.77577Q55.08125 156.30702 55.08125 157.40077ZM62.55 152.93202L62.55 151.1664L64.47188 151.1664L64.47188 152.93202L62.55 152.93202ZM62.55 161.18202L62.55 153.9164L64.47188 153.9164L64.47188 161.18202L62.55 161.18202ZM69.87813 153.9164L69.87813 155.44765L68.56563 155.44765L68.56563 158.38515Q68.56563 159.26015 68.59688 159.4164Q68.64375 159.55702 68.76875 159.6664Q68.90938 159.76015 69.1125 159.76015Q69.37813 159.76015 69.87813 159.57265L70.03438 161.05702Q69.37813 161.3539 68.51875 161.3539Q68.00313 161.3539 67.58125 161.18202Q67.175 160.99452 66.97188 160.7289Q66.78438 160.44765 66.70625 159.9789Q66.64375 159.63515 66.64375 158.61952L66.64375 155.44765L65.76875 155.44765L65.76875 153.9164L66.64375 153.9164L66.64375 152.4789L68.56563 151.3539L68.56563 153.9164L69.87813 153.9164ZM70.64375 153.9164L72.69063 153.9164L74.425 159.07265L76.12813 153.9164L78.1125 153.9164L75.55 160.90077L75.09688 162.1664Q74.83125 162.80702 74.59688 163.13515Q74.37813 163.4789 74.08125 163.68202Q73.78438 163.90077 73.34688 164.01015Q72.90938 164.13515 72.3625 164.13515Q71.81563 164.13515 71.28438 164.01015L71.1125 162.51015Q71.56563 162.6039 71.925 162.6039Q72.59688 162.6039 72.90938 162.19765Q73.2375 161.80702 73.40938 161.19765L70.64375 153.9164Z" fill-rule="nonzero"/><path fill="#9e9e9e" d="M24.065624 181.18202L22.14375 181.18202L22.14375 173.94765Q21.08125 174.93202 19.659374 175.40077L19.659374 173.65077Q20.409374 173.4164 21.284374 172.7289Q22.175 172.0414 22.503124 171.11952L24.065624 171.11952L24.065624 181.18202ZM30.39375 171.11952Q31.846874 171.11952 32.675 172.15077Q33.64375 173.38515 33.64375 176.24452Q33.64375 179.08827 32.659374 180.32265Q31.846874 181.3539 30.39375 181.3539Q28.925 181.3539 28.034374 180.2289Q27.14375 179.1039 27.14375 176.21327Q27.14375 173.38515 28.128124 172.15077Q28.940624 171.11952 30.39375 171.11952ZM30.39375 172.71327Q30.05 172.71327 29.76875 172.93202Q29.503124 173.15077 29.346874 173.7289Q29.14375 174.4789 29.14375 176.24452Q29.14375 178.01015 29.315624 178.6664Q29.503124 179.32265 29.76875 179.5414Q30.05 179.76015 30.39375 179.76015Q30.7375 179.76015 31.003124 179.5414Q31.284374 179.32265 31.440624 178.74452Q31.64375 178.01015 31.64375 176.24452Q31.64375 174.4789 31.45625 173.82265Q31.284374 173.15077 31.003124 172.93202Q30.7375 172.71327 30.39375 172.71327ZM35.55 181.18202L35.55 179.26015L37.471874 179.26015L37.471874 181.18202L35.55 181.18202ZM42.39375 171.11952Q43.846874 171.11952 44.675 172.15077Q45.64375 173.38515 45.64375 176.24452Q45.64375 179.08827 44.659374 180.32265Q43.846874 181.3539 42.39375 181.3539Q40.925 181.3539 40.034374 180.2289Q39.14375 179.1039 39.14375 176.21327Q39.14375 173.38515 40.128124 172.15077Q40.940624 171.11952 42.39375 171.11952ZM42.39375 172.71327Q42.05 172.71327 41.76875 172.93202Q41.503124 173.15077 41.346874 173.7289Q41.14375 174.4789 41.14375 176.24452Q41.14375 178.01015 41.315624 178.6664Q41.503124 179.32265 41.76875 179.5414Q42.05 179.76015 42.39375 179.76015Q42.7375 179.76015 43.003124 179.5414Q43.284374 179.32265 43.440624 178.74452Q43.64375 178.01015 43.64375 176.24452Q43.64375 174.4789 43.45625 173.82265Q43.284374 173.15077 43.003124 172.93202Q42.7375 172.71327 42.39375 172.71327ZM47.159374 173.63515Q47.159374 172.2914 47.753124 171.65077Q48.346874 170.99452 49.346874 170.99452Q50.39375 170.99452 50.9875 171.63515Q51.58125 172.27577 51.58125 173.63515Q51.58125 174.9789 50.9875 175.63515Q50.39375 176.27577 49.39375 176.27577Q48.346874 176.27577 47.753124 175.63515Q47.159374 174.99452 47.159374 173.63515ZM48.659374 173.61952Q48.659374 174.6039 48.878124 174.93202Q49.05 175.18202 49.346874 175.18202Q49.659374 175.18202 49.83125 174.93202Q50.05 174.6039 50.05 173.61952Q50.05 172.65077 49.83125 172.32265Q49.659374 172.05702 49.346874 172.05702Q49.05 172.05702 48.878124 172.30702Q48.659374 172.65077 48.659374 173.61952ZM50.815624 181.57265L49.39375 181.57265L54.7375 170.99452L56.1125 170.99452L50.815624 181.57265ZM53.925 178.93202Q53.925 177.58827 54.503124 176.94765Q55.096874 176.2914 56.128124 176.2914Q57.159374 176.2914 57.753124 176.94765Q58.346874 177.58827 58.346874 178.93202Q58.346874 180.2914 57.753124 180.94765Q57.159374 181.58827 56.14375 181.58827Q55.096874 181.58827 54.503124 180.94765Q53.925 180.2914 53.925 178.93202ZM55.409374 178.93202Q55.409374 179.90077 55.64375 180.2289Q55.815624 180.4789 56.1125 180.4789Q56.425 180.4789 56.58125 180.24452Q56.815624 179.90077 56.815624 178.93202Q56.815624 177.94765 56.596874 177.61952Q56.425 177.36952 56.1125 177.36952Q55.8 177.36952 55.64375 177.61952Q55.409374 177.94765 55.409374 178.93202Z" fill-rule="nonzero"/><path stroke="#757575" stroke-width="1.0" stroke-linecap="butt" d="M18.55 166.68202L143.73334 166.68202L161.73152 166.68202" fill-rule="nonzero"/><path fill="#9e9e9e" d="M163.73152 166.68202C163.73152 165.57745 162.83609 164.68202 161.73152 164.68202C160.62695 164.68202 159.73152 165.57745 159.73152 166.68202C159.73152 167.78659 160.62695 168.68202 161.73152 168.68202C162.83609 168.68202 163.73152 167.78659 163.73152 166.68202" fill-rule="nonzero"/><path fill="#1a1a1a" d="M19.159374 298.81107Q19.159374 297.27982 19.6125 296.24857Q19.95625 295.48294 20.55 294.87357Q21.14375 294.2642 21.846874 293.96732Q22.784374 293.5767 24.003124 293.5767Q26.221874 293.5767 27.55 294.9517Q28.878124 296.3267 28.878124 298.7642Q28.878124 301.18607 27.55 302.56107Q26.2375 303.93607 24.034374 303.93607Q21.8 303.93607 20.471874 302.5767Q19.159374 301.2017 19.159374 298.81107ZM21.2375 298.74857Q21.2375 300.4517 22.01875 301.3267Q22.815624 302.2017 24.01875 302.2017Q25.2375 302.2017 26.003124 301.34232Q26.784374 300.46732 26.784374 298.71732Q26.784374 296.99857 26.034374 296.15482Q25.284374 295.29544 24.01875 295.29544Q22.76875 295.29544 22.003124 296.15482Q21.2375 297.0142 21.2375 298.74857ZM30.503124 296.49857L32.284374 296.49857L32.284374 297.5767Q32.64375 297.02982 33.2375 296.68607Q33.83125 296.34232 34.55 296.34232Q35.815624 296.34232 36.690624 297.34232Q37.58125 298.3267 37.58125 300.09232Q37.58125 301.90482 36.690624 302.92044Q35.8 303.93607 34.534374 303.93607Q33.940624 303.93607 33.440624 303.7017Q32.95625 303.4517 32.425 302.87357L32.425 306.52982L30.503124 306.52982L30.503124 296.49857ZM32.39375 300.0142Q32.39375 301.23294 32.878124 301.8267Q33.378124 302.40482 34.065624 302.40482Q34.7375 302.40482 35.175 301.87357Q35.628124 301.3267 35.628124 300.10794Q35.628124 298.96732 35.159374 298.42044Q34.70625 297.85794 34.034374 297.85794Q33.33125 297.85794 32.8625 298.40482Q32.39375 298.9517 32.39375 300.0142ZM43.753124 301.4517L45.675 301.77982Q45.3 302.8267 44.503124 303.3892Q43.70625 303.93607 42.51875 303.93607Q40.628124 303.93607 39.70625 302.68607Q38.9875 301.7017 38.9875 300.18607Q38.9875 298.3892 39.925 297.37357Q40.878124 296.34232 42.33125 296.34232Q43.940624 296.34232 44.878124 297.42044Q45.815624 298.48294 45.76875 300.68607L40.95625 300.68607Q40.9875 301.54544 41.425 302.02982Q41.878124 302.49857 42.534374 302.49857Q42.9875 302.49857 43.284374 302.24857Q43.596874 301.99857 43.753124 301.4517ZM43.8625 299.5142Q43.846874 298.67044 43.440624 298.24857Q43.034374 297.81107 42.440624 297.81107Q41.815624 297.81107 41.39375 298.2642Q40.9875 298.73294 41.003124 299.5142L43.8625 299.5142ZM50.39375 303.7642L48.471874 303.7642L48.471874 296.49857L50.253124 296.49857L50.253124 297.52982Q50.721874 296.81107 51.08125 296.5767Q51.440624 296.34232 51.909374 296.34232Q52.565624 296.34232 53.175 296.7017L52.58125 298.37357Q52.096874 298.06107 51.675 298.06107Q51.26875 298.06107 50.9875 298.29544Q50.721874 298.5142 50.55 299.09232Q50.39375 299.67044 50.39375 301.5142L50.39375 303.7642ZM55.9875 298.71732L54.253124 298.40482Q54.534374 297.35794 55.253124 296.85794Q55.971874 296.34232 57.39375 296.34232Q58.675 296.34232 59.3 296.65482Q59.940624 296.9517 60.190624 297.42044Q60.440624 297.8892 60.440624 299.1392L60.425 301.37357Q60.425 302.34232 60.51875 302.79544Q60.6125 303.24857 60.8625 303.7642L58.971874 303.7642Q58.89375 303.5767 58.784374 303.2017Q58.7375 303.02982 58.70625 302.96732Q58.221874 303.4517 57.659374 303.7017Q57.096874 303.93607 56.45625 303.93607Q55.346874 303.93607 54.690624 303.3267Q54.05 302.71732 54.05 301.77982Q54.05 301.17044 54.346874 300.68607Q54.64375 300.2017 55.159374 299.9517Q55.690624 299.68607 56.690624 299.49857Q58.034374 299.24857 58.565624 299.02982L58.565624 298.84232Q58.565624 298.27982 58.284374 298.04544Q58.01875 297.81107 57.253124 297.81107Q56.7375 297.81107 56.45625 298.0142Q56.175 298.21732 55.9875 298.71732ZM58.565624 300.27982Q58.190624 300.40482 57.39375 300.5767Q56.596874 300.74857 56.346874 300.90482Q55.971874 301.17044 55.971874 301.5767Q55.971874 301.98294 56.26875 302.27982Q56.565624 302.5767 57.034374 302.5767Q57.55 302.5767 58.034374 302.23294Q58.378124 301.96732 58.4875 301.59232Q58.565624 301.35794 58.565624 300.65482L58.565624 300.27982ZM65.87813 296.49857L65.87813 298.02982L64.56563 298.02982L64.56563 300.96732Q64.56563 301.84232 64.59688 301.99857Q64.64375 302.1392 64.76875 302.24857Q64.90938 302.34232 65.1125 302.34232Q65.37813 302.34232 65.87813 302.15482L66.03438 303.6392Q65.37813 303.93607 64.51875 303.93607Q64.00313 303.93607 63.58125 303.7642Q63.175 303.5767 62.971874 303.31107Q62.784374 303.02982 62.70625 302.56107Q62.64375 302.21732 62.64375 301.2017L62.64375 298.02982L61.76875 298.02982L61.76875 296.49857L62.64375 296.49857L62.64375 295.06107L64.56563 293.93607L64.56563 296.49857L65.87813 296.49857ZM67.55 295.5142L67.55 293.74857L69.47188 293.74857L69.47188 295.5142L67.55 295.5142ZM67.55 303.7642L67.55 296.49857L69.47188 296.49857L69.47188 303.7642L67.55 303.7642ZM71.1125 300.02982Q71.1125 299.0767 71.58125 298.18607Q72.05 297.27982 72.90938 296.81107Q73.78438 296.34232 74.84688 296.34232Q76.50313 296.34232 77.55 297.42044Q78.59688 298.48294 78.59688 300.10794Q78.59688 301.7642 77.53438 302.85794Q76.47188 303.93607 74.8625 303.93607Q73.8625 303.93607 72.95625 303.48294Q72.05 303.02982 71.58125 302.15482Q71.1125 301.27982 71.1125 300.02982ZM73.08125 300.1392Q73.08125 301.21732 73.59688 301.79544Q74.1125 302.35794 74.8625 302.35794Q75.6125 302.35794 76.1125 301.79544Q76.62813 301.21732 76.62813 300.12357Q76.62813 299.06107 76.1125 298.48294Q75.6125 297.90482 74.8625 297.90482Q74.1125 297.90482 73.59688 298.48294Q73.08125 299.06107 73.08125 300.1392ZM87.15938 303.7642L85.2375 303.7642L85.2375 300.06107Q85.2375 298.8892 85.1125 298.54544Q84.9875 298.18607 84.70625 297.99857Q84.44063 297.81107 84.05 297.81107Q83.55 297.81107 83.14375 298.09232Q82.75313 298.35794 82.59688 298.81107Q82.45625 299.2642 82.45625 300.48294L82.45625 303.7642L80.53438 303.7642L80.53438 296.49857L82.33125 296.49857L82.33125 297.5767Q83.26875 296.34232 84.72188 296.34232Q85.34688 296.34232 85.87813 296.5767Q86.40938 296.79544 86.675 297.15482Q86.94063 297.5142 87.05 297.96732Q87.15938 298.40482 87.15938 299.24857L87.15938 303.7642Z" fill-rule="nonzero"/><path fill="#9e9e9e" d="M25.628124 321.98294L25.628124 323.7642L18.89375 323.7642Q19.003124 322.74857 19.55 321.84232Q20.096874 320.93607 21.721874 319.43607Q23.01875 318.23294 23.315624 317.79544Q23.70625 317.2017 23.70625 316.62357Q23.70625 315.98294 23.3625 315.6392Q23.01875 315.29544 22.409374 315.29544Q21.8 315.29544 21.440624 315.65482Q21.096874 316.0142 21.034374 316.85794L19.128124 316.67044Q19.3 315.0767 20.190624 314.3892Q21.096874 313.7017 22.45625 313.7017Q23.940624 313.7017 24.784374 314.49857Q25.628124 315.29544 25.628124 316.48294Q25.628124 317.17044 25.378124 317.77982Q25.14375 318.3892 24.628124 319.06107Q24.26875 319.49857 23.3625 320.34232Q22.45625 321.17044 22.20625 321.4517Q21.971874 321.71732 21.815624 321.98294L25.628124 321.98294ZM27.175 321.18607L29.08125 320.98294Q29.175 321.6392 29.565624 322.0142Q29.971874 322.3892 30.503124 322.3892Q31.096874 322.3892 31.51875 321.90482Q31.940624 321.42044 31.940624 320.43607Q31.940624 319.5142 31.51875 319.06107Q31.1125 318.59232 30.440624 318.59232Q29.6125 318.59232 28.95625 319.3267L27.409374 319.09232L28.39375 313.87357L33.471874 313.87357L33.471874 315.67044L29.846874 315.67044L29.55 317.37357Q30.190624 317.06107 30.8625 317.06107Q32.128124 317.06107 33.01875 317.99857Q33.909374 318.92044 33.909374 320.40482Q33.909374 321.6392 33.190624 322.60794Q32.221874 323.93607 30.4875 323.93607Q29.096874 323.93607 28.221874 323.2017Q27.346874 322.4517 27.175 321.18607ZM35.55 323.7642L35.55 321.84232L37.471874 321.84232L37.471874 323.7642L35.55 323.7642ZM42.39375 313.7017Q43.846874 313.7017 44.675 314.73294Q45.64375 315.96732 45.64375 318.8267Q45.64375 321.67044 44.659374 322.90482Q43.846874 323.93607 42.39375 323.93607Q40.925 323.93607 40.034374 322.81107Q39.14375 321.68607 39.14375 318.79544Q39.14375 315.96732 40.128124 314.73294Q40.940624 313.7017 42.39375 313.7017ZM42.39375 315.29544Q42.05 315.29544 41.76875 315.5142Q41.503124 315.73294 41.346874 316.31107Q41.14375 317.06107 41.14375 318.8267Q41.14375 320.59232 41.315624 321.24857Q41.503124 321.90482 41.76875 322.12357Q42.05 322.34232 42.39375 322.34232Q42.7375 322.34232 43.003124 322.12357Q43.284374 321.90482 43.440624 321.3267Q43.64375 320.59232 43.64375 318.8267Q43.64375 317.06107 43.45625 316.40482Q43.284374 315.73294 43.003124 315.5142Q42.7375 315.29544 42.39375 315.29544ZM47.159374 316.21732Q47.159374 314.87357 47.753124 314.23294Q48.346874 313.5767 49.346874 313.5767Q50.39375 313.5767 50.9875 314.21732Q51.58125 314.85794 51.58125 316.21732Q51.58125 317.56107 50.9875 318.21732Q50.39375 318.85794 49.39375 318.85794Q48.346874 318.85794 47.753124 318.21732Q47.159374 317.5767 47.159374 316.21732ZM48.659374 316.2017Q48.659374 317.18607 48.878124 317.5142Q49.05 317.7642 49.346874 317.7642Q49.659374 317.7642 49.83125 317.5142Q50.05 317.18607 50.05 316.2017Q50.05 315.23294 49.83125 314.90482Q49.659374 314.6392 49.346874 314.6392Q49.05 314.6392 48.878124 314.8892Q48.659374 315.23294 48.659374 316.2017ZM50.815624 324.15482L49.39375 324.15482L54.7375 313.5767L56.1125 313.5767L50.815624 324.15482ZM53.925 321.5142Q53.925 320.17044 54.503124 319.52982Q55.096874 318.87357 56.128124 318.87357Q57.159374 318.87357 57.753124 319.52982Q58.346874 320.17044 58.346874 321.5142Q58.346874 322.87357 57.753124 323.52982Q57.159374 324.17044 56.14375 324.17044Q55.096874 324.17044 54.503124 323.52982Q53.925 322.87357 53.925 321.5142ZM55.409374 321.5142Q55.409374 322.48294 55.64375 322.81107Q55.815624 323.06107 56.1125 323.06107Q56.425 323.06107 56.58125 322.8267Q56.815624 322.48294 56.815624 321.5142Q56.815624 320.52982 56.596874 320.2017Q56.425 319.9517 56.1125 319.9517Q55.8 319.9517 55.64375 320.2017Q55.409374 320.52982 55.409374 321.5142Z" fill-rule="nonzero"/><path stroke="#757575" stroke-width="1.0" stroke-linecap="butt" d="M18.55 309.2642L143.73334 309.2642L205.59552 309.2642" fill-rule="nonzero"/><path fill="#9e9e9e" d="M207.59552 309.2642C207.59552 308.1596 206.7001 307.2642 205.59552 307.2642C204.49095 307.2642 203.59552 308.1596 203.59552 309.2642C203.59552 310.36874 204.49095 311.2642 205.59552 311.2642C206.7001 311.2642 207.59552 310.36874 207.59552 309.2642" fill-rule="nonzero"/><path fill="#1a1a1a" d="M511.95 61.65104L513.91876 61.46354Q514.10626 62.447914 514.6375 62.916664Q515.1844 63.385414 516.10626 63.385414Q517.09064 63.385414 517.575 62.979164Q518.075 62.55729 518.075 62.010414Q518.075 61.65104 517.8719 61.40104Q517.66876 61.15104 517.1375 60.96354Q516.79376 60.83854 515.52814 60.52604Q513.90314 60.11979 513.2469 59.541664Q512.325 58.71354 512.325 57.52604Q512.325 56.760414 512.7469 56.08854Q513.1844 55.416664 513.9969 55.072914Q514.825 54.729164 515.98126 54.729164Q517.85626 54.729164 518.8094 55.55729Q519.7625 56.385414 519.825 57.760414L517.79376 57.854164Q517.66876 57.072914 517.23126 56.74479Q516.8094 56.40104 515.95 56.40104Q515.075 56.40104 514.575 56.760414Q514.2469 56.99479 514.2469 57.385414Q514.2469 57.74479 514.5594 57.99479Q514.9344 58.30729 516.40314 58.666664Q517.8875 59.010414 518.59064 59.385414Q519.3094 59.760414 519.7 60.40104Q520.10626 61.041664 520.10626 61.99479Q520.10626 62.854164 519.6219 63.61979Q519.15314 64.36979 518.27814 64.729164Q517.40314 65.08854 516.09064 65.08854Q514.1844 65.08854 513.16876 64.21354Q512.15314 63.33854 511.95 61.65104ZM525.65314 62.604164L527.575 62.93229Q527.2 63.979164 526.40314 64.541664Q525.60626 65.08854 524.41876 65.08854Q522.52814 65.08854 521.60626 63.83854Q520.8875 62.854164 520.8875 61.33854Q520.8875 59.541664 521.825 58.52604Q522.77814 57.49479 524.23126 57.49479Q525.84064 57.49479 526.77814 58.572914Q527.71564 59.635414 527.66876 61.83854L522.85626 61.83854Q522.8875 62.697914 523.325 63.18229Q523.77814 63.65104 524.4344 63.65104Q524.8875 63.65104 525.1844 63.40104Q525.4969 63.15104 525.65314 62.604164ZM525.7625 60.666664Q525.7469 59.822914 525.34064 59.40104Q524.9344 58.96354 524.34064 58.96354Q523.71564 58.96354 523.29376 59.416664Q522.8875 59.885414 522.90314 60.666664L525.7625 60.666664ZM534.65314 62.604164L536.575 62.93229Q536.2 63.979164 535.40314 64.541664Q534.60626 65.08854 533.41876 65.08854Q531.52814 65.08854 530.60626 63.83854Q529.8875 62.854164 529.8875 61.33854Q529.8875 59.541664 530.825 58.52604Q531.77814 57.49479 533.23126 57.49479Q534.84064 57.49479 535.77814 58.572914Q536.71564 59.635414 536.66876 61.83854L531.85626 61.83854Q531.8875 62.697914 532.325 63.18229Q532.77814 63.65104 533.4344 63.65104Q533.8875 63.65104 534.1844 63.40104Q534.4969 63.15104 534.65314 62.604164ZM534.7625 60.666664Q534.7469 59.822914 534.34064 59.40104Q533.9344 58.96354 533.34064 58.96354Q532.71564 58.96354 532.29376 59.416664Q531.8875 59.885414 531.90314 60.666664L534.7625 60.666664ZM546.10626 64.916664L544.325 64.916664L544.325 63.854164Q543.8875 64.479164 543.27814 64.791664Q542.66876 65.08854 542.0594 65.08854Q540.8094 65.08854 539.91876 64.072914Q539.02814 63.05729 539.02814 61.260414Q539.02814 59.416664 539.8875 58.46354Q540.7625 57.49479 542.09064 57.49479Q543.3094 57.49479 544.2 58.510414L544.2 54.90104L546.10626 54.90104L546.10626 64.916664ZM540.98126 61.135414Q540.98126 62.291664 541.3094 62.80729Q541.77814 63.55729 542.60626 63.55729Q543.2625 63.55729 543.73126 62.99479Q544.2 62.43229 544.2 61.30729Q544.2 60.05729 543.7469 59.510414Q543.29376 58.96354 542.59064 58.96354Q541.90314 58.96354 541.4344 59.510414Q540.98126 60.041664 540.98126 61.135414ZM551.95 61.65104L553.91876 61.46354Q554.10626 62.447914 554.6375 62.916664Q555.1844 63.385414 556.10626 63.385414Q557.09064 63.385414 557.575 62.979164Q558.075 62.55729 558.075 62.010414Q558.075 61.65104 557.8719 61.40104Q557.66876 61.15104 557.1375 60.96354Q556.79376 60.83854 555.52814 60.52604Q553.90314 60.11979 553.2469 59.541664Q552.325 58.71354 552.325 57.52604Q552.325 56.760414 552.7469 56.08854Q553.1844 55.416664 553.9969 55.072914Q554.825 54.729164 555.98126 54.729164Q557.85626 54.729164 558.8094 55.55729Q559.7625 56.385414 559.825 57.760414L557.79376 57.854164Q557.66876 57.072914 557.23126 56.74479Q556.8094 56.40104 555.95 56.40104Q555.075 56.40104 554.575 56.760414Q554.2469 56.99479 554.2469 57.385414Q554.2469 57.74479 554.5594 57.99479Q554.9344 58.30729 556.40314 58.666664Q557.8875 59.010414 558.59064 59.385414Q559.3094 59.760414 559.7 60.40104Q560.10626 61.041664 560.10626 61.99479Q560.10626 62.854164 559.6219 63.61979Q559.15314 64.36979 558.27814 64.729164Q557.40314 65.08854 556.09064 65.08854Q554.1844 65.08854 553.16876 64.21354Q552.15314 63.33854 551.95 61.65104ZM562.8875 59.86979L561.15314 59.55729Q561.4344 58.510414 562.15314 58.010414Q562.8719 57.49479 564.29376 57.49479Q565.575 57.49479 566.2 57.80729Q566.84064 58.104164 567.09064 58.572914Q567.34064 59.041664 567.34064 60.291664L567.325 62.52604Q567.325 63.49479 567.41876 63.947914Q567.5125 64.40104 567.7625 64.916664L565.8719 64.916664Q565.79376 64.729164 565.6844 64.354164Q565.6375 64.18229 565.60626 64.11979Q565.1219 64.604164 564.5594 64.854164Q563.9969 65.08854 563.35626 65.08854Q562.2469 65.08854 561.59064 64.479164Q560.95 63.86979 560.95 62.93229Q560.95 62.322914 561.2469 61.83854Q561.54376 61.354164 562.0594 61.104164Q562.59064 60.83854 563.59064 60.65104Q564.9344 60.40104 565.46564 60.18229L565.46564 59.99479Q565.46564 59.43229 565.1844 59.197914Q564.91876 58.96354 564.15314 58.96354Q563.6375 58.96354 563.35626 59.166664Q563.075 59.36979 562.8875 59.86979ZM565.46564 61.43229Q565.09064 61.55729 564.29376 61.729164Q563.4969 61.90104 563.2469 62.05729Q562.8719 62.322914 562.8719 62.729164Q562.8719 63.135414 563.16876 63.43229Q563.46564 63.729164 563.9344 63.729164Q564.45 63.729164 564.9344 63.385414Q565.27814 63.11979 565.3875 62.74479Q565.46564 62.510414 565.46564 61.80729L565.46564 61.43229ZM569.45 64.916664L569.45 54.90104L571.3719 54.90104L571.3719 64.916664L569.45 64.916664ZM577.65314 62.604164L579.575 62.93229Q579.2 63.979164 578.40314 64.541664Q577.60626 65.08854 576.41876 65.08854Q574.52814 65.08854 573.60626 63.83854Q572.8875 62.854164 572.8875 61.33854Q572.8875 59.541664 573.825 58.52604Q574.77814 57.49479 576.23126 57.49479Q577.84064 57.49479 578.77814 58.572914Q579.71564 59.635414 579.66876 61.83854L574.85626 61.83854Q574.8875 62.697914 575.325 63.18229Q575.77814 63.65104 576.4344 63.65104Q576.8875 63.65104 577.1844 63.40104Q577.4969 63.15104 577.65314 62.604164ZM577.7625 60.666664Q577.7469 59.822914 577.34064 59.40104Q576.9344 58.96354 576.34064 58.96354Q575.71564 58.96354 575.29376 59.416664Q574.8875 59.885414 574.90314 60.666664L577.7625 60.666664Z" fill-rule="nonzero"/><path fill="#9e9e9e" d="M555.8094 84.916664L555.8094 82.90104L551.71564 82.90104L551.71564 81.21354L556.0594 74.854164L557.66876 74.854164L557.66876 81.21354L558.91876 81.21354L558.91876 82.90104L557.66876 82.90104L557.66876 84.916664L555.8094 84.916664ZM555.8094 81.21354L555.8094 77.791664L553.5125 81.21354L555.8094 81.21354ZM560.45 84.916664L560.45 82.99479L562.3719 82.99479L562.3719 84.916664L560.45 84.916664ZM567.29376 74.854164Q568.7469 74.854164 569.575 75.885414Q570.54376 77.11979 570.54376 79.979164Q570.54376 82.822914 569.5594 84.05729Q568.7469 85.08854 567.29376 85.08854Q565.825 85.08854 564.9344 83.96354Q564.04376 82.83854 564.04376 79.947914Q564.04376 77.11979 565.02814 75.885414Q565.84064 74.854164 567.29376 74.854164ZM567.29376 76.447914Q566.95 76.447914 566.66876 76.666664Q566.40314 76.885414 566.2469 77.46354Q566.04376 78.21354 566.04376 79.979164Q566.04376 81.74479 566.21564 82.40104Q566.40314 83.05729 566.66876 83.27604Q566.95 83.49479 567.29376 83.49479Q567.6375 83.49479 567.90314 83.27604Q568.1844 83.05729 568.34064 82.479164Q568.54376 81.74479 568.54376 79.979164Q568.54376 78.21354 568.35626 77.55729Q568.1844 76.885414 567.90314 76.666664Q567.6375 76.447914 567.29376 76.447914ZM572.0594 77.36979Q572.0594 76.02604 572.65314 75.385414Q573.2469 74.729164 574.2469 74.729164Q575.29376 74.729164 575.8875 75.36979Q576.48126 76.010414 576.48126 77.36979Q576.48126 78.71354 575.8875 79.36979Q575.29376 80.010414 574.29376 80.010414Q573.2469 80.010414 572.65314 79.36979Q572.0594 78.729164 572.0594 77.36979ZM573.5594 77.354164Q573.5594 78.33854 573.77814 78.666664Q573.95 78.916664 574.2469 78.916664Q574.5594 78.916664 574.73126 78.666664Q574.95 78.33854 574.95 77.354164Q574.95 76.385414 574.73126 76.05729Q574.5594 75.791664 574.2469 75.791664Q573.95 75.791664 573.77814 76.041664Q573.5594 76.385414 573.5594 77.354164ZM575.71564 85.30729L574.29376 85.30729L579.6375 74.729164L581.0125 74.729164L575.71564 85.30729ZM578.825 82.666664Q578.825 81.322914 579.40314 80.68229Q579.9969 80.02604 581.02814 80.02604Q582.0594 80.02604 582.65314 80.68229Q583.2469 81.322914 583.2469 82.666664Q583.2469 84.02604 582.65314 84.68229Q582.0594 85.322914 581.04376 85.322914Q579.9969 85.322914 579.40314 84.68229Q578.825 84.02604 578.825 82.666664ZM580.3094 82.666664Q580.3094 83.635414 580.54376 83.96354Q580.71564 84.21354 581.0125 84.21354Q581.325 84.21354 581.48126 83.979164Q581.71564 83.635414 581.71564 82.666664Q581.71564 81.68229 581.4969 81.354164Q581.325 81.104164 581.0125 81.104164Q580.7 81.104164 580.54376 81.354164Q580.3094 81.68229 580.3094 82.666664Z" fill-rule="nonzero"/><path stroke="#757575" stroke-width="1.0" stroke-linecap="butt" d="M581.45 70.416664L456.26666 70.416664L317.89172 60.555653" fill-rule="nonzero"/><path fill="#9e9e9e" d="M319.89172 60.555653C319.89172 59.451084 318.9963 58.555653 317.89172 58.555653C316.78717 58.555653 315.89172 59.451084 315.89172 60.555653C315.89172 61.66022 316.78717 62.555653 317.89172 62.555653C318.9963 62.555653 319.89172 61.66022 319.89172 60.555653" fill-rule="nonzero"/><path fill="#1a1a1a" d="M498.46564 101.916664L498.46564 91.90104L501.71564 91.90104Q503.5594 91.90104 504.1219 92.041664Q504.98126 92.27604 505.5594 93.02604Q506.15314 93.77604 506.15314 94.979164Q506.15314 95.90104 505.8094 96.52604Q505.48126 97.15104 504.96564 97.510414Q504.45 97.86979 503.90314 97.99479Q503.1844 98.135414 501.8094 98.135414L500.4969 98.135414L500.4969 101.916664L498.46564 101.916664ZM500.4969 93.58854L500.4969 96.43229L501.60626 96.43229Q502.79376 96.43229 503.2 96.27604Q503.60626 96.11979 503.825 95.791664Q504.0594 95.447914 504.0594 95.010414Q504.0594 94.46354 503.73126 94.104164Q503.41876 93.74479 502.91876 93.65104Q502.5594 93.58854 501.46564 93.58854L500.4969 93.58854ZM509.29376 101.916664L507.3719 101.916664L507.3719 94.65104L509.15314 94.65104L509.15314 95.68229Q509.6219 94.96354 509.98126 94.729164Q510.34064 94.49479 510.8094 94.49479Q511.46564 94.49479 512.075 94.854164L511.48126 96.52604Q510.9969 96.21354 510.575 96.21354Q510.16876 96.21354 509.8875 96.447914Q509.6219 96.666664 509.45 97.24479Q509.29376 97.822914 509.29376 99.666664L509.29376 101.916664ZM513.45 93.666664L513.45 91.90104L515.3719 91.90104L515.3719 93.666664L513.45 93.666664ZM513.45 101.916664L513.45 94.65104L515.3719 94.65104L515.3719 101.916664L513.45 101.916664ZM519.45 101.916664L516.52814 94.65104L518.54376 94.65104L519.90314 98.354164L520.3094 99.604164Q520.46564 99.11979 520.4969 98.979164Q520.60626 98.666664 520.71564 98.354164L522.09064 94.65104L524.0594 94.65104L521.1844 101.916664L519.45 101.916664ZM527.8875 96.86979L526.15314 96.55729Q526.4344 95.510414 527.15314 95.010414Q527.8719 94.49479 529.29376 94.49479Q530.575 94.49479 531.2 94.80729Q531.84064 95.104164 532.09064 95.572914Q532.34064 96.041664 532.34064 97.291664L532.325 99.52604Q532.325 100.49479 532.41876 100.947914Q532.5125 101.40104 532.7625 101.916664L530.8719 101.916664Q530.79376 101.729164 530.6844 101.354164Q530.6375 101.18229 530.60626 101.11979Q530.1219 101.604164 529.5594 101.854164Q528.9969 102.08854 528.35626 102.08854Q527.2469 102.08854 526.59064 101.479164Q525.95 100.86979 525.95 99.93229Q525.95 99.322914 526.2469 98.83854Q526.54376 98.354164 527.0594 98.104164Q527.59064 97.83854 528.59064 97.65104Q529.9344 97.40104 530.46564 97.18229L530.46564 96.99479Q530.46564 96.43229 530.1844 96.197914Q529.91876 95.96354 529.15314 95.96354Q528.6375 95.96354 528.35626 96.166664Q528.075 96.36979 527.8875 96.86979ZM530.46564 98.43229Q530.09064 98.55729 529.29376 98.729164Q528.4969 98.90104 528.2469 99.05729Q527.8719 99.322914 527.8719 99.729164Q527.8719 100.135414 528.16876 100.43229Q528.46564 100.729164 528.9344 100.729164Q529.45 100.729164 529.9344 100.385414Q530.27814 100.11979 530.3875 99.74479Q530.46564 99.510414 530.46564 98.80729L530.46564 98.43229ZM537.77814 94.65104L537.77814 96.18229L536.46564 96.18229L536.46564 99.11979Q536.46564 99.99479 536.4969 100.15104Q536.54376 100.291664 536.66876 100.40104Q536.8094 100.49479 537.0125 100.49479Q537.27814 100.49479 537.77814 100.30729L537.9344 101.791664Q537.27814 102.08854 536.41876 102.08854Q535.90314 102.08854 535.48126 101.916664Q535.075 101.729164 534.8719 101.46354Q534.6844 101.18229 534.60626 100.71354Q534.54376 100.36979 534.54376 99.354164L534.54376 96.18229L533.66876 96.18229L533.66876 94.65104L534.54376 94.65104L534.54376 93.21354L536.46564 92.08854L536.46564 94.65104L537.77814 94.65104ZM543.65314 99.604164L545.575 99.93229Q545.2 100.979164 544.40314 101.541664Q543.60626 102.08854 542.41876 102.08854Q540.52814 102.08854 539.60626 100.83854Q538.8875 99.854164 538.8875 98.33854Q538.8875 96.541664 539.825 95.52604Q540.77814 94.49479 542.23126 94.49479Q543.84064 94.49479 544.77814 95.572914Q545.71564 96.635414 545.66876 98.83854L540.85626 98.83854Q540.8875 99.697914 541.325 100.18229Q541.77814 100.65104 542.4344 100.65104Q542.8875 100.65104 543.1844 100.40104Q543.4969 100.15104 543.65314 99.604164ZM543.7625 97.666664Q543.7469 96.822914 543.34064 96.40104Q542.9344 95.96354 542.34064 95.96354Q541.71564 95.96354 541.29376 96.416664Q540.8875 96.885414 540.90314 97.666664L543.7625 97.666664ZM551.95 98.65104L553.91876 98.46354Q554.10626 99.447914 554.6375 99.916664Q555.1844 100.385414 556.10626 100.385414Q557.09064 100.385414 557.575 99.979164Q558.075 99.55729 558.075 99.010414Q558.075 98.65104 557.8719 98.40104Q557.66876 98.15104 557.1375 97.96354Q556.79376 97.83854 555.52814 97.52604Q553.90314 97.11979 553.2469 96.541664Q552.325 95.71354 552.325 94.52604Q552.325 93.760414 552.7469 93.08854Q553.1844 92.416664 553.9969 92.072914Q554.825 91.729164 555.98126 91.729164Q557.85626 91.729164 558.8094 92.55729Q559.7625 93.385414 559.825 94.760414L557.79376 94.854164Q557.66876 94.072914 557.23126 93.74479Q556.8094 93.40104 555.95 93.40104Q555.075 93.40104 554.575 93.760414Q554.2469 93.99479 554.2469 94.385414Q554.2469 94.74479 554.5594 94.99479Q554.9344 95.30729 556.40314 95.666664Q557.8875 96.010414 558.59064 96.385414Q559.3094 96.760414 559.7 97.40104Q560.10626 98.041664 560.10626 98.99479Q560.10626 99.854164 559.6219 100.61979Q559.15314 101.36979 558.27814 101.729164Q557.40314 102.08854 556.09064 102.08854Q554.1844 102.08854 553.16876 101.21354Q552.15314 100.33854 551.95 98.65104ZM562.8875 96.86979L561.15314 96.55729Q561.4344 95.510414 562.15314 95.010414Q562.8719 94.49479 564.29376 94.49479Q565.575 94.49479 566.2 94.80729Q566.84064 95.104164 567.09064 95.572914Q567.34064 96.041664 567.34064 97.291664L567.325 99.52604Q567.325 100.49479 567.41876 100.947914Q567.5125 101.40104 567.7625 101.916664L565.8719 101.916664Q565.79376 101.729164 565.6844 101.354164Q565.6375 101.18229 565.60626 101.11979Q565.1219 101.604164 564.5594 101.854164Q563.9969 102.08854 563.35626 102.08854Q562.2469 102.08854 561.59064 101.479164Q560.95 100.86979 560.95 99.93229Q560.95 99.322914 561.2469 98.83854Q561.54376 98.354164 562.0594 98.104164Q562.59064 97.83854 563.59064 97.65104Q564.9344 97.40104 565.46564 97.18229L565.46564 96.99479Q565.46564 96.43229 565.1844 96.197914Q564.91876 95.96354 564.15314 95.96354Q563.6375 95.96354 563.35626 96.166664Q563.075 96.36979 562.8875 96.86979ZM565.46564 98.43229Q565.09064 98.55729 564.29376 98.729164Q563.4969 98.90104 563.2469 99.05729Q562.8719 99.322914 562.8719 99.729164Q562.8719 100.135414 563.16876 100.43229Q563.46564 100.729164 563.9344 100.729164Q564.45 100.729164 564.9344 100.385414Q565.27814 100.11979 565.3875 99.74479Q565.46564 99.510414 565.46564 98.80729L565.46564 98.43229ZM569.45 101.916664L569.45 91.90104L571.3719 91.90104L571.3719 101.916664L569.45 101.916664ZM577.65314 99.604164L579.575 99.93229Q579.2 100.979164 578.40314 101.541664Q577.60626 102.08854 576.41876 102.08854Q574.52814 102.08854 573.60626 100.83854Q572.8875 99.854164 572.8875 98.33854Q572.8875 96.541664 573.825 95.52604Q574.77814 94.49479 576.23126 94.49479Q577.84064 94.49479 578.77814 95.572914Q579.71564 96.635414 579.66876 98.83854L574.85626 98.83854Q574.8875 99.697914 575.325 100.18229Q575.77814 100.65104 576.4344 100.65104Q576.8875 100.65104 577.1844 100.40104Q577.4969 100.15104 577.65314 99.604164ZM577.7625 97.666664Q577.7469 96.822914 577.34064 96.40104Q576.9344 95.96354 576.34064 95.96354Q575.71564 95.96354 575.29376 96.416664Q574.8875 96.885414 574.90314 97.666664L577.7625 97.666664Z" fill-rule="nonzero"/><path fill="#9e9e9e" d="M548.96564 121.916664L547.04376 121.916664L547.04376 114.68229Q545.98126 115.666664 544.5594 116.135414L544.5594 114.385414Q545.3094 114.15104 546.1844 113.46354Q547.075 112.77604 547.40314 111.854164L548.96564 111.854164L548.96564 121.916664ZM556.96564 121.916664L555.04376 121.916664L555.04376 114.68229Q553.98126 115.666664 552.5594 116.135414L552.5594 114.385414Q553.3094 114.15104 554.1844 113.46354Q555.075 112.77604 555.40314 111.854164L556.96564 111.854164L556.96564 121.916664ZM560.45 121.916664L560.45 119.99479L562.3719 119.99479L562.3719 121.916664L560.45 121.916664ZM567.29376 111.854164Q568.7469 111.854164 569.575 112.885414Q570.54376 114.11979 570.54376 116.979164Q570.54376 119.822914 569.5594 121.05729Q568.7469 122.08854 567.29376 122.08854Q565.825 122.08854 564.9344 120.96354Q564.04376 119.83854 564.04376 116.947914Q564.04376 114.11979 565.02814 112.885414Q565.84064 111.854164 567.29376 111.854164ZM567.29376 113.447914Q566.95 113.447914 566.66876 113.666664Q566.40314 113.885414 566.2469 114.46354Q566.04376 115.21354 566.04376 116.979164Q566.04376 118.74479 566.21564 119.40104Q566.40314 120.05729 566.66876 120.27604Q566.95 120.49479 567.29376 120.49479Q567.6375 120.49479 567.90314 120.27604Q568.1844 120.05729 568.34064 119.479164Q568.54376 118.74479 568.54376 116.979164Q568.54376 115.21354 568.35626 114.55729Q568.1844 113.885414 567.90314 113.666664Q567.6375 113.447914 567.29376 113.447914ZM572.0594 114.36979Q572.0594 113.02604 572.65314 112.385414Q573.2469 111.729164 574.2469 111.729164Q575.29376 111.729164 575.8875 112.36979Q576.48126 113.010414 576.48126 114.36979Q576.48126 115.71354 575.8875 116.36979Q575.29376 117.010414 574.29376 117.010414Q573.2469 117.010414 572.65314 116.36979Q572.0594 115.729164 572.0594 114.36979ZM573.5594 114.354164Q573.5594 115.33854 573.77814 115.666664Q573.95 115.916664 574.2469 115.916664Q574.5594 115.916664 574.73126 115.666664Q574.95 115.33854 574.95 114.354164Q574.95 113.385414 574.73126 113.05729Q574.5594 112.791664 574.2469 112.791664Q573.95 112.791664 573.77814 113.041664Q573.5594 113.385414 573.5594 114.354164ZM575.71564 122.30729L574.29376 122.30729L579.6375 111.729164L581.0125 111.729164L575.71564 122.30729ZM578.825 119.666664Q578.825 118.322914 579.40314 117.68229Q579.9969 117.02604 581.02814 117.02604Q582.0594 117.02604 582.65314 117.68229Q583.2469 118.322914 583.2469 119.666664Q583.2469 121.02604 582.65314 121.68229Q582.0594 122.322914 581.04376 122.322914Q579.9969 122.322914 579.40314 121.68229Q578.825 121.02604 578.825 119.666664ZM580.3094 119.666664Q580.3094 120.635414 580.54376 120.96354Q580.71564 121.21354 581.0125 121.21354Q581.325 121.21354 581.48126 120.979164Q581.71564 120.635414 581.71564 119.666664Q581.71564 118.68229 581.4969 118.354164Q581.325 118.104164 581.0125 118.104164Q580.7 118.104164 580.54376 118.354164Q580.3094 118.68229 580.3094 119.666664Z" fill-rule="nonzero"/><path stroke="#757575" stroke-width="1.0" stroke-linecap="butt" d="M581.45 107.416664L456.26666 107.416664L380.2393 84.11482" fill-rule="nonzero"/><path fill="#9e9e9e" d="M382.2393 84.11482C382.2393 83.010254 381.34384 82.11482 380.2393 82.11482C379.1347 82.11482 378.2393 83.010254 378.2393 84.11482C378.2393 85.21939 379.1347 86.11482 380.2393 86.11482C381.34384 86.11482 382.2393 85.21939 382.2393 84.11482" fill-rule="nonzero"/><path fill="#1a1a1a" d="M557.40314 152.57013L557.40314 142.5545L559.4344 142.5545L559.4344 152.57013L557.40314 152.57013ZM561.46564 142.5545L565.15314 142.5545Q566.41876 142.5545 567.075 142.742Q567.95 142.992 568.575 143.66388Q569.2 144.32013 569.52814 145.28888Q569.85626 146.242 569.85626 147.64825Q569.85626 148.89825 569.5594 149.78888Q569.1844 150.88263 568.48126 151.5545Q567.95 152.07013 567.0594 152.35138Q566.3875 152.57013 565.2625 152.57013L561.46564 152.57013L561.46564 142.5545ZM563.48126 144.242L563.48126 150.88263L564.9969 150.88263Q565.84064 150.88263 566.21564 150.78888Q566.71564 150.66388 567.02814 150.367Q567.35626 150.07013 567.5594 149.39825Q567.77814 148.72638 567.77814 147.57013Q567.77814 146.39825 567.5594 145.78888Q567.35626 145.16388 566.98126 144.82013Q566.6219 144.46075 566.0594 144.33575Q565.6375 144.242 564.3875 144.242L563.48126 144.242ZM571.0594 147.617Q571.0594 146.08575 571.5125 145.0545Q571.85626 144.28888 572.45 143.6795Q573.04376 143.07013 573.7469 142.77325Q574.6844 142.38263 575.90314 142.38263Q578.1219 142.38263 579.45 143.75763Q580.77814 145.13263 580.77814 147.57013Q580.77814 149.992 579.45 151.367Q578.1375 152.742 575.9344 152.742Q573.7 152.742 572.3719 151.38263Q571.0594 150.00763 571.0594 147.617ZM573.1375 147.5545Q573.1375 149.25763 573.91876 150.13263Q574.71564 151.00763 575.91876 151.00763Q577.1375 151.00763 577.90314 150.14825Q578.6844 149.27325 578.6844 147.52325Q578.6844 145.8045 577.9344 144.96075Q577.1844 144.10138 575.91876 144.10138Q574.66876 144.10138 573.90314 144.96075Q573.1375 145.82013 573.1375 147.5545Z" fill-rule="nonzero"/><path fill="#9e9e9e" d="M548.96564 172.57013L547.04376 172.57013L547.04376 165.33575Q545.98126 166.32013 544.5594 166.78888L544.5594 165.03888Q545.3094 164.8045 546.1844 164.117Q547.075 163.4295 547.40314 162.50763L548.96564 162.50763L548.96564 172.57013ZM555.29376 162.50763Q556.7469 162.50763 557.575 163.53888Q558.54376 164.77325 558.54376 167.63263Q558.54376 170.47638 557.5594 171.71075Q556.7469 172.742 555.29376 172.742Q553.825 172.742 552.9344 171.617Q552.04376 170.492 552.04376 167.60138Q552.04376 164.77325 553.02814 163.53888Q553.84064 162.50763 555.29376 162.50763ZM555.29376 164.10138Q554.95 164.10138 554.66876 164.32013Q554.40314 164.53888 554.2469 165.117Q554.04376 165.867 554.04376 167.63263Q554.04376 169.39825 554.21564 170.0545Q554.40314 170.71075 554.66876 170.9295Q554.95 171.14825 555.29376 171.14825Q555.6375 171.14825 555.90314 170.9295Q556.1844 170.71075 556.34064 170.13263Q556.54376 169.39825 556.54376 167.63263Q556.54376 165.867 556.35626 165.21075Q556.1844 164.53888 555.90314 164.32013Q555.6375 164.10138 555.29376 164.10138ZM560.45 172.57013L560.45 170.64825L562.3719 170.64825L562.3719 172.57013L560.45 172.57013ZM567.29376 162.50763Q568.7469 162.50763 569.575 163.53888Q570.54376 164.77325 570.54376 167.63263Q570.54376 170.47638 569.5594 171.71075Q568.7469 172.742 567.29376 172.742Q565.825 172.742 564.9344 171.617Q564.04376 170.492 564.04376 167.60138Q564.04376 164.77325 565.02814 163.53888Q565.84064 162.50763 567.29376 162.50763ZM567.29376 164.10138Q566.95 164.10138 566.66876 164.32013Q566.40314 164.53888 566.2469 165.117Q566.04376 165.867 566.04376 167.63263Q566.04376 169.39825 566.21564 170.0545Q566.40314 170.71075 566.66876 170.9295Q566.95 171.14825 567.29376 171.14825Q567.6375 171.14825 567.90314 170.9295Q568.1844 170.71075 568.34064 170.13263Q568.54376 169.39825 568.54376 167.63263Q568.54376 165.867 568.35626 165.21075Q568.1844 164.53888 567.90314 164.32013Q567.6375 164.10138 567.29376 164.10138ZM572.0594 165.02325Q572.0594 163.6795 572.65314 163.03888Q573.2469 162.38263 574.2469 162.38263Q575.29376 162.38263 575.8875 163.02325Q576.48126 163.66388 576.48126 165.02325Q576.48126 166.367 575.8875 167.02325Q575.29376 167.66388 574.29376 167.66388Q573.2469 167.66388 572.65314 167.02325Q572.0594 166.38263 572.0594 165.02325ZM573.5594 165.00763Q573.5594 165.992 573.77814 166.32013Q573.95 166.57013 574.2469 166.57013Q574.5594 166.57013 574.73126 166.32013Q574.95 165.992 574.95 165.00763Q574.95 164.03888 574.73126 163.71075Q574.5594 163.44513 574.2469 163.44513Q573.95 163.44513 573.77814 163.69513Q573.5594 164.03888 573.5594 165.00763ZM575.71564 172.96075L574.29376 172.96075L579.6375 162.38263L581.0125 162.38263L575.71564 172.96075ZM578.825 170.32013Q578.825 168.97638 579.40314 168.33575Q579.9969 167.6795 581.02814 167.6795Q582.0594 167.6795 582.65314 168.33575Q583.2469 168.97638 583.2469 170.32013Q583.2469 171.6795 582.65314 172.33575Q582.0594 172.97638 581.04376 172.97638Q579.9969 172.97638 579.40314 172.33575Q578.825 171.6795 578.825 170.32013ZM580.3094 170.32013Q580.3094 171.28888 580.54376 171.617Q580.71564 171.867 581.0125 171.867Q581.325 171.867 581.48126 171.63263Q581.71564 171.28888 581.71564 170.32013Q581.71564 169.33575 581.4969 169.00763Q581.325 168.75763 581.0125 168.75763Q580.7 168.75763 580.54376 169.00763Q580.3094 169.33575 580.3094 170.32013Z" fill-rule="nonzero"/><path stroke="#757575" stroke-width="1.0" stroke-linecap="butt" d="M581.45 158.07013L456.26666 158.07013L435.76648 158.07013" fill-rule="nonzero"/><path fill="#9e9e9e" d="M437.76648 158.07013C437.76648 156.96556 436.87106 156.07013 435.76648 156.07013C434.66193 156.07013 433.76648 156.96556 433.76648 158.07013C433.76648 159.1747 434.66193 160.07013 435.76648 160.07013C436.87106 160.07013 437.76648 159.1747 437.76648 158.07013" fill-rule="nonzero"/><path fill="#1a1a1a" d="M529.95 254.19913L531.91876 254.01163Q532.10626 254.996 532.6375 255.46475Q533.1844 255.9335 534.10626 255.9335Q535.09064 255.9335 535.575 255.52725Q536.075 255.10538 536.075 254.5585Q536.075 254.19913 535.8719 253.94913Q535.66876 253.69913 535.1375 253.51163Q534.79376 253.38663 533.52814 253.07413Q531.90314 252.66788 531.2469 252.08975Q530.325 251.26163 530.325 250.07413Q530.325 249.3085 530.7469 248.63663Q531.1844 247.96475 531.9969 247.621Q532.825 247.27725 533.98126 247.27725Q535.85626 247.27725 536.8094 248.10538Q537.7625 248.9335 537.825 250.3085L535.79376 250.40225Q535.66876 249.621 535.23126 249.29288Q534.8094 248.94913 533.95 248.94913Q533.075 248.94913 532.575 249.3085Q532.2469 249.54288 532.2469 249.9335Q532.2469 250.29288 532.5594 250.54288Q532.9344 250.85538 534.40314 251.21475Q535.8875 251.5585 536.59064 251.9335Q537.3094 252.3085 537.7 252.94913Q538.10626 253.58975 538.10626 254.54288Q538.10626 255.40225 537.6219 256.16788Q537.15314 256.91788 536.27814 257.27725Q535.40314 257.63663 534.09064 257.63663Q532.1844 257.63663 531.16876 256.76163Q530.15314 255.88663 529.95 254.19913ZM542.77814 250.19913L542.77814 251.73038L541.46564 251.73038L541.46564 254.66788Q541.46564 255.54288 541.4969 255.69913Q541.54376 255.83975 541.66876 255.94913Q541.8094 256.04288 542.0125 256.04288Q542.27814 256.04288 542.77814 255.85538L542.9344 257.33975Q542.27814 257.63663 541.41876 257.63663Q540.90314 257.63663 540.48126 257.46475Q540.075 257.27725 539.8719 257.01163Q539.6844 256.73038 539.60626 256.26163Q539.54376 255.91788 539.54376 254.90225L539.54376 251.73038L538.66876 251.73038L538.66876 250.19913L539.54376 250.19913L539.54376 248.76163L541.46564 247.63663L541.46564 250.19913L542.77814 250.19913ZM545.8875 252.41788L544.15314 252.10538Q544.4344 251.0585 545.15314 250.5585Q545.8719 250.04288 547.29376 250.04288Q548.575 250.04288 549.2 250.35538Q549.84064 250.65225 550.09064 251.121Q550.34064 251.58975 550.34064 252.83975L550.325 255.07413Q550.325 256.04288 550.41876 256.496Q550.5125 256.94913 550.7625 257.46475L548.8719 257.46475Q548.79376 257.27725 548.6844 256.90225Q548.6375 256.73038 548.60626 256.66788Q548.1219 257.15225 547.5594 257.40225Q546.9969 257.63663 546.35626 257.63663Q545.2469 257.63663 544.59064 257.02725Q543.95 256.41788 543.95 255.48038Q543.95 254.871 544.2469 254.38663Q544.54376 253.90225 545.0594 253.65225Q545.59064 253.38663 546.59064 253.19913Q547.9344 252.94913 548.46564 252.73038L548.46564 252.54288Q548.46564 251.98038 548.1844 251.746Q547.91876 251.51163 547.15314 251.51163Q546.6375 251.51163 546.35626 251.71475Q546.075 251.91788 545.8875 252.41788ZM548.46564 253.98038Q548.09064 254.10538 547.29376 254.27725Q546.4969 254.44913 546.2469 254.60538Q545.8719 254.871 545.8719 255.27725Q545.8719 255.6835 546.16876 255.98038Q546.46564 256.27725 546.9344 256.27725Q547.45 256.27725 547.9344 255.9335Q548.27814 255.66788 548.3875 255.29288Q548.46564 255.0585 548.46564 254.35538L548.46564 253.98038ZM552.3875 257.46475L552.3875 247.44913L554.3094 247.44913L554.3094 252.76163L556.5594 250.19913L558.91876 250.19913L556.4344 252.85538L559.10626 257.46475L557.02814 257.46475L555.2 254.19913L554.3094 255.13663L554.3094 257.46475L552.3875 257.46475ZM560.45 249.21475L560.45 247.44913L562.3719 247.44913L562.3719 249.21475L560.45 249.21475ZM560.45 257.46475L560.45 250.19913L562.3719 250.19913L562.3719 257.46475L560.45 257.46475ZM571.0594 257.46475L569.1375 257.46475L569.1375 253.76163Q569.1375 252.58975 569.0125 252.246Q568.8875 251.88663 568.60626 251.69913Q568.34064 251.51163 567.95 251.51163Q567.45 251.51163 567.04376 251.79288Q566.65314 252.0585 566.4969 252.51163Q566.35626 252.96475 566.35626 254.1835L566.35626 257.46475L564.4344 257.46475L564.4344 250.19913L566.23126 250.19913L566.23126 251.27725Q567.16876 250.04288 568.6219 250.04288Q569.2469 250.04288 569.77814 250.27725Q570.3094 250.496 570.575 250.85538Q570.84064 251.21475 570.95 251.66788Q571.0594 252.10538 571.0594 252.94913L571.0594 257.46475ZM573.27814 257.94913L575.46564 258.21475Q575.52814 258.58975 575.73126 258.73038Q575.9969 258.94913 576.59064 258.94913Q577.34064 258.94913 577.71564 258.71475Q577.96564 258.5585 578.09064 258.23038Q578.1844 257.996 578.1844 257.35538L578.1844 256.29288Q577.325 257.46475 576.0125 257.46475Q574.54376 257.46475 573.7 256.23038Q573.02814 255.246 573.02814 253.79288Q573.02814 251.96475 573.90314 251.01163Q574.77814 250.04288 576.09064 250.04288Q577.4344 250.04288 578.3094 251.23038L578.3094 250.19913L580.10626 250.19913L580.10626 256.71475Q580.10626 258.01163 579.8875 258.63663Q579.6844 259.27725 579.29376 259.63663Q578.91876 259.996 578.27814 260.19913Q577.6375 260.41788 576.66876 260.41788Q574.8094 260.41788 574.04376 259.77725Q573.27814 259.15225 573.27814 258.1835Q573.27814 258.07413 573.27814 257.94913ZM574.9969 253.6835Q574.9969 254.83975 575.4344 255.38663Q575.8875 255.91788 576.54376 255.91788Q577.2469 255.91788 577.73126 255.371Q578.21564 254.8085 578.21564 253.73038Q578.21564 252.60538 577.7469 252.0585Q577.29376 251.51163 576.575 251.51163Q575.8875 251.51163 575.4344 252.0585Q574.9969 252.58975 574.9969 253.6835Z" fill-rule="nonzero"/><path fill="#9e9e9e" d="M548.96564 277.46475L547.04376 277.46475L547.04376 270.23038Q545.98126 271.21475 544.5594 271.6835L544.5594 269.9335Q545.3094 269.69913 546.1844 269.01163Q547.075 268.32413 547.40314 267.40225L548.96564 267.40225L548.96564 277.46475ZM555.8094 277.46475L555.8094 275.44913L551.71564 275.44913L551.71564 273.76163L556.0594 267.40225L557.66876 267.40225L557.66876 273.76163L558.91876 273.76163L558.91876 275.44913L557.66876 275.44913L557.66876 277.46475L555.8094 277.46475ZM555.8094 273.76163L555.8094 270.33975L553.5125 273.76163L555.8094 273.76163ZM560.45 277.46475L560.45 275.54288L562.3719 275.54288L562.3719 277.46475L560.45 277.46475ZM567.29376 267.40225Q568.7469 267.40225 569.575 268.4335Q570.54376 269.66788 570.54376 272.52725Q570.54376 275.371 569.5594 276.60538Q568.7469 277.63663 567.29376 277.63663Q565.825 277.63663 564.9344 276.51163Q564.04376 275.38663 564.04376 272.496Q564.04376 269.66788 565.02814 268.4335Q565.84064 267.40225 567.29376 267.40225ZM567.29376 268.996Q566.95 268.996 566.66876 269.21475Q566.40314 269.4335 566.2469 270.01163Q566.04376 270.76163 566.04376 272.52725Q566.04376 274.29288 566.21564 274.94913Q566.40314 275.60538 566.66876 275.82413Q566.95 276.04288 567.29376 276.04288Q567.6375 276.04288 567.90314 275.82413Q568.1844 275.60538 568.34064 275.02725Q568.54376 274.29288 568.54376 272.52725Q568.54376 270.76163 568.35626 270.10538Q568.1844 269.4335 567.90314 269.21475Q567.6375 268.996 567.29376 268.996ZM572.0594 269.91788Q572.0594 268.57413 572.65314 267.9335Q573.2469 267.27725 574.2469 267.27725Q575.29376 267.27725 575.8875 267.91788Q576.48126 268.5585 576.48126 269.91788Q576.48126 271.26163 575.8875 271.91788Q575.29376 272.5585 574.29376 272.5585Q573.2469 272.5585 572.65314 271.91788Q572.0594 271.27725 572.0594 269.91788ZM573.5594 269.90225Q573.5594 270.88663 573.77814 271.21475Q573.95 271.46475 574.2469 271.46475Q574.5594 271.46475 574.73126 271.21475Q574.95 270.88663 574.95 269.90225Q574.95 268.9335 574.73126 268.60538Q574.5594 268.33975 574.2469 268.33975Q573.95 268.33975 573.77814 268.58975Q573.5594 268.9335 573.5594 269.90225ZM575.71564 277.85538L574.29376 277.85538L579.6375 267.27725L581.0125 267.27725L575.71564 277.85538ZM578.825 275.21475Q578.825 273.871 579.40314 273.23038Q579.9969 272.57413 581.02814 272.57413Q582.0594 272.57413 582.65314 273.23038Q583.2469 273.871 583.2469 275.21475Q583.2469 276.57413 582.65314 277.23038Q582.0594 277.871 581.04376 277.871Q579.9969 277.871 579.40314 277.23038Q578.825 276.57413 578.825 275.21475ZM580.3094 275.21475Q580.3094 276.1835 580.54376 276.51163Q580.71564 276.76163 581.0125 276.76163Q581.325 276.76163 581.48126 276.52725Q581.71564 276.1835 581.71564 275.21475Q581.71564 274.23038 581.4969 273.90225Q581.325 273.65225 581.0125 273.65225Q580.7 273.65225 580.54376 273.90225Q580.3094 274.23038 580.3094 275.21475Z" fill-rule="nonzero"/><path stroke="#757575" stroke-width="1.0" stroke-linecap="butt" d="M581.45 262.96475L456.26666 262.96475L429.16708 262.96475" fill-rule="nonzero"/><path fill="#9e9e9e" d="M431.16708 262.96475C431.16708 261.86017 430.27164 260.96475 429.16708 260.96475C428.0625 260.96475 427.16708 261.86017 427.16708 262.96475C427.16708 264.0693 428.0625 264.96475 429.16708 264.96475C430.27164 264.96475 431.16708 264.0693 431.16708 262.96475" fill-rule="nonzero"/><path fill="#1a1a1a" d="M511.4344 328.45L511.4344 318.4344L514.46564 318.4344L516.29376 325.2625L518.09064 318.4344L521.1219 318.4344L521.1219 328.45L519.2469 328.45L519.2469 320.5594L517.2469 328.45L515.3094 328.45L513.325 320.5594L513.325 328.45L511.4344 328.45ZM525.8875 323.40314L524.15314 323.09064Q524.4344 322.04376 525.15314 321.54376Q525.8719 321.02814 527.29376 321.02814Q528.575 321.02814 529.2 321.34064Q529.84064 321.6375 530.09064 322.10626Q530.34064 322.575 530.34064 323.825L530.325 326.0594Q530.325 327.02814 530.41876 327.48126Q530.5125 327.9344 530.7625 328.45L528.8719 328.45Q528.79376 328.2625 528.6844 327.8875Q528.6375 327.71564 528.60626 327.65314Q528.1219 328.1375 527.5594 328.3875Q526.9969 328.6219 526.35626 328.6219Q525.2469 328.6219 524.59064 328.0125Q523.95 327.40314 523.95 326.46564Q523.95 325.85626 524.2469 325.3719Q524.54376 324.8875 525.0594 324.6375Q525.59064 324.3719 526.59064 324.1844Q527.9344 323.9344 528.46564 323.71564L528.46564 323.52814Q528.46564 322.96564 528.1844 322.73126Q527.91876 322.4969 527.15314 322.4969Q526.6375 322.4969 526.35626 322.7Q526.075 322.90314 525.8875 323.40314ZM528.46564 324.96564Q528.09064 325.09064 527.29376 325.2625Q526.4969 325.4344 526.2469 325.59064Q525.8719 325.85626 525.8719 326.2625Q525.8719 326.66876 526.16876 326.96564Q526.46564 327.2625 526.9344 327.2625Q527.45 327.2625 527.9344 326.91876Q528.27814 326.65314 528.3875 326.27814Q528.46564 326.04376 528.46564 325.34064L528.46564 324.96564ZM534.29376 328.45L532.3719 328.45L532.3719 321.1844L534.15314 321.1844L534.15314 322.21564Q534.6219 321.4969 534.98126 321.2625Q535.34064 321.02814 535.8094 321.02814Q536.46564 321.02814 537.075 321.3875L536.48126 323.0594Q535.9969 322.7469 535.575 322.7469Q535.16876 322.7469 534.8875 322.98126Q534.6219 323.2 534.45 323.77814Q534.29376 324.35626 534.29376 326.2L534.29376 328.45ZM538.3875 328.45L538.3875 318.4344L540.3094 318.4344L540.3094 323.7469L542.5594 321.1844L544.91876 321.1844L542.4344 323.84064L545.10626 328.45L543.02814 328.45L541.2 325.1844L540.3094 326.1219L540.3094 328.45L538.3875 328.45ZM550.65314 326.1375L552.575 326.46564Q552.2 327.5125 551.40314 328.075Q550.60626 328.6219 549.41876 328.6219Q547.52814 328.6219 546.60626 327.3719Q545.8875 326.3875 545.8875 324.8719Q545.8875 323.075 546.825 322.0594Q547.77814 321.02814 549.23126 321.02814Q550.84064 321.02814 551.77814 322.10626Q552.71564 323.16876 552.66876 325.3719L547.85626 325.3719Q547.8875 326.23126 548.325 326.71564Q548.77814 327.1844 549.4344 327.1844Q549.8875 327.1844 550.1844 326.9344Q550.4969 326.6844 550.65314 326.1375ZM550.7625 324.2Q550.7469 323.35626 550.34064 322.9344Q549.9344 322.4969 549.34064 322.4969Q548.71564 322.4969 548.29376 322.95Q547.8875 323.41876 547.90314 324.2L550.7625 324.2ZM558.77814 321.1844L558.77814 322.71564L557.46564 322.71564L557.46564 325.65314Q557.46564 326.52814 557.4969 326.6844Q557.54376 326.825 557.66876 326.9344Q557.8094 327.02814 558.0125 327.02814Q558.27814 327.02814 558.77814 326.84064L558.9344 328.325Q558.27814 328.6219 557.41876 328.6219Q556.90314 328.6219 556.48126 328.45Q556.075 328.2625 555.8719 327.9969Q555.6844 327.71564 555.60626 327.2469Q555.54376 326.90314 555.54376 325.8875L555.54376 322.71564L554.66876 322.71564L554.66876 321.1844L555.54376 321.1844L555.54376 319.7469L557.46564 318.6219L557.46564 321.1844L558.77814 321.1844ZM560.45 320.2L560.45 318.4344L562.3719 318.4344L562.3719 320.2L560.45 320.2ZM560.45 328.45L560.45 321.1844L562.3719 321.1844L562.3719 328.45L560.45 328.45ZM571.0594 328.45L569.1375 328.45L569.1375 324.7469Q569.1375 323.575 569.0125 323.23126Q568.8875 322.8719 568.60626 322.6844Q568.34064 322.4969 567.95 322.4969Q567.45 322.4969 567.04376 322.77814Q566.65314 323.04376 566.4969 323.4969Q566.35626 323.95 566.35626 325.16876L566.35626 328.45L564.4344 328.45L564.4344 321.1844L566.23126 321.1844L566.23126 322.2625Q567.16876 321.02814 568.6219 321.02814Q569.2469 321.02814 569.77814 321.2625Q570.3094 321.48126 570.575 321.84064Q570.84064 322.2 570.95 322.65314Q571.0594 323.09064 571.0594 323.9344L571.0594 328.45ZM573.27814 328.9344L575.46564 329.2Q575.52814 329.575 575.73126 329.71564Q575.9969 329.9344 576.59064 329.9344Q577.34064 329.9344 577.71564 329.7Q577.96564 329.54376 578.09064 329.21564Q578.1844 328.98126 578.1844 328.34064L578.1844 327.27814Q577.325 328.45 576.0125 328.45Q574.54376 328.45 573.7 327.21564Q573.02814 326.23126 573.02814 324.77814Q573.02814 322.95 573.90314 321.9969Q574.77814 321.02814 576.09064 321.02814Q577.4344 321.02814 578.3094 322.21564L578.3094 321.1844L580.10626 321.1844L580.10626 327.7Q580.10626 328.9969 579.8875 329.6219Q579.6844 330.2625 579.29376 330.6219Q578.91876 330.98126 578.27814 331.1844Q577.6375 331.40314 576.66876 331.40314Q574.8094 331.40314 574.04376 330.7625Q573.27814 330.1375 573.27814 329.16876Q573.27814 329.0594 573.27814 328.9344ZM574.9969 324.66876Q574.9969 325.825 575.4344 326.3719Q575.8875 326.90314 576.54376 326.90314Q577.2469 326.90314 577.73126 326.35626Q578.21564 325.79376 578.21564 324.71564Q578.21564 323.59064 577.7469 323.04376Q577.29376 322.4969 576.575 322.4969Q575.8875 322.4969 575.4344 323.04376Q574.9969 323.575 574.9969 324.66876Z" fill-rule="nonzero"/><path fill="#9e9e9e" d="M548.96564 348.45L547.04376 348.45L547.04376 341.21564Q545.98126 342.2 544.5594 342.66876L544.5594 340.91876Q545.3094 340.6844 546.1844 339.9969Q547.075 339.3094 547.40314 338.3875L548.96564 338.3875L548.96564 348.45ZM555.29376 338.3875Q556.7469 338.3875 557.575 339.41876Q558.54376 340.65314 558.54376 343.5125Q558.54376 346.35626 557.5594 347.59064Q556.7469 348.6219 555.29376 348.6219Q553.825 348.6219 552.9344 347.4969Q552.04376 346.3719 552.04376 343.48126Q552.04376 340.65314 553.02814 339.41876Q553.84064 338.3875 555.29376 338.3875ZM555.29376 339.98126Q554.95 339.98126 554.66876 340.2Q554.40314 340.41876 554.2469 340.9969Q554.04376 341.7469 554.04376 343.5125Q554.04376 345.27814 554.21564 345.9344Q554.40314 346.59064 554.66876 346.8094Q554.95 347.02814 555.29376 347.02814Q555.6375 347.02814 555.90314 346.8094Q556.1844 346.59064 556.34064 346.0125Q556.54376 345.27814 556.54376 343.5125Q556.54376 341.7469 556.35626 341.09064Q556.1844 340.41876 555.90314 340.2Q555.6375 339.98126 555.29376 339.98126ZM560.45 348.45L560.45 346.52814L562.3719 346.52814L562.3719 348.45L560.45 348.45ZM567.29376 338.3875Q568.7469 338.3875 569.575 339.41876Q570.54376 340.65314 570.54376 343.5125Q570.54376 346.35626 569.5594 347.59064Q568.7469 348.6219 567.29376 348.6219Q565.825 348.6219 564.9344 347.4969Q564.04376 346.3719 564.04376 343.48126Q564.04376 340.65314 565.02814 339.41876Q565.84064 338.3875 567.29376 338.3875ZM567.29376 339.98126Q566.95 339.98126 566.66876 340.2Q566.40314 340.41876 566.2469 340.9969Q566.04376 341.7469 566.04376 343.5125Q566.04376 345.27814 566.21564 345.9344Q566.40314 346.59064 566.66876 346.8094Q566.95 347.02814 567.29376 347.02814Q567.6375 347.02814 567.90314 346.8094Q568.1844 346.59064 568.34064 346.0125Q568.54376 345.27814 568.54376 343.5125Q568.54376 341.7469 568.35626 341.09064Q568.1844 340.41876 567.90314 340.2Q567.6375 339.98126 567.29376 339.98126ZM572.0594 340.90314Q572.0594 339.5594 572.65314 338.91876Q573.2469 338.2625 574.2469 338.2625Q575.29376 338.2625 575.8875 338.90314Q576.48126 339.54376 576.48126 340.90314Q576.48126 342.2469 575.8875 342.90314Q575.29376 343.54376 574.29376 343.54376Q573.2469 343.54376 572.65314 342.90314Q572.0594 342.2625 572.0594 340.90314ZM573.5594 340.8875Q573.5594 341.8719 573.77814 342.2Q573.95 342.45 574.2469 342.45Q574.5594 342.45 574.73126 342.2Q574.95 341.8719 574.95 340.8875Q574.95 339.91876 574.73126 339.59064Q574.5594 339.325 574.2469 339.325Q573.95 339.325 573.77814 339.575Q573.5594 339.91876 573.5594 340.8875ZM575.71564 348.84064L574.29376 348.84064L579.6375 338.2625L581.0125 338.2625L575.71564 348.84064ZM578.825 346.2Q578.825 344.85626 579.40314 344.21564Q579.9969 343.5594 581.02814 343.5594Q582.0594 343.5594 582.65314 344.21564Q583.2469 344.85626 583.2469 346.2Q583.2469 347.5594 582.65314 348.21564Q582.0594 348.85626 581.04376 348.85626Q579.9969 348.85626 579.40314 348.21564Q578.825 347.5594 578.825 346.2ZM580.3094 346.2Q580.3094 347.16876 580.54376 347.4969Q580.71564 347.7469 581.0125 347.7469Q581.325 347.7469 581.48126 347.5125Q581.71564 347.16876 581.71564 346.2Q581.71564 345.21564 581.4969 344.8875Q581.325 344.6375 581.0125 344.6375Q580.7 344.6375 580.54376 344.8875Q580.3094 345.21564 580.3094 346.2Z" fill-rule="nonzero"/><path stroke="#757575" stroke-width="1.0" stroke-linecap="butt" d="M581.45 333.95L456.26666 333.95L352.551 334.91202" fill-rule="nonzero"/><path fill="#9e9e9e" d="M354.551 334.91202C354.551 333.80746 353.65558 332.91202 352.551 332.91202C351.44644 332.91202 350.551 333.80746 350.551 334.91202C350.551 336.0166 351.44644 336.91202 352.551 336.91202C353.65558 336.91202 354.551 336.0166 354.551 334.91202" fill-rule="nonzero"/><path fill="#000000" d="M214.70312 35.55L214.70312 24.846874L210.89062 24.846874L210.89062 22.659374L221.125 22.659374L221.125 24.846874L217.3125 24.846874L217.3125 35.55L214.70312 35.55ZM222.28125 29.190624Q222.28125 27.221874 222.875 25.878124Q223.3125 24.89375 224.0625 24.1125Q224.82812 23.33125 225.73438 22.95625Q226.9375 22.440624 228.51562 22.440624Q231.35938 22.440624 233.0625 24.20625Q234.78125 25.971874 234.78125 29.128124Q234.78125 32.2375 233.07812 34.003124Q231.39062 35.76875 228.54688 35.76875Q225.67188 35.76875 223.96875 34.01875Q222.28125 32.26875 222.28125 29.190624ZM224.96875 29.096874Q224.96875 31.284374 225.96875 32.425Q226.98438 33.55 228.54688 33.55Q230.09375 33.55 231.09375 32.425Q232.09375 31.3 232.09375 29.065624Q232.09375 26.846874 231.125 25.76875Q230.15625 24.675 228.54688 24.675Q226.9375 24.675 225.95312 25.784374Q224.96875 26.878124 224.96875 29.096874ZM236.84375 35.55L236.84375 22.659374L239.45312 22.659374L239.45312 28.39375L244.70312 22.659374L248.20312 22.659374L243.34375 27.690624L248.46875 35.55L245.09375 35.55L241.5625 29.503124L239.45312 31.659374L239.45312 35.55L236.84375 35.55ZM249.8125 35.55L249.8125 22.659374L259.35938 22.659374L259.35938 24.846874L252.40625 24.846874L252.40625 27.70625L258.875 27.70625L258.875 29.878124L252.40625 29.878124L252.40625 33.378124L259.60938 33.378124L259.60938 35.55L249.8125 35.55ZM261.84375 35.55L261.84375 22.659374L264.375 22.659374L269.64062 31.26875L269.64062 22.659374L272.0625 22.659374L272.0625 35.55L269.45312 35.55L264.25 27.14375L264.25 35.55L261.84375 35.55ZM279.8125 35.55L279.8125 22.659374L289.35938 22.659374L289.35938 24.846874L282.40625 24.846874L282.40625 27.70625L288.875 27.70625L288.875 29.878124L282.40625 29.878124L282.40625 33.378124L289.60938 33.378124L289.60938 35.55L279.8125 35.55ZM300.04688 30.815624L302.57812 31.6125Q302.0 33.721874 300.64062 34.753124Q299.29688 35.76875 297.21875 35.76875Q294.65625 35.76875 293.0 34.01875Q291.35938 32.26875 291.35938 29.221874Q291.35938 26.003124 293.01562 24.221874Q294.67188 22.440624 297.375 22.440624Q299.75 22.440624 301.21875 23.846874Q302.10938 24.675 302.54688 26.221874L299.96875 26.83125Q299.73438 25.83125 299.0 25.253124Q298.28125 24.675 297.25 24.675Q295.8125 24.675 294.92188 25.70625Q294.03125 26.721874 294.03125 29.034374Q294.03125 31.471874 294.90625 32.51875Q295.79688 33.55 297.20312 33.55Q298.23438 33.55 298.98438 32.89375Q299.73438 32.221874 300.04688 30.815624ZM304.28125 29.190624Q304.28125 27.221874 304.875 25.878124Q305.3125 24.89375 306.0625 24.1125Q306.82812 23.33125 307.73438 22.95625Q308.9375 22.440624 310.51562 22.440624Q313.35938 22.440624 315.0625 24.20625Q316.78125 25.971874 316.78125 29.128124Q316.78125 32.2375 315.07812 34.003124Q313.39062 35.76875 310.54688 35.76875Q307.67188 35.76875 305.96875 34.01875Q304.28125 32.26875 304.28125 29.190624ZM306.96875 29.096874Q306.96875 31.284374 307.96875 32.425Q308.98438 33.55 310.54688 33.55Q312.09375 33.55 313.09375 32.425Q314.09375 31.3 314.09375 29.065624Q314.09375 26.846874 313.125 25.76875Q312.15625 24.675 310.54688 24.675Q308.9375 24.675 307.95312 25.784374Q306.96875 26.878124 306.96875 29.096874ZM318.84375 35.55L318.84375 22.659374L321.375 22.659374L326.64062 31.26875L326.64062 22.659374L329.0625 22.659374L329.0625 35.55L326.45312 35.55L321.25 27.14375L321.25 35.55L318.84375 35.55ZM331.28125 29.190624Q331.28125 27.221874 331.875 25.878124Q332.3125 24.89375 333.0625 24.1125Q333.82812 23.33125 334.73438 22.95625Q335.9375 22.440624 337.51562 22.440624Q340.35938 22.440624 342.0625 24.20625Q343.78125 25.971874 343.78125 29.128124Q343.78125 32.2375 342.07812 34.003124Q340.39062 35.76875 337.54688 35.76875Q334.67188 35.76875 332.96875 34.01875Q331.28125 32.26875 331.28125 29.190624ZM333.96875 29.096874Q333.96875 31.284374 334.96875 32.425Q335.98438 33.55 337.54688 33.55Q339.09375 33.55 340.09375 32.425Q341.09375 31.3 341.09375 29.065624Q341.09375 26.846874 340.125 25.76875Q339.15625 24.675 337.54688 24.675Q335.9375 24.675 334.95312 25.784374Q333.96875 26.878124 333.96875 29.096874ZM345.78125 35.55L345.78125 22.659374L349.67188 22.659374L352.0 31.45625L354.3125 22.659374L358.21875 22.659374L358.21875 35.55L355.79688 35.55L355.79688 25.409374L353.25 35.55L350.73438 35.55L348.1875 25.409374L348.1875 35.55L345.78125 35.55ZM360.73438 35.55L360.73438 22.659374L363.32812 22.659374L363.32812 35.55L360.73438 35.55ZM374.04688 30.815624L376.57812 31.6125Q376.0 33.721874 374.64062 34.753124Q373.29688 35.76875 371.21875 35.76875Q368.65625 35.76875 367.0 34.01875Q365.35938 32.26875 365.35938 29.221874Q365.35938 26.003124 367.01562 24.221874Q368.67188 22.440624 371.375 22.440624Q373.75 22.440624 375.21875 23.846874Q376.10938 24.675 376.54688 26.221874L373.96875 26.83125Q373.73438 25.83125 373.0 25.253124Q372.28125 24.675 371.25 24.675Q369.8125 24.675 368.92188 25.70625Q368.03125 26.721874 368.03125 29.034374Q368.03125 31.471874 368.90625 32.51875Q369.79688 33.55 371.20312 33.55Q372.23438 33.55 372.98438 32.89375Q373.73438 32.221874 374.04688 30.815624ZM378.15625 31.3625L380.6875 31.1125Q380.90625 32.378124 381.60938 32.9875Q382.3125 33.58125 383.5 33.58125Q384.75 33.58125 385.39062 33.05Q386.03125 32.51875 386.03125 31.8Q386.03125 31.346874 385.75 31.034374Q385.48438 30.70625 384.82812 30.471874Q384.35938 30.315624 382.73438 29.909374Q380.64062 29.39375 379.79688 28.628124Q378.60938 27.565624 378.60938 26.034374Q378.60938 25.05 379.17188 24.20625Q379.73438 23.346874 380.78125 22.89375Q381.82812 22.440624 383.3125 22.440624Q385.75 22.440624 386.96875 23.503124Q388.20312 24.565624 388.26562 26.346874L385.65625 26.45625Q385.48438 25.471874 384.9375 25.034374Q384.39062 24.596874 383.29688 24.596874Q382.15625 24.596874 381.51562 25.065624Q381.10938 25.3625 381.10938 25.8625Q381.10938 26.315624 381.48438 26.64375Q381.98438 27.065624 383.875 27.51875Q385.78125 27.95625 386.6875 28.440624Q387.59375 28.909374 388.10938 29.753124Q388.625 30.58125 388.625 31.8Q388.625 32.909374 388.0 33.878124Q387.39062 34.83125 386.26562 35.315624Q385.14062 35.784374 383.46875 35.784374Q381.03125 35.784374 379.71875 34.659374Q378.40625 33.51875 378.15625 31.3625Z" fill-rule="nonzero"/></svg>