<svg width="361" height="97" viewBox="0 0 361 97" fill="none" xmlns="http://www.w3.org/2000/svg">
<g clip-path="url(#clip0_8_123)">
<path d="M48.127 96.2541C74.7069 96.2541 96.2541 74.7069 96.2541 48.127C96.2541 21.5472 74.7069 0 48.127 0C21.5472 0 0 21.5472 0 48.127C0 74.7069 21.5472 96.2541 48.127 96.2541Z" fill="#2767AB"/>
<path d="M67.8984 22.1709H48.142H48.1294H28.3731C25.1788 22.1709 22.6008 24.8998 22.6008 28.2575V58.4265C22.6008 58.4642 22.6134 58.4894 22.6134 58.5271C22.6386 61.6333 23.456 66.0222 27.3041 68.7134C33.7303 73.1903 42.0302 79.0506 48.0917 79.1135C48.1043 79.1135 48.1294 79.1135 48.142 79.1135C48.1546 79.1135 48.1797 79.1135 48.1923 79.1135C54.2663 79.0506 62.5663 73.1903 68.9799 68.7134C72.828 66.0348 73.6454 61.6333 73.6706 58.5271C73.6706 58.4894 73.6832 58.4642 73.6832 58.4265V28.2701C73.6832 24.8998 71.0926 22.1709 67.8984 22.1709ZM69.4955 57.2696C69.4955 57.2947 69.4955 57.3199 69.4829 57.3576C69.4577 59.9985 68.7787 63.7334 65.5593 66.0222C60.1895 69.8326 53.2477 74.8126 48.1671 74.8755C48.1546 74.8755 48.142 74.8755 48.1294 74.8755C48.1168 74.8755 48.1043 74.8755 48.0917 74.8755C43.0111 74.8252 36.0694 69.8326 30.6996 66.0222C27.4802 63.7334 26.8011 60.011 26.776 57.3576C26.776 57.3324 26.7634 57.3073 26.7634 57.2696V31.6152C26.7634 28.7605 28.9264 26.434 31.5924 26.434H48.1168H64.6413C67.3073 26.434 69.4703 28.748 69.4703 31.6152V57.2696H69.4955Z" fill="white"/>
<path d="M57.6853 45.4357C61.8316 45.4357 65.1929 42.1307 65.1929 38.0538C65.1929 33.9768 61.8316 30.6718 57.6853 30.6718C53.5389 30.6718 50.1776 33.9768 50.1776 38.0538C50.1776 42.1307 53.5389 45.4357 57.6853 45.4357Z" fill="white"/>
<path d="M33.2374 30.6596H43.7129C44.983 30.6596 46.0143 31.7034 46.0143 32.9986V68.55L33.0236 60.4639C31.7283 59.6591 30.936 58.2254 30.936 56.6786V33.0112C30.936 31.7159 31.9672 30.6596 33.2374 30.6596Z" fill="white"/>
</g>
<g clip-path="url(#clip1_8_123)">
<path d="M125.147 28.88V65.7823H137.957C141.647 65.7823 144.863 65.0442 147.71 63.4627C150.557 61.8812 152.718 59.7198 154.247 56.9257C155.776 54.1317 156.566 50.9159 156.566 47.3311C156.566 43.7463 155.776 40.5833 154.247 37.7893C152.718 34.9952 150.557 32.8338 147.71 31.2523C144.863 29.6708 141.647 28.88 137.957 28.88H125.147ZM137.957 59.1926H133.054V35.4697H137.957C141.278 35.4697 143.861 36.5768 145.707 38.7382C147.552 40.8996 148.501 43.7463 148.501 47.3311C148.501 50.9159 147.552 53.8154 145.707 55.9768C143.861 58.1382 141.278 59.1926 137.957 59.1926Z" fill="black"/>
<path d="M161.494 44.9589C160.334 47.0676 159.807 49.4926 159.807 52.2866C159.807 55.0806 160.387 57.5056 161.547 59.6143C162.707 61.723 164.394 63.3046 166.608 64.4116C168.822 65.5714 171.405 66.0986 174.463 66.0986C176.782 66.0986 178.838 65.7296 180.631 64.8861C182.423 64.0426 183.846 62.9355 184.953 61.4594C186.008 60.0361 186.693 58.4018 187.009 56.6094H179.682C179.365 57.8747 178.68 58.8763 177.678 59.5089C176.677 60.1415 175.412 60.4578 173.936 60.4578C172.038 60.4578 170.509 59.9306 169.455 58.7708C168.347 57.6638 167.715 56.135 167.557 54.1317V53.9208H187.22C187.326 53.1828 187.431 52.3393 187.431 51.3904C187.378 48.7545 186.746 46.4877 185.586 44.5371C184.426 42.5866 182.792 41.0578 180.683 40.0034C178.575 38.9491 176.202 38.3692 173.461 38.3692C170.72 38.3692 168.347 38.9491 166.291 40.1088C164.235 41.2686 162.654 42.8502 161.494 44.9589ZM179.998 49.0708H167.715C167.926 47.4893 168.558 46.2768 169.665 45.3279C170.772 44.379 172.143 43.9045 173.777 43.9045C175.464 43.9045 176.835 44.379 177.942 45.2752C179.049 46.1714 179.734 47.4366 179.998 49.0708Z" fill="black"/>
<path d="M207.098 28.88H192.073V65.7823H199.981V53.3937H207.098C209.734 53.3937 212.053 52.9192 214.056 51.9176C216.06 50.9159 217.641 49.4926 218.748 47.6474C219.855 45.8023 220.435 43.6409 220.435 41.1632C220.435 38.7382 219.855 36.5768 218.748 34.6789C217.641 32.8338 216.06 31.4104 214.056 30.4088C212.053 29.4072 209.734 28.88 207.098 28.88ZM199.981 46.804V35.4697H206.36C208.205 35.4697 209.681 35.9969 210.788 36.9985C211.842 38.0529 212.422 39.4235 212.422 41.1632C212.422 42.9029 211.842 44.2735 210.788 45.2752C209.681 46.3295 208.205 46.804 206.36 46.804H199.981Z" fill="black"/>
<path d="M228.797 64.4116C230.958 65.5714 233.489 66.0986 236.335 66.0986C239.182 66.0986 241.66 65.5714 243.821 64.4116C245.983 63.2518 247.67 61.6703 248.829 59.5616C249.989 57.4529 250.622 55.0279 250.622 52.2339C250.622 49.4926 249.989 47.0676 248.829 44.9589C247.67 42.8502 245.983 41.2686 243.821 40.1088C241.66 38.9491 239.182 38.3692 236.335 38.3692C233.489 38.3692 230.958 38.9491 228.797 40.1088C226.635 41.2686 224.948 42.8502 223.789 44.9589C222.629 47.0676 222.049 49.4926 222.049 52.2339C222.049 54.9752 222.629 57.4002 223.789 59.5089C224.948 61.6176 226.635 63.2518 228.797 64.4116ZM241.238 57.8747C240.026 59.3507 238.391 60.0361 236.335 60.0361C234.279 60.0361 232.645 59.3507 231.433 57.8747C230.22 56.4513 229.64 54.5534 229.64 52.2339C229.64 49.9143 230.22 48.0692 231.433 46.5931C232.645 45.1697 234.279 44.4317 236.335 44.4317C238.391 44.4317 240.026 45.1697 241.238 46.5931C242.451 48.0692 243.083 49.9143 243.083 52.2339C243.083 54.5534 242.451 56.4513 241.238 57.8747Z" fill="black"/>
<path d="M276.538 63.3046C278.858 61.4067 280.228 58.8236 280.756 55.5024H273.112C272.795 56.9257 272.163 58.0328 271.214 58.8236C270.265 59.667 269.052 60.0361 267.629 60.0361C265.678 60.0361 264.15 59.3507 262.99 57.8747C261.83 56.4513 261.25 54.5534 261.25 52.2339C261.25 49.9143 261.83 48.0692 262.99 46.5931C264.15 45.1697 265.678 44.4317 267.629 44.4317C269 44.4317 270.212 44.8534 271.161 45.6442C272.11 46.4349 272.743 47.4893 273.059 48.8072H280.756C280.228 45.5387 278.805 43.0083 276.538 41.1632C274.219 39.3181 271.266 38.3692 267.682 38.3692C264.835 38.3692 262.357 38.9491 260.249 40.1088C258.14 41.2686 256.506 42.8502 255.346 44.9589C254.186 47.0676 253.659 49.4926 253.659 52.2339C253.659 54.9752 254.186 57.4002 255.346 59.5089C256.506 61.6176 258.14 63.2518 260.249 64.4116C262.357 65.5714 264.782 66.0986 267.629 66.0986C271.266 66.0986 274.219 65.2024 276.538 63.3046Z" fill="black"/>
<path d="M284.779 28.88V65.7823H292.212V59.1926L296.271 54.817L303.124 65.7823H311.717L301.543 49.2817L311.19 38.6855H302.861L292.212 50.2306V28.88H284.779Z" fill="black"/>
<path d="M313.109 44.9589C311.949 47.0676 311.422 49.4926 311.422 52.2866C311.422 55.0806 312.001 57.5056 313.161 59.6143C314.321 61.723 316.008 63.3046 318.222 64.4116C320.436 65.5714 323.019 66.0986 326.077 66.0986C328.397 66.0986 330.453 65.7296 332.245 64.8861C334.037 64.0426 335.461 62.9355 336.568 61.4594C337.622 60.0361 338.308 58.4018 338.624 56.6094H331.296C330.98 57.8747 330.294 58.8763 329.293 59.5089C328.291 60.1415 327.026 60.4578 325.55 60.4578C323.652 60.4578 322.123 59.9306 321.069 58.7708C319.962 57.6638 319.329 56.135 319.171 54.1317V53.9208H338.835C338.94 53.1828 339.046 52.3393 339.046 51.3904C338.993 48.7545 338.36 46.4877 337.2 44.5371C336.041 42.5866 334.406 41.0578 332.298 40.0034C330.189 38.9491 327.817 38.3692 325.075 38.3692C322.334 38.3692 319.962 38.9491 317.906 40.1088C315.85 41.2686 314.268 42.8502 313.109 44.9589ZM331.612 49.0708H319.329C319.54 47.4893 320.173 46.2768 321.28 45.3279C322.387 44.379 323.757 43.9045 325.392 43.9045C327.079 43.9045 328.449 44.379 329.556 45.2752C330.663 46.1714 331.349 47.4366 331.612 49.0708Z" fill="black"/>
<path d="M344.744 44.9589V58.0328C344.744 63.1991 347.328 65.7823 352.494 65.7823H358.662V59.5089H354.813C353.865 59.5089 353.179 59.298 352.757 58.8763C352.336 58.4545 352.178 57.7692 352.178 56.8203V44.9589H358.346V38.6855H352.178V31.0941H344.744V38.6855H340.263V44.9589H344.744Z" fill="black"/>
</g>
<defs>
<clipPath id="clip0_8_123">
<rect width="96.2667" height="96.2667" fill="white"/>
</clipPath>
<clipPath id="clip1_8_123">
<rect width="235.853" height="38.5067" fill="white" transform="translate(125.147 28.88)"/>
</clipPath>
</defs>
</svg>
