<svg width="97" height="97" viewBox="0 0 97 97" fill="none" xmlns="http://www.w3.org/2000/svg">
<g clip-path="url(#clip0_8_124)">
<path d="M48.127 96.2541C74.7069 96.2541 96.2541 74.7069 96.2541 48.127C96.2541 21.5472 74.7069 0 48.127 0C21.5472 0 0 21.5472 0 48.127C0 74.7069 21.5472 96.2541 48.127 96.2541Z" fill="#2767AB"/>
<path d="M67.8984 22.1709H48.142H48.1294H28.3731C25.1788 22.1709 22.6008 24.8998 22.6008 28.2575V58.4265C22.6008 58.4642 22.6134 58.4894 22.6134 58.5271C22.6386 61.6333 23.456 66.0222 27.3041 68.7134C33.7303 73.1903 42.0302 79.0506 48.0917 79.1135C48.1043 79.1135 48.1294 79.1135 48.142 79.1135C48.1546 79.1135 48.1797 79.1135 48.1923 79.1135C54.2663 79.0506 62.5663 73.1903 68.9799 68.7134C72.828 66.0348 73.6454 61.6333 73.6706 58.5271C73.6706 58.4894 73.6832 58.4642 73.6832 58.4265V28.2701C73.6832 24.8998 71.0926 22.1709 67.8984 22.1709ZM69.4955 57.2696C69.4955 57.2947 69.4955 57.3199 69.4829 57.3576C69.4577 59.9985 68.7787 63.7334 65.5593 66.0222C60.1895 69.8326 53.2477 74.8126 48.1671 74.8755C48.1546 74.8755 48.142 74.8755 48.1294 74.8755C48.1168 74.8755 48.1043 74.8755 48.0917 74.8755C43.0111 74.8252 36.0694 69.8326 30.6996 66.0222C27.4802 63.7334 26.8011 60.0111 26.776 57.3576C26.776 57.3324 26.7634 57.3073 26.7634 57.2696V31.6152C26.7634 28.7605 28.9264 26.434 31.5924 26.434H48.1168H64.6413C67.3073 26.434 69.4703 28.748 69.4703 31.6152V57.2696H69.4955Z" fill="white"/>
<path d="M57.6853 45.4357C61.8316 45.4357 65.1929 42.1307 65.1929 38.0538C65.1929 33.9768 61.8316 30.6718 57.6853 30.6718C53.5389 30.6718 50.1776 33.9768 50.1776 38.0538C50.1776 42.1307 53.5389 45.4357 57.6853 45.4357Z" fill="white"/>
<path d="M33.2374 30.6596H43.7129C44.983 30.6596 46.0143 31.7034 46.0143 32.9986V68.55L33.0236 60.4639C31.7283 59.6591 30.936 58.2254 30.936 56.6786V33.0112C30.936 31.7159 31.9672 30.6596 33.2374 30.6596Z" fill="white"/>
</g>
<defs>
<clipPath id="clip0_8_124">
<rect width="96.2667" height="96.2667" fill="white"/>
</clipPath>
</defs>
</svg>
